<?xml version="1.0" encoding="utf-8"?>
<!-- Generator: Adobe Illustrator 24.0.0, SVG Export Plug-In . SVG Version: 6.00 Build 0)  -->
<svg version="1.1" id="Layer_1" xmlns="http://www.w3.org/2000/svg" xmlns:xlink="http://www.w3.org/1999/xlink" x="0px" y="0px"
	 viewBox="0 0 1200 1000" style="enable-background:new 0 0 1200 1000;" xml:space="preserve">
<style type="text/css">
	.st0{display:none;fill:#FFFFFF;}
	.st1{fill:#898989;}
	.st2{fill:#140F0E;}
	.st3{fill:#301F23;}
	.st4{fill:#140D0F;}
	.st5{fill:#D88D5B;}
	.st6{fill:#176E82;}
	.st7{fill:#1C92A5;}
	.st8{fill:#BACAE0;}
	.st9{fill:#125A66;}
	.st10{fill:#3F2935;}
	.st11{fill:#FFB278;}
	.st12{fill:#E5804E;}
	.st13{fill:#23161E;}
	.st14{fill:#D8250E;}
	.st15{fill:#E25B00;}
	.st16{fill:#E59E00;}
	.st17{fill:#69999E;}
	.st18{fill:#FFFFFF;}
	.st19{fill:#BA562F;}
	.st20{fill:#1E1714;}
	.st21{fill:#2D221E;}
	.st22{fill:#AA160B;}
	.st23{fill:#F9DD50;}
	.st24{fill:#601E13;}
	.st25{fill:#822316;}
	.st26{fill:#F5DFD4;}
	.st27{fill:#E2C5B7;}
	.st28{fill:#617695;}
	.st29{fill:#4F6177;}
	.st30{fill:#F72828;}
	.st31{fill:#E52323;}
	.st32{fill:#3F1411;}
	.st33{fill:#1E1316;}
	.st34{fill:#2F4C1C;}
	.st35{fill:#E8E2DD;}
	.st36{fill:#47722B;}
	.st37{fill:#6BAA43;}
	.st38{fill:#FFFBF8;}
	.st39{fill:#F72E1E;}
	.st40{fill:#3B3348;}
	.st41{fill:#68300B;}
	.st42{fill:#260F0E;}
	.st43{fill:#086A97;}
	.st44{fill:#084B63;}
	.st45{fill:#0B8BB7;}
	.st46{fill:#095E7C;}
	.st47{fill:#3F1616;}
	.st48{fill:#160808;}
	.st49{fill:#A18BBC;}
	.st50{opacity:0.4;}
	.st51{fill:#AD4B14;}
	.st52{fill:#441E08;}
	.st53{fill:#BABABA;}
	.st54{fill:#E2E2E2;}
	.st55{fill:#F9A56B;}
	.st56{fill:#0E0E11;}
	.st57{fill:#18181E;}
	.st58{fill:#313944;}
	.st59{fill:#384150;}
	.st60{fill:#C7C7DD;}
	.st61{fill:#DADAEF;}
	.st62{fill:#F8F8FF;}
	.st63{fill:#3D2726;}
	.st64{fill:#D86F41;}
	.st65{fill:#16100F;}
	.st66{fill:#73504A;}
	.st67{fill:#684743;}
	.st68{fill:#2E2A29;}
	.st69{fill:#423D3C;}
	.st70{fill:#E2231A;}
	.st71{fill:#F92828;}
	.st72{fill:#075975;}
</style>
<rect class="st0" width="1200" height="1000"/>
<path class="st1" d="M1075.03,919.88c0,5.04-209.85,9.12-468.71,9.12s-468.71-4.09-468.71-9.12c0-5.04,209.85-9.13,468.71-9.13
	S1075.03,914.84,1075.03,919.88z"/>
<g>
	<path class="st2" d="M925.87,250.01c13.89,2.41,31.46,1.57,44.16,9.88c14.11,9.22,16.97,34.98,20.21,50.01
		c7.22,33.49,12.07,68.05,16.68,101.99c3.11,22.91,10.23,56.36-1.68,77.63c-17.41,31.08-75.31,34.63-105.61,26.07
		c-39.4-11.13-42.89-55.48-42.61-89.75c-0.36-0.97-0.32,0.63-0.77,0.84L925.87,250.01z"/>
	<g>
		<g>
			<g>
				<path class="st3" d="M744.61,918.66c5,3.53,40.77,2.8,52.13,0.92c0.03,0,0.07-0.01,0.1-0.02c1.85-0.31,3.13-0.66,3.66-1.05
					c0.04-0.03,0.08-0.06,0.11-0.09c1.5-1.47,1.08-7.44-0.16-14.59c-1.99-11.47-6.1-25.97-7.72-29.64l-15.77,2.01
					C767.17,900.64,740.28,902.93,744.61,918.66z"/>
			</g>
			<g>
				<path class="st4" d="M800.6,918.42c-0.03,0.03-0.07,0.06-0.11,0.09c-0.52,0.38-1.81,0.74-3.65,1.05c-0.04,0-0.07,0.01-0.1,0.02
					c-11.35,1.88-47.13,2.61-52.12-0.92c-0.71-2.56-0.58-4.77,0.16-6.77c0.05,0.27,0.12,0.55,0.2,0.83
					c4.99,3.53,40.77,2.8,52.12,0.92c0.03-0.01,0.06-0.01,0.1-0.02c1.84-0.31,3.13-0.66,3.65-1.05c0.01-0.01,0.28-0.08,0.66-0.17
					C801.67,915.41,801.43,917.6,800.6,918.42z"/>
			</g>
			<path class="st5" d="M800.03,830.87l-25.65-12.36c0.69,17.88-0.68,67.81,1.05,71.3c0,0,7.58,2.3,10.86,0.52
				C792.98,886.72,801.15,842.16,800.03,830.87z"/>
			<path class="st3" d="M775.65,869.02c-8.27,0.39-11.15,3.75-9.2,10.89c0.91,3.32,4.03,17.07,1.12,18.01l16.18,0.49
				C786.71,890.01,792.5,868.23,775.65,869.02z"/>
		</g>
		<g>
			<g>
				<path class="st3" d="M954.6,919.18c-0.92,0.65-2.68,1.14-5.02,1.49c-10.41,1.57-32.23,0.45-41.5-1.09
					c-0.03-0.01-0.07-0.01-0.1-0.02c-0.78-0.13-1.47-0.27-2.03-0.42c-0.77-0.2-1.32-0.41-1.62-0.63c-0.04-0.03-0.08-0.07-0.11-0.09
					c-0.84-0.82-1.08-3.05-0.91-6.12c0.03-0.48,0.06-0.97,0.11-1.49c0.18-2.08,0.52-4.46,0.96-6.98c2-11.48,6.1-25.97,7.73-29.64
					l15.77,2.01c4.54,11.34,11.55,18.02,17.33,23.5c4.97,4.7,9.02,8.52,9.83,13.63C955.31,915.1,955.19,917.02,954.6,919.18z"/>
			</g>
			<g>
				<path class="st4" d="M954.6,919.18c-0.92,0.65-2.68,1.14-5.02,1.49c-12.47,1.02-33.63-0.04-43.09-1.44
					c-0.04-0.01-0.07-0.01-0.11-0.02c-0.15-0.02-0.29-0.05-0.43-0.07c-0.77-0.2-1.32-0.41-1.62-0.63c-0.04-0.03-0.08-0.07-0.11-0.09
					c-0.84-0.82-1.08-3.05-0.91-6.12c1.16,0.07,2.3,0.15,3.06,0.27c0.04,0,0.07,0.01,0.11,0.02c11.05,1.64,38.05,2.8,48.54,0.74
					C955.31,915.1,955.19,917.02,954.6,919.18z"/>
			</g>
			<path class="st5" d="M904.79,830.87l25.65-12.36c-0.69,17.88,0.68,67.81-1.05,71.3c0,0-7.58,2.3-10.86,0.52
				C911.84,886.72,903.67,842.16,904.79,830.87z"/>
			<path class="st3" d="M929.16,869.02c8.27,0.39,11.15,3.75,9.2,10.89c-0.91,3.32-4.03,17.07-1.12,18.01l-16.18,0.49
				C918.11,890.01,912.31,868.23,929.16,869.02z"/>
		</g>
		<path class="st6" d="M947.14,518.77c-0.04,1.04-0.09,2.09-0.14,3.16c-2.46,56.94-7.88,148.02-6.37,220.72
			c1.05,50.16-3.11,95.16-6,118.33l-30.37,1.06c-4.98-26.82-13.39-74.93-10.53-117.99c3.84-57.84-7.23-121.74-13.19-182.06
			c-0.69-6.99-1.31-13.94-1.84-20.82v0c-0.08-1.02-0.15-2.03-0.22-3.05l0.06-1.76l0.01-0.33c0,0,0,0,0,0l0.09-2.82l1.65-50.46
			l0.21-6.49l67.34-3.46C948.49,480.7,948.05,497.06,947.14,518.77z"/>
		<path class="st6" d="M766.72,858.69l28.94,2.21c1.26-3.22,2.65-6.82,4.11-10.73c10.13-27.02,24.18-69.04,28.85-106.46
			c8.12-65.02,31.98-133.62,49.4-198.55c0.04-0.17,0.09-0.34,0.14-0.51l0.55-3.47v0l0.77-4.86l0.51-3.19l0.03-0.18l7.06-44.37
			l0.81-5.09l-7.58-0.72l-60.17-5.76c-1.85,6.69-3.66,19.38-5.65,36.19c-0.12,1.04-0.25,2.09-0.37,3.16
			c-6.16,53.15-14.09,144.08-30.07,218.62c-4.64,21.65-7.57,44.46-9.83,64.86c-2.29,20.63-3.89,38.81-5.87,50.89
			C767.83,853.78,767.3,856.47,766.72,858.69z"/>
		<path class="st7" d="M899.94,848.4c-1.18,4.06,1.45,11.02,1.62,15.2l34.1,1.05c1.83-4.44,1.8-11.64,2.08-16.7
			C924.83,848.4,911.69,849.02,899.94,848.4z"/>
		<path class="st8" d="M842.09,479.41c-0.05,0.48-0.1,0.98-0.15,1.48c-0.88,9.03-2.21,22.68-9.9,29.42
			c-5.2,4.56-11.28,6.02-17.5,6.02c-0.14,0-0.28,0-0.43,0c0.12-1.07,0.25-2.12,0.37-3.16c5.56-0.01,10.93-1.28,15.38-5.19
			c6.75-5.92,8.01-18.83,8.85-27.38c0.05-0.51,0.1-1.01,0.15-1.49L842.09,479.41z"/>
		<path class="st9" d="M768.34,850.7c5.8-0.48,12.18-0.2,17.69-0.75c2.72-0.27,8.31,0.13,13.75,0.22
			c10.13-27.02,24.18-69.04,28.85-106.46c8.12-65.02,31.98-133.62,49.4-198.55c0.04-0.17,0.09-0.34,0.14-0.51l0.55-3.47v0l0.77-4.86
			l0.51-3.19l0.03-0.18h-12.96c-7.27,9.35-9.7,30.38-12.26,43.14c-3.06,15.27-7.69,29.82-13.13,45.31
			c-10.69,30.4-19.67,59.25-22.84,91.06c-2.59,25.86-7.38,98.32-44.62,87.37C771.92,820.44,770.32,838.62,768.34,850.7z"/>
		<path class="st8" d="M947.14,518.77c-0.04,1.04-0.09,2.09-0.14,3.16c-7.11-0.01-14.06-1.46-19.98-5.95
			c-8.92-6.74-10.47-20.42-11.5-29.47c-0.06-0.51-0.12-1-0.17-1.48l3.23-0.35c0.06,0.48,0.12,0.98,0.17,1.49
			c0.97,8.53,2.43,21.41,10.27,27.33C934.27,517.47,940.59,518.76,947.14,518.77z"/>
		<g>
			<path class="st7" d="M867.51,536.69l-0.4-1.04c-3.82-9.86,0.84-36.89,4.58-44.98l2.96,1.29c-3.46,7.49-7.63,31.81-4.85,41.54
				c5.02-0.11,8.53-0.24,10.44-0.41l0.29,3.13c-2.16,0.19-6.05,0.33-11.87,0.44L867.51,536.69z"/>
			<path class="st7" d="M888.46,488.87c-5.76,24.37-6.98,47.52-7.9,73.11h-0.02c-0.69-6.99-1.31-13.94-1.84-20.82l-0.55,3.47
				c-0.05,0.17-0.09,0.34-0.14,0.51c0.15-2.95,0.32-5.88,0.51-8.79c0.01-0.11,0.01-0.22,0.02-0.33c0,0,0,0,0,0
				c0.06-0.94,0.13-1.89,0.2-2.83c1.1-15.1,2.95-29.81,6.54-45.03l1.78,0.39L888.46,488.87z"/>
		</g>
		<path class="st7" d="M767.42,844.29c-1.18,4.06-2.42,10.42-2.25,14.6l34.64,2.62c1.83-4.44,3.42-11.64,3.71-16.7
			C790.61,845.26,779.17,844.9,767.42,844.29z"/>
	</g>
	<path class="st10" d="M967.93,337.7c-4.11,27.83-14.81,69.14-15.4,81.74c-0.01,0.24-0.02,0.48-0.03,0.72
		c-0.92,20.55,0.01,50.21-0.91,69.76c-3.94,12.74-73.04,8.84-110.63,2.47c-0.23-0.04-0.45-0.08-0.67-0.12
		c-0.22-0.04-0.44-0.08-0.66-0.12c-0.36-0.06-0.72-0.13-1.07-0.19c-11.72-2.1-19.91-4.42-21.28-6.48c0,0,0,0,0,0
		c-0.05-0.08-0.09-0.15-0.12-0.23c-0.03-0.08-0.06-0.15-0.07-0.23c-1.3-7.59,4.95-29.34,6.46-36.99c3.88-19.56,0.18-67.04-0.3-76.63
		c-0.13-2.53-0.39-5.13-0.78-7.77c-0.86-5.97-2.32-12.09-4.08-17.82c-0.46-1.51-0.94-3-1.44-4.44c-3.2-9.3-8.68-20.09-9.62-29.64
		c-0.92-9.35,6.99-45.31,8.49-55c1.43-9.24,31.42-8.55,37.69-15.7l16.05,7.3c5.77-1.61,13.9,0.93,20.31-0.24
		c5.06-0.92,10.11-3.25,14.98-4.7c4.39-1.29,9.05-5.06,13.17-5.71c8.2-1.29,43.29,5.93,50.89,8.6c0.05,0.02,0.1,0.04,0.15,0.06
		c1.58,0.57,2.77,2.2,3.66,4.64C978.63,267.28,970.57,319.81,967.93,337.7z"/>
	<path class="st11" d="M847.59,244.51c2.5,9.78,13.45,26.66,28.05,27.24c14.03,0.56,38.94-16.19,47.74-33.23
		c-4.95-1.1-10.25,1.29-12.65-5.5c-1.43-4.03-2.63-5.67-3.23-9.95c0-0.03-0.01-0.06-0.02-0.1c-0.15-1.06-0.29-2.11-0.43-3.14
		c-0.63-4.54-0.7-9.53-0.63-14.48c0.08-5.56,0.34-11.09,0.19-15.87c-0.02-0.72-0.06-1.42-0.1-2.11l-36.34,17.98l-15.91,7.87
		c-0.01,0.52,0.02,1.07,0.07,1.65c0.16,1.97,0.61,4.29,1.15,6.8c0.77,3.67,1.17,7.12,0.92,10.24
		C855.94,237.3,853.5,241.69,847.59,244.51z"/>
	<path class="st12" d="M854.26,213.22c-0.01,0.52,0.02,1.07,0.07,1.65c0.16,1.97,0.61,4.29,1.15,6.8c0.77,3.67,1.17,7.12,0.92,10.24
		c8.59,8.62,16.33,9.12,22.56,7.62c15.54-3.73,27.4-29.23,27.47-34.18h-36.26L854.26,213.22z"/>
	<path class="st13" d="M967.93,337.7c-4.11,27.83-14.81,69.14-15.4,81.74c-0.01,0.24-0.02,0.48-0.03,0.72
		c-0.92,20.55,0.01,50.21-0.91,69.76c-0.63,13.4-72.14,9.1-110.63,2.47c-0.23-0.04-0.45-0.08-0.67-0.12
		c-0.22-0.04-0.44-0.08-0.66-0.12c-0.36-0.06-0.72-0.13-1.07-0.19c-11.71-2.13-19.89-4.45-21.28-6.48c0,0,0,0,0,0
		c-0.05-0.08-0.09-0.15-0.12-0.23c-0.03-0.08-0.06-0.15-0.07-0.23c-1.3-7.59,4.95-29.34,6.46-36.99c3.88-19.56,0.18-67.04-0.3-76.63
		c-0.13-2.53-0.39-5.13-0.78-7.77c-0.86-5.97-2.32-12.09-4.08-17.82c9.23,5.3,45.71,14.46,59.53,16.14
		c49.64,6.01,73.83-25.74,77.82-38.51c6.59-21.11,11.67-49.06,16.99-72.45C978.63,267.28,970.57,319.81,967.93,337.7z"/>
	<g>
		<path class="st14" d="M957.28,325.82c9.67,16.39,12.83,22.4,16.02,28.7c6.26,12.37,12.61,25.87,17.05,37
			c0.08,0.2,0.16,0.4,0.24,0.6c3.38,8.53,6.01,24.82,15.17,30.32c3.14,1.89,7.04,2.5,12.01,1.1c0,0,0.01,0,0.01,0
			c0.25-0.07,0.5-0.15,0.76-0.23c12.32-3.9,16.49-15.58,15.96-30.46c-1.32-37.56-45.75-135.37-63.71-145.85
			c0,0-28.72,38.08-28.45,53.15C942.47,307.58,957.28,325.82,957.28,325.82z"/>
	</g>
	<path class="st14" d="M888.44,541.95c11.98,4.16,32.07,0.47,45.12-0.71c6.56-0.59,12.5-2.53,19.26-2.28
		c5.82,0.21,15.77,4.09,20.96,2.99c0.37-4.72-9.38-144.59-8.23-157.2c3.34-36.57,13.47-83.09,12.7-126.49
		c-0.08-4.32-6.84-12.22-11.21-13.5c-6.52-1.9-15.12-3.51-23.42-4.78c-10.88-1.67-21.25-2.77-25.81-3.22
		c-1.55-0.15-2.42-0.23-2.42-0.23c0.06,0.56-0.03,2.61-0.24,5.94c-0.92,14.69-4.21,54.23-8.2,100
		C899.67,425.92,890.1,530.05,888.44,541.95z"/>
	<path class="st14" d="M856.08,544.26c-9.98,3.61-26.21-0.82-36.8-2.5c-5.33-0.84-10.08-2.99-15.61-3.02
		c-4.76-0.02-13.07,3.39-17.26,2.11c-0.08-4.66,18.06-285.41,30.17-291.71c5-2.6,32.23-6.45,32.23-6.45
		c-0.07,0.55-0.1,2.57-0.09,5.86c0.04,14.49,0.83,53.53,1.88,98.72C852.5,429.65,855.29,532.49,856.08,544.26z"/>
	<g>
		<path class="st15" d="M755.08,536.72c-3.15-0.45-5.34-3.37-4.89-6.52l9.5-66.17c0.45-3.15,3.37-5.34,6.52-4.89l97.36,13.97
			c3.15,0.45,5.34,3.37,4.89,6.52l-9.5,66.17c-0.45,3.15-3.37,5.34-6.52,4.89L755.08,536.72z"/>
		<path class="st16" d="M755.76,531.95c-3.15-0.45-5.34-3.37-4.89-6.52l9.5-66.17c0.45-3.15,3.37-5.34,6.52-4.89l97.36,13.98
			c3.15,0.45,5.34,3.37,4.88,6.52l-9.5,66.17c-0.45,3.15-3.37,5.34-6.52,4.89L755.76,531.95z"/>
		<g>
			<path class="st17" d="M851.92,473.15c-1.19-0.17-2.02-1.28-1.85-2.47l0,0c0.17-1.19,1.28-2.02,2.47-1.85l0,0
				c1.19,0.17,2.02,1.28,1.85,2.47l0,0C854.22,472.49,853.12,473.32,851.92,473.15L851.92,473.15z"/>
			<path class="st17" d="M841.27,471.62c-1.19-0.17-2.02-1.28-1.85-2.47l0,0c0.17-1.19,1.28-2.02,2.47-1.85l0,0
				c1.19,0.17,2.02,1.28,1.85,2.47l0,0C843.58,470.96,842.47,471.79,841.27,471.62L841.27,471.62z"/>
			<path class="st17" d="M830.63,470.09c-1.19-0.17-2.02-1.28-1.85-2.47l0,0c0.17-1.19,1.28-2.02,2.47-1.85l0,0
				c1.19,0.17,2.02,1.28,1.85,2.47l0,0C832.93,469.43,831.82,470.26,830.63,470.09L830.63,470.09z"/>
			<path class="st17" d="M819.98,468.56c-1.19-0.17-2.02-1.28-1.85-2.47l0,0c0.17-1.19,1.28-2.02,2.47-1.85l0,0
				c1.19,0.17,2.02,1.28,1.85,2.47l0,0C822.28,467.9,821.17,468.73,819.98,468.56L819.98,468.56z"/>
			<path class="st17" d="M809.33,467.03c-1.19-0.17-2.02-1.28-1.85-2.47l0,0c0.17-1.19,1.28-2.02,2.47-1.85l0,0
				c1.19,0.17,2.02,1.28,1.85,2.47l0,0C811.63,466.37,810.52,467.2,809.33,467.03L809.33,467.03z"/>
			<path class="st17" d="M798.68,465.5c-1.19-0.17-2.02-1.28-1.85-2.47l0,0c0.17-1.19,1.28-2.02,2.47-1.85l0,0
				c1.19,0.17,2.02,1.28,1.85,2.47l0,0C800.98,464.85,799.88,465.67,798.68,465.5L798.68,465.5z"/>
			<path class="st17" d="M788.03,463.97c-1.2-0.17-2.02-1.28-1.85-2.47l0,0c0.17-1.19,1.28-2.02,2.47-1.85l0,0
				c1.19,0.17,2.02,1.28,1.85,2.47l0,0C790.34,463.32,789.23,464.15,788.03,463.97L788.03,463.97z"/>
			<path class="st17" d="M777.38,462.45c-1.19-0.17-2.02-1.28-1.85-2.47l0,0c0.17-1.19,1.28-2.02,2.47-1.85l0,0
				c1.19,0.17,2.02,1.28,1.85,2.47l0,0C779.69,461.79,778.58,462.62,777.38,462.45L777.38,462.45z"/>
		</g>
		<g>
			<path class="st18" d="M852.22,471.08c-0.73-0.11-1.24-0.79-1.14-1.52l1.2-8.37c0.11-0.73,0.79-1.24,1.52-1.14l0,0
				c0.74,0.11,1.25,0.79,1.14,1.52l-1.2,8.37C853.64,470.67,852.95,471.18,852.22,471.08L852.22,471.08z"/>
			<path class="st18" d="M841.57,469.55c-0.74-0.1-1.25-0.79-1.14-1.52l1.2-8.37c0.11-0.73,0.79-1.25,1.52-1.14l0,0
				c0.73,0.11,1.25,0.79,1.14,1.52l-1.2,8.37C842.99,469.14,842.31,469.65,841.57,469.55L841.57,469.55z"/>
			<path class="st18" d="M830.92,468.02c-0.73-0.11-1.24-0.79-1.14-1.52l1.2-8.37c0.11-0.74,0.79-1.24,1.52-1.14l0,0
				c0.73,0.11,1.24,0.79,1.14,1.52l-1.2,8.37C832.34,467.62,831.66,468.13,830.92,468.02L830.92,468.02z"/>
			<path class="st18" d="M820.27,466.49c-0.73-0.11-1.25-0.79-1.14-1.52l1.2-8.37c0.11-0.74,0.79-1.25,1.52-1.14l0,0
				c0.74,0.11,1.25,0.79,1.14,1.52l-1.2,8.37C821.69,466.09,821.01,466.6,820.27,466.49L820.27,466.49z"/>
			<path class="st18" d="M809.63,464.96c-0.74-0.11-1.25-0.79-1.14-1.52l1.2-8.37c0.11-0.74,0.79-1.25,1.52-1.14l0,0
				c0.74,0.11,1.25,0.79,1.14,1.52l-1.2,8.37C811.04,464.56,810.36,465.07,809.63,464.96L809.63,464.96z"/>
			<path class="st18" d="M798.98,463.44c-0.73-0.11-1.25-0.79-1.14-1.52l1.2-8.37c0.11-0.74,0.79-1.25,1.52-1.14l0,0
				c0.74,0.11,1.25,0.79,1.14,1.52l-1.2,8.37C800.39,463.03,799.71,463.54,798.98,463.44L798.98,463.44z"/>
			<path class="st18" d="M788.33,461.91c-0.73-0.11-1.25-0.79-1.14-1.52l1.2-8.37c0.11-0.74,0.79-1.24,1.52-1.14l0,0
				c0.73,0.11,1.24,0.79,1.14,1.52l-1.2,8.37C789.75,461.5,789.07,462.01,788.33,461.91L788.33,461.91z"/>
			<path class="st18" d="M777.68,460.38c-0.74-0.11-1.25-0.79-1.14-1.52l1.2-8.37c0.11-0.73,0.79-1.24,1.52-1.14l0,0
				c0.73,0.11,1.25,0.79,1.14,1.52l-1.2,8.37C779.1,459.97,778.42,460.48,777.68,460.38L777.68,460.38z"/>
		</g>
	</g>
	<path class="st19" d="M955.83,317.72l0.21,0.61C955.93,318.1,955.86,317.9,955.83,317.72z"/>
	<g>
		<path class="st20" d="M836.91,133.98l13.85,7.86c-2.71,6.64-5.9,12.45-6.74,19.84c-0.8,7.03-1.1,14.15,0.01,21.01
			c-3.07-4.66-5.7-9.81-7.49-15.77C833.98,158.42,833.19,142.18,836.91,133.98z"/>
		<path class="st11" d="M910.94,180.31c-0.1,2.15,0.82,7.61,0.71,10.51c-0.26,7.15-1.13,18.59-4.49,22.75
			c-13.04,16.16-28.06,21.56-38.18,19.96c-13.4-2.11-20.22-15.16-22.21-18.71c-2.09-3.73-2.83-9.84-3.51-18.14
			c-1.75-21.35-0.1-54.47,1.18-64.31l9.03-4.67c8.25-2.52,13.9-4.17,22.57-3.27c13.43,1.39,30.47,4.5,34.12,19.66
			C911.97,151.68,911.31,172.53,910.94,180.31z"/>
		<g>
			<path class="st11" d="M836.27,170.8c4.66,0.31,6.9,7.31,7.59,10.91l0.36,14.67c-8.11,9.48-13.34-9.28-14.06-15.06
				C829.64,177.23,830.57,170.42,836.27,170.8z"/>
			<path class="st12" d="M840.08,180.95c-4.11,1.47-2.68,7.63,0.54,9.07c0.23-0.21-4.39,0.48-5.33-2.78
				c-0.97-3.34-0.13-6.35,2.06-8.73c-1.06-1.98-3.79-3.34-4.65-0.9C834.23,169.95,840.28,175.18,840.08,180.95z"/>
		</g>
		<g>
			<path class="st12" d="M885.29,180.02c0.57,0.35,1.26-1.83,1.82-1.56c4.16,2.01,7.94,1.89,10.66,1.28c2.67-0.6,4.2,0.82,4.2,0.82
				c-1.83-2.18-2.81-6.08-4.48-6.82c-0.98-0.43-2.15-0.64-3.79-0.64c-2.98,0-4.73,0.54-6.52,2.32
				C886.62,175.98,885.92,179.17,885.29,180.02z"/>
			<path class="st18" d="M885.29,180.02c0.57,0.35,1.15,0.66,1.7,0.93c4.16,2.01,7.94,1.88,10.66,1.28c2.67-0.6,4.32-1.67,4.32-1.67
				c-1.83-2.18-2.92-3.59-4.6-4.33c-0.98-0.43-2.15-0.64-3.78-0.64c-2.98,0-4.73,0.54-6.52,2.32
				C886.5,178.47,885.92,179.17,885.29,180.02z"/>
			<path class="st21" d="M886.93,179.73c0,0.41,0.02,0.82,0.07,1.22c4.16,2.01,7.94,1.88,10.66,1.28c0.18-0.79,0.27-1.63,0.27-2.5
				c0-1.26-0.2-2.44-0.55-3.51c-0.98-0.43-2.15-0.64-3.78-0.64c-2.98,0-4.73,0.54-6.52,2.32
				C886.98,178.48,886.93,179.1,886.93,179.73z"/>
			<path class="st18" d="M889.58,179.19c0,0.76,0.31,1.38,0.7,1.38c0.39,0,0.7-0.62,0.7-1.38c0-0.76-0.31-1.38-0.7-1.38
				C889.89,177.8,889.58,178.42,889.58,179.19z"/>
		</g>
		<g>
			<g>
				<path class="st12" d="M845.56,180.54c0.56,0.31,1.1-1.91,1.65-1.68c4.07,1.71,7.66,1.33,10.21,0.53
					c2.51-0.78,4.04,0.52,4.04,0.52c-1.86-2.05-3-5.87-4.63-6.49c-0.95-0.36-2.08-0.49-3.64-0.38c-2.84,0.21-4.47,0.87-6.07,2.77
					C846.6,176.42,846.11,179.64,845.56,180.54z"/>
				<path class="st18" d="M845.56,180.54c0.56,0.31,1.13,0.58,1.67,0.81c4.07,1.71,7.66,1.33,10.21,0.53
					c2.51-0.78,4.02-1.97,4.02-1.97c-1.86-2.05-2.98-3.38-4.61-4c-0.95-0.36-2.08-0.49-3.64-0.38c-2.83,0.21-4.47,0.87-6.07,2.77
					C846.62,178.91,846.11,179.64,845.56,180.54z"/>
				<path class="st21" d="M847.1,180.13c0.02,0.41,0.07,0.82,0.13,1.22c4.07,1.71,7.66,1.33,10.21,0.53
					c0.13-0.8,0.17-1.64,0.12-2.51c-0.07-1.25-0.32-2.42-0.71-3.46c-0.95-0.36-2.08-0.49-3.64-0.38c-2.83,0.21-4.47,0.87-6.07,2.77
					C847.08,178.89,847.07,179.5,847.1,180.13z"/>
				<path class="st18" d="M849.68,179.25c0.04,0.76,0.37,1.36,0.74,1.33c0.37-0.03,0.63-0.67,0.59-1.43
					c-0.04-0.76-0.37-1.36-0.74-1.33C849.9,177.85,849.64,178.49,849.68,179.25z"/>
			</g>
			<path class="st21" d="M853.79,168.61c2.44,0.48,5.14,0.58,7.67,1.17c3.41,0.79,1.35,5.11,1.35,5.11c-0.56,0.53-8-0.24-10.15-0.35
				c-2.97-0.15-7.77-1.89-10.43-0.42C845.58,168.89,847.44,167.36,853.79,168.61z"/>
		</g>
		<path class="st21" d="M892.5,167.99c-2.71,0.44-5.71,0.49-8.52,1.03c-3.79,0.73-1.52,5.09-1.52,5.09
			c0.62,0.54,8.89-0.09,11.27-0.16c3.3-0.1,8.63-1.75,11.58-0.22C901.61,168.42,899.55,166.86,892.5,167.99z"/>
		<path class="st12" d="M884.91,207.65c0,0-0.09,0.04-0.25,0.11c-0.16,0.08-0.4,0.19-0.69,0.34c-0.29,0.16-0.66,0.32-1.07,0.51
			c-0.2,0.1-0.41,0.2-0.64,0.31c-0.23,0.1-0.47,0.2-0.73,0.31c-0.5,0.23-1.05,0.44-1.63,0.66c-0.29,0.12-0.59,0.22-0.9,0.32
			c-0.31,0.1-0.61,0.22-0.94,0.32c-0.32,0.09-0.65,0.19-0.98,0.29c-0.16,0.05-0.33,0.1-0.5,0.13c-0.17,0.04-0.34,0.08-0.51,0.12
			c-0.34,0.09-0.68,0.17-1.03,0.23c-0.35,0.06-0.69,0.14-1.04,0.19c-0.7,0.09-1.39,0.19-2.08,0.22c-0.69,0.07-1.37,0.03-2.03,0.05
			c-0.65-0.06-1.3-0.04-1.9-0.15c-0.31-0.04-0.6-0.07-0.89-0.11c-0.29-0.06-0.56-0.11-0.82-0.16c-0.54-0.08-1.02-0.22-1.45-0.33
			c-0.22-0.05-0.43-0.1-0.62-0.15c-0.19-0.06-0.36-0.12-0.51-0.17c-0.31-0.11-0.56-0.17-0.74-0.23c-0.17-0.05-0.27-0.08-0.27-0.08
			s0.07,0.06,0.2,0.19c0.13,0.12,0.33,0.3,0.59,0.51c0.13,0.11,0.28,0.23,0.43,0.36c0.17,0.12,0.35,0.23,0.55,0.36
			c0.2,0.13,0.42,0.26,0.64,0.4c0.22,0.15,0.49,0.24,0.75,0.38c0.27,0.12,0.55,0.25,0.84,0.38c0.3,0.11,0.61,0.2,0.93,0.31
			c0.64,0.23,1.35,0.33,2.08,0.48c0.37,0.05,0.74,0.07,1.12,0.11c0.19,0.01,0.38,0.04,0.58,0.04c0.19,0,0.39,0,0.58-0.01
			c0.2,0,0.39-0.01,0.59-0.01l0.3-0.01l0.29-0.03c0.39-0.04,0.78-0.09,1.18-0.13c0.77-0.16,1.55-0.28,2.29-0.53
			c0.75-0.2,1.45-0.5,2.12-0.78c0.33-0.15,0.65-0.32,0.97-0.48c0.31-0.16,0.62-0.32,0.9-0.5c0.28-0.18,0.56-0.35,0.82-0.52
			c0.26-0.17,0.5-0.36,0.73-0.54c0.23-0.18,0.45-0.35,0.65-0.51c0.2-0.18,0.38-0.35,0.56-0.51c0.35-0.32,0.63-0.61,0.84-0.87
			c0.22-0.25,0.38-0.46,0.5-0.59C884.85,207.73,884.91,207.65,884.91,207.65z"/>
		<path class="st12" d="M867.11,184.01c-0.7,6.06-1.08,12.66,1.47,15.95c4.22,0.13,9.11-0.06,9.11-0.06
			c-3.59,2.67-11,4.82-13.77,1.08C863.98,200.99,864.99,188.75,867.11,184.01z"/>
		<g>
			<path class="st18" d="M877.09,184.01c0-5.54,6.34-10.04,14.12-10.04c7.79,0,14.13,4.51,14.13,10.04
				c0,5.54-6.34,10.04-14.13,10.04C883.43,194.05,877.09,189.55,877.09,184.01z M878.87,184.01c0,4.51,5.54,8.17,12.35,8.17
				c6.81,0,12.35-3.67,12.35-8.17c0-4.51-5.54-8.17-12.35-8.17C884.41,175.84,878.87,179.5,878.87,184.01z"/>
			<path class="st18" d="M839.03,183.76c0-5.54,6.18-10.04,13.77-10.04s13.77,4.51,13.77,10.04c0,5.54-6.18,10.04-13.77,10.04
				S839.03,189.3,839.03,183.76z M840.8,183.76c0,4.51,5.38,8.17,12,8.17c6.62,0,12-3.67,12-8.17c0-4.51-5.38-8.17-12-8.17
				C846.19,175.59,840.8,179.25,840.8,183.76z"/>
			<path class="st18" d="M877.26,182.94l1.43-1.11c-1.33-1.91-3.23-3.09-5.49-3.4c-2.83-0.39-6.11,0.65-8.55,2.73l1.11,1.46
				c2.08-1.76,4.84-2.66,7.21-2.33C874.77,180.54,876.21,181.43,877.26,182.94z"/>
		</g>
		<g>
			<path class="st21" d="M842.77,144.46c10.11,6.74,43.42,7.51,50.15,4.49c10.85-4.87,17.78,5.73,18.34,11.6
				c0.41,4.3-4.28,31.95,3.37,28.82c0,0,13.85-24.7,14.6-49.41c0.2-6.56-3.45-12.03-9.25-16.45
				c-14.31-10.89-41.68-15.37-56.62-13.87c-9.88,0.99-24.82,5.81-30.03,16.01c-0.02,0.04-0.04,0.08-0.05,0.12
				C830.23,132.03,838.17,141.39,842.77,144.46z"/>
			<path class="st20" d="M842.77,144.46c10.11,6.74,43.42,7.51,50.15,4.49c10.85-4.87,17.78,5.73,18.34,11.6
				c0.41,4.3-4.28,31.95,3.37,28.82c0,0,13.85-24.7,14.6-49.41c0.2-6.56-3.45-12.03-9.25-16.45c-0.03,0.39-0.07,0.77-0.11,1.17
				c-0.75,7.06-5.32,13.38-12.41,14.97c-2.26,0.51-3.42-0.38-5.54-0.7c-2.82-0.42-6.24,0.02-9.05,0.31
				c-5.91,0.6-11.61,2.43-17.59,2.93c-14.67,1.21-31.99-5.24-42-16.43C830.23,132.03,838.17,141.39,842.77,144.46z"/>
		</g>
		<g>
			<path class="st11" d="M922.44,175.34c-5.7-0.58-8.74,6.73-10.27,10.46l-4.22,15.43c8,11.76,17.9-7.35,19.88-13.4
				C929.23,183.54,929.4,176.05,922.44,175.34z"/>
			<path class="st12" d="M915.9,185.49c4.69,2.38,1.79,8.71-2.38,9.63c-0.23-0.27,5.22,1.37,6.98-1.93
				c1.81-3.39,1.36-6.78-0.83-9.76c1.66-1.92,5.22-2.84,5.79-0.05C925.06,174.83,916.76,179.26,915.9,185.49z"/>
		</g>
	</g>
	<path class="st2" d="M903.12,303.99v0.35l0.01,0.37l0.02,0.74c0.01,0.5,0.02,1,0.03,1.49c0.02,1,0.04,2,0.07,3
		c0.05,0.98,0.09,1.97,0.14,2.95c0.05,0.98,0.09,1.97,0.15,2.96c0.07,0.99,0.15,1.98,0.22,2.97c0.6,7.86,1.66,15.81,3.18,23.64
		c0.02,0.07,0.03,0.14,0.04,0.21c1.55,7.9,3.57,15.7,5.97,23.21c0.3,0.94,0.6,1.87,0.91,2.81c0.3,0.93,0.64,1.85,0.96,2.77
		c0.33,0.92,0.65,1.84,0.97,2.75c0.34,0.91,0.69,1.81,1.03,2.71c0.34,0.9,0.68,1.8,1.03,2.68c0.36,0.89,0.72,1.77,1.08,2.65
		c0.18,0.44,0.36,0.88,0.54,1.31l0.27,0.66l0.07,0.16l0.06,0.15l0.03,0.08l0.14,0.31c0.18,0.42,0.36,0.83,0.55,1.25l0.27,0.62
		l0.31,0.67c0.82,1.81,1.63,3.49,2.48,5.15c0.42,0.83,0.85,1.66,1.29,2.47c0.22,0.41,0.43,0.81,0.65,1.22
		c0.22,0.4,0.45,0.8,0.67,1.19c1.78,3.18,3.64,6.2,5.54,9.07c3.8,5.74,7.74,10.88,11.59,15.41c1.92,2.26,3.83,4.38,5.67,6.36
		c1.86,1.96,3.65,3.79,5.37,5.46c3.45,3.35,6.59,6.11,9.24,8.32c2.64,2.2,4.79,3.85,6.26,4.96c1.49,1.09,2.28,1.68,2.28,1.68
		l14.3,10.84l-8.91-18.12c0,0-3.17-2.7-3.87-3.33c-1.06-0.94-2.31-2.09-3.72-3.43c-2.34-2.23-5.12-5.03-8.14-8.37
		c-1.51-1.68-3.08-3.49-4.69-5.44c-1.6-1.95-3.25-4.05-4.9-6.27c-3.31-4.45-6.64-9.45-9.77-14.93c-1.56-2.74-3.08-5.6-4.5-8.57
		c-0.18-0.37-0.36-0.74-0.53-1.12c-0.17-0.37-0.34-0.75-0.52-1.13c-0.35-0.76-0.68-1.52-1.01-2.29c-0.67-1.53-1.3-3.13-1.88-4.64
		l-0.22-0.57l-0.23-0.64c-0.16-0.43-0.31-0.85-0.46-1.28l-0.12-0.32l-0.02-0.06l-0.01-0.02c0,0,0,0,0,0l-0.05-0.16l-0.21-0.63
		c-0.14-0.42-0.28-0.83-0.42-1.25c-0.28-0.84-0.57-1.68-0.85-2.53c-0.27-0.85-0.53-1.7-0.79-2.56c-0.27-0.86-0.53-1.71-0.79-2.58
		c-0.24-0.86-0.49-1.74-0.73-2.6c-0.24-0.87-0.5-1.74-0.72-2.62c-0.22-0.88-0.45-1.76-0.67-2.65c-1.76-7.07-3.15-14.34-4.1-21.66
		c-0.94-7.31-1.44-14.67-1.52-21.91c-0.01-0.9-0.02-1.8-0.03-2.71c0-0.9,0.02-1.8,0.03-2.7c0.02-0.89,0.03-1.79,0.05-2.68
		c0.04-0.87,0.08-1.74,0.11-2.6c0.02-0.43,0.03-0.86,0.05-1.29l0.03-0.64l0.02-0.32l0.02-0.35c0.06-0.92,0.12-1.84,0.18-2.76
		c0.03-0.46,0.06-0.92,0.09-1.37l0.05-0.69l0.01-0.08v0.04l0.01-0.15l0.03-0.31c0.07-0.82,0.15-1.64,0.24-2.46
		c0.72-6.58,1.97-13.04,3.48-19.03c1.52-5.99,3.3-11.54,5.22-16.46c1.92-4.92,3.97-9.2,5.97-12.73c2.01-3.53,3.97-6.3,5.65-8.33
		c0.1-0.12,0.19-0.24,0.29-0.35c-10.88-1.67-21.25-2.77-25.81-3.22c-0.14,0.27-0.28,0.55-0.42,0.83c-0.77,1.56-1.52,3.19-2.25,4.88
		c-1.5,3.48-2.93,7.26-4.23,11.27c-1.93,5.97-3.61,12.47-4.94,19.42c-1.32,6.95-2.32,14.32-2.72,22.16
		c-0.04,0.98-0.09,1.97-0.11,2.97l-0.02,0.86v0.69c0,0.46,0,0.91,0,1.37C903.13,302.15,903.13,303.07,903.12,303.99z"/>
	<g>
		<g>
			<path class="st11" d="M962.65,377.3c-3.84,1.07-40.56-25.75-44.63-26.19c-2.41-0.26-8.28-1.85-13.21-4.33
				c-5.98-2.99-10.59-7.27-6.04-12.04c-5.34-3.52-5.07-10.96,0.35-12.4c-5.38-4.43-3.71-7.39,1.65-10.64
				c-7.56-10.04,1.71-8.84,9.74-7.49c3.45,0.58,6.67,1.19,8.23,0.94c6.16-0.96,0.81-3.63,0.99-10.99c0.11-4.75,2.01-8.42,6.95-7.06
				c2.41,4.93,3.14,12.08,10.37,21.32c3.58,4.58,11.53,31.69,11.53,31.69C942.95,342.98,968.72,375.61,962.65,377.3z"/>
			<path class="st12" d="M904.81,346.79c-5.98-2.99-10.59-7.27-6.04-12.04c-5.34-3.52-5.07-10.96,0.35-12.4
				c-5.38-4.43-3.71-7.39,1.65-10.64c-7.56-10.04,1.71-8.84,9.74-7.49c1.11,2.4-1.21,5.6-4.12,7.18c4.25,2.96,3.69,9.86-1.46,11.79
				c2.87,2.21,2.79,6.79-0.69,8.4C908.69,335.46,908.09,342.69,904.81,346.79z"/>
		</g>
		<path class="st14" d="M940.2,369.44c1.45,1.26,18.6,37.01,58.41,50.69c2.65,0.91,5,1.7,7.15,2.32c4.7,1.34,8.41,1.88,12.01,1.1
			c0,0,0.01,0,0.01,0c0.25-0.07,0.5-0.15,0.76-0.23c12.32-3.9,16.49-15.58,15.96-30.46c-0.91-1.04-1.94-2.16-3.12-3.35
			c-14.81-15.02-75.54-40.39-82.75-52.08L940.2,369.44z"/>
	</g>
	<g>
		<path class="st11" d="M784.29,497.44l24.86,1.01c2.54,8.12,12.1,13.18,14.93,16.44c6.96,8,13.18,9.87,17.14,12.86
			c0.35,4.62-3.22,5.67-7.46,4.96c-6.57-1.11-8.01-6.31-9.92-1.01c-0.48,1.34-0.5,4.31-0.58,7.47c-0.18,7.36-0.71,15.79-8.31,7.36
			c-3.8,4.2-6.72,5.17-9.73-0.36c-2.21,4.57-8.85,3.52-11.06-1.82c-5.01,3.21-8.02-1.61-9.65-7.42c-1.35-4.8-1.75-10.28-1.57-12.46
			C783.08,522.73,788.16,506.92,784.29,497.44z"/>
		<path class="st12" d="M784.51,536.92c1.62,5.81,4.63,10.64,9.65,7.42c2.21,5.34,8.85,6.38,11.06,1.82c3,5.53,5.92,4.56,9.73,0.36
			c7.61,8.43,8.13,0,8.31-7.36c-1.94-1.39-5.18,0.11-7.07,2.42c-1.9-4.28-8.12-4.97-10.71-0.73c-1.46-2.92-5.55-3.64-7.57-0.83
			C795.22,535.42,788.71,534.71,784.51,536.92z"/>
	</g>
	<path class="st14" d="M784.42,504.04l21.18-2.87l6-0.82c-2.17-7.2-0.22-27.8,1.83-49.64c1.93-20.41,3.95-41.91,2.8-54.57
		c-0.16-1.84-0.4-3.5-0.71-4.93c-0.37-1.74-0.76-3.29-1.15-4.69c-0.02-0.01-0.03-0.02-0.05-0.03c-1.91-1.08-3.81-2.01-5.7-2.76
		c-10.2-4.05-20.05-3.04-28.34,6.4c-0.2,0.23-0.4,0.46-0.59,0.69c0,0,0,0,0,0.01c-2.57,3.42-4.09,7.53-5.46,13.01
		c-0.63,2.51-1.21,5.3-1.86,8.46c-0.85,4.17-2.43-2.57-2.84,1.49C765.32,455.97,784.17,502.17,784.42,504.04z"/>
	<path class="st14" d="M792.62,287.44c3.37-10.28,4.42-17.27,9.73-26.2c5.45-9.16,8.72-9.69,18.27-13.62l1.12,126.31
		c0.51,9.51-5.81,23.64-10.09,32.03c-3.66,7.16-8.61,15.92-15.3,20.77c-7.2,5.23-21.61,7.48-25.7-1.71
		C763.85,409.73,788.25,300.75,792.62,287.44z"/>
	<g>
		<path class="st22" d="M979.76,353.31c-5.98-10.11-15.02-33.21-16.47-43.42c10.18,24.72,20.09,38.59,23.95,51.65
			c-16.47-6.74-28.33-8.5-36.68-24.7C961.39,341.91,970.78,350.32,979.76,353.31z"/>
	</g>
	<path class="st22" d="M804.6,487.3c-0.01,3.28,0.67,9.05,1.01,13.86l6-0.82c-2.17-7.2,2.72-156.02,7.62-184.57
		c-12.39,28.55-14.64,131.27-14.64,146.83C804.6,470.83,804.62,479.07,804.6,487.3z"/>
</g>
<g>
	<g>
		<g>
			<g>
				<path class="st23" d="M415.08,920.17c0.03,0,0.05,0.01,0.08,0.02c8.66,1.7,32.95,1.96,36.76-1.23
					c-0.13-3.64-1.36-5.83-2.06-7.79c-0.1-0.29-0.22-0.57-0.34-0.84c-1.19-2.59-3.27-4.26-5.81-6.68
					c-3.92-3.72-8.93-9.2-13.45-22.56l-0.35-0.05l-11.69-1.76c-0.01,0.01-0.01,0.02-0.01,0.03c-0.01,0.03-0.02,0.07-0.04,0.1
					c-1.27,3.52-4.34,16.37-5.84,26.57C411.38,912.43,413.67,919.89,415.08,920.17z"/>
			</g>
			<path class="st11" d="M443.53,811.7c-3.69,18.77-11.79,53.99-11.79,73.54c0,6.58-2.06,15.49-10.66,4.18
				c-5.6-7.37-6.27-54.31-6.39-65.23L443.53,811.7z"/>
		</g>
		<path class="st11" d="M418.17,879.2v0.22c0,5.41,0.15,10.74,1.06,15.99c0.5,2.91,1.02,7.53,3.02,9.66
			c2.13,2.28,5.02-0.61,7.26-1.73c2.63-1.32,5.68-1.85,8.67-1.63c2.04,0.15,3.78,1.05,5.53,1.94c-3.92-3.72-8.93-9.2-13.45-22.56
			l-0.35-0.05c-1.74,1.31-4.27,1.85-6.05,1.98c-3.06,0.22-4.64-0.83-5.65-3.7C418.2,879.28,418.18,879.24,418.17,879.2z"/>
	</g>
	<g>
		<g>
			<g>
				<path class="st23" d="M491.77,919.32c0.03,0,0.05,0.01,0.08,0.02c8.65,1.74,32.94,2.14,36.77-1.03
					c-0.12-3.64-1.33-5.84-2.02-7.8c-0.1-0.29-0.22-0.57-0.34-0.84c-1.18-2.6-3.25-4.28-5.78-6.71c-3.9-3.74-8.89-9.25-13.36-22.63
					l-0.35-0.05l-11.68-1.82c-0.01,0.01-0.01,0.02-0.01,0.03c-0.01,0.04-0.02,0.07-0.04,0.1c-1.29,3.52-4.41,16.35-5.95,26.54
					C488.11,911.57,490.37,919.04,491.77,919.32z"/>
			</g>
			<path class="st11" d="M519.32,812.26c-3.76,18.75-10.58,54.55-10.67,74.1c-0.03,6.58-2.2,13.6-10.75,2.25
				c-5.57-7.4-6.05-54.34-6.12-65.26L519.32,812.26z"/>
		</g>
		<path class="st11" d="M495.03,878.38l0,0.22c-0.02,5.41,0.11,10.74,0.99,15.99c0.49,2.91,0.99,7.53,2.98,9.68
			c2.12,2.29,5.02-0.59,7.27-1.7c2.64-1.3,5.69-1.82,8.68-1.58c2.04,0.16,3.77,1.07,5.52,1.97c-3.9-3.74-8.89-9.25-13.36-22.63
			l-0.35-0.05c-1.75,1.3-4.28,1.83-6.06,1.94c-3.06,0.2-4.64-0.85-5.64-3.73C495.06,878.45,495.05,878.41,495.03,878.38z"/>
	</g>
	<g>
		<path class="st3" d="M425.22,340.07c-3.74-25.83,7.96-94.93,11.6-110.79c7.49-32.56,15.35-26.95,26.2-29.94l38.55,24.7
			c6.03,8.74,5.96,22.13,5.99,32.19c0.03,11.95,10.68,1.97,9.73,13.85c-0.79,9.92,2.16,74.28,6.36,76.35
			C519.14,349.57,427.68,357.09,425.22,340.07z"/>
		<g>
			<path class="st11" d="M414.36,353.54c3.62-12.26,0.48-27.93,12.96-29.75c4.82-0.7,13.51-2.1,20.44-4.49
				c-0.03-0.1-0.07-0.2-0.11-0.3c0.26,0.04,0.51,0.06,0.75,0.07c1.64-0.59,3.16-1.24,4.49-1.95c5.86-6.2,5.77-25.29,6.37-30.68
				c0.09-0.8,0.18-1.66,0.27-2.57c0.65-7.08,0.96-17.14-2.15-22.45l34.72,16.56l4.23,2.01c-0.19,0.49-0.38,0.99-0.55,1.52
				c-1.68,5.04-2.48,11.67-2.26,17.22c0,0.06,0,0.11,0.01,0.17c0,0.05,0,0.09,0.01,0.15c0,0.01,0,0.02,0,0.03
				c0.11,1.04,0.53,3.24,1.21,5.96c0.54,2.15,1.25,4.63,2.1,7.1l0.15-0.01c4.38,8.33,16.82,9.94,26.46,15.51
				c4.56,2.63,1.8,17,2.42,22.9C528.14,372.26,428.95,367.52,414.36,353.54z"/>
			<path class="st12" d="M493.56,299.09c0.11,1.04,0.53,3.24,1.21,5.96c-8.17,14.81-31.35,2.3-36.24-17.01
				c-0.46-1.8,1.78-2.4,1.01-4.17c0.65-7.08,0.96-17.14-2.15-22.45l34.72,16.56l3.68,3.53c-1.68,5.04-2.48,11.67-2.26,17.22
				c0,0.06,0,0.11,0.01,0.17c0,0.05,0,0.1,0.01,0.15C493.56,299.07,493.56,299.08,493.56,299.09z"/>
		</g>
		<g>
			<path class="st24" d="M362.13,394.02c2.95,0.18,5.31,10.48,4.49,21.9c-3.47,48.29,10.52,99.07,28.7,100.08
				c12.55,0.69,24.11-2.82,36.19-3.99c4.84-0.47,9.57-0.59,14.27-0.76c6.42-0.23,12.75-0.56,19.17-1.98
				c0.95-0.21,2.42-0.62,3.37-0.88l-17.97-180.79c-7.77-5.68-8.09-8.59-18.61-8.8c-8.83-0.18-22.13,1.58-30.87,3.93
				c-5.85,1.58-11.42,3.39-16.22,5.8c-7.18,3.6-12.67,8.51-14.9,15.91C365.88,357.27,361.56,373.25,362.13,394.02z"/>
			<path class="st25" d="M362.13,394.02c2.95,0.18,5.31,10.48,4.49,21.9c-3.47,48.29,10.52,99.07,28.7,100.08
				c12.55,0.69,24.11-2.82,36.19-3.99c4.84-0.47,9.57-0.59,14.27-0.76c2.39-5.29,2.9-10.5,0.21-14.93
				c-2.81-4.62-10.09-7.24-14.24-10.47c-4.85-3.76-9.24-8.22-13.6-12.52c-18.96-18.66-19.5-46.5-19.5-72.05
				c0-18.17-0.14-37.89-4.49-55.43c-1.76-7.09-3.6-13.39-9.51-17.33c-7.18,3.6-12.67,8.51-14.9,15.91
				C365.88,357.27,361.56,373.25,362.13,394.02z"/>
		</g>
		<path class="st11" d="M523.97,578.51c0.62-5.45-1.17-11.82-2.52-17.14c-8.47,1.45-2.12-14.25-0.38-17.47
			c-0.24-1.03-0.62-0.15-1.19-0.55l9.54-3.93c3.41,6.95,7.67,16.54,8.3,24.14c0.42,5.05-3.77,21.59-7.18,24.76
			c-3.08-1.26-8.05,0.7-10.83-1.01c-1.96-1.2-4.27-7.03-4.8-9.04C517.85,577.09,521.08,577.64,523.97,578.51z"/>
		<path class="st11" d="M503.49,326.48c8.19-7.9,28.12-3.64,29.21,35.84c0.14,4.88-3.57,84.91-3.62,90.97
			c-0.26,30.54,2.65,86.76,3.71,97.37c-5.59-0.69-7.95,0.76-13.56,0.27C515.44,532.31,485.3,344.01,503.49,326.48z"/>
		<g>
			<path class="st26" d="M409.12,363.27c0.53,2.26,2.19,21.16,3.51,45.11c1.08,19.57,1.92,42.51,1.73,62.49
				c-0.11,11.4-0.56,21.84-1.5,30.13l99.56-1.5c-3.43-4.56-4.14-14.41-3.5-31.78c0.25-6.71,0.69-14.53,1.26-23.61
				c0.98-15.66,3.93-25.72,7.27-34.16c0.63-1.6,1.28-3.14,1.93-4.65c2.89-6.73,5.84-12.85,7.9-20.75c0.64-2.46,1.2-5.09,1.64-7.97
				c2.97-19.31,3.72-47.01-2.27-50l-26.2-10.48c-0.89,10.44-11.58,19.17-18.71,18.71c-14.22-0.92-20.96-10.48-28.82-17.71
				c-1.98-1.82-21.29,1.24-43.67,11.68C406.73,329.97,401.64,336.33,409.12,363.27z"/>
			<g>
				<path class="st26" d="M505.99,411.32c4.01-0.15,7.98-0.46,11.45-1.36c5.33-1.38,9.51-4.15,10.98-9.82
					c0.69-2.67,0.78-5.99,0.1-10.11c-0.2-1.22-0.65-3.12-1.24-5.47c-2.5-9.88-7.6-27.8-8.13-37.14l-12.02,58.4L505.99,411.32z"/>
				<path class="st26" d="M520.35,341.58l-1.2,5.84C518.98,344.36,519.29,342.22,520.35,341.58z"/>
			</g>
			<path class="st27" d="M410.37,470.71c1.33,0.03,2.66,0.09,3.99,0.17c10.17,0.62,20.35,2.65,30.57,3.36
				c19.46,1.34,35.18,0.06,54.22-4.29c3.49-0.8,6.82-1.37,9.77-2.21c0.25-6.71,0.69-14.53,1.26-23.61
				c0.98-15.66,3.93-25.72,7.27-34.16c5.33-1.38,9.51-4.15,10.98-9.82c-1.52,1.49-3.13,3-4.62,3.66c-1.44,0.64-2.92,1.13-4.43,1.51
				c-3.93,0.97-81.08,15.82-103.82-12.21c-1.17,5.06-2.14,10.15-2.92,15.29C409.55,428.56,409.29,449.36,410.37,470.71z"/>
		</g>
		<path class="st25" d="M518.53,316.03c8.91,5.1,12.61,10.85,13.23,14.57c2.73,16.36,1.07,34.2-0.71,49.64
			c-1.72,14.97-5.18,29.91-9.74,42.06c-2.32,6.17-6.57,13.12-10.64,18.07c0.26-8.16,1.34-14.3,1.5-22.46
			c4.58-12.13,7.71-28.95,8.84-38.83c1.69-14.72,6.24-32.48,0.78-46.67c-4.86-12.62-21.36-13.43-23.46-17.74
			c-0.12-0.24-1.22-3.19-1.27-3.46C505.7,309.18,512.57,312.61,518.53,316.03z"/>
		<path class="st28" d="M368.86,825.18c50.9,11.98,130.09,15.68,186.51-0.23c1.25-24.69-5.32-88.14-13.89-155.68
			c-11.95-94.16-27.78-196.27-31.71-212.37c0,0-16.09,7.35-34.81,7.86c-15.03,0.41-40.43-1.18-53.33-2.08
			c-4.93-0.34-8.02-0.59-8.02-0.59C376.18,557.9,367.77,771.77,368.86,825.18z"/>
		<path class="st25" d="M408.52,465.65c6.89,0,13.13-2.22,18.63-6.65c8.28-6.67,14.48-18.15,18.45-34.12
			c3.05-12.28,4.66-27.12,4.54-41.78c-0.13-15.12-0.65-32.55-5.36-48.02c-1.07-3.52-4.58-12.14-14.05-16.01
			c-8.48-3.47-18.83-1.92-30.76,4.58l4.84,8.87c9.01-4.91,16.65-6.33,22.09-4.1c5.61,2.29,7.7,7.92,8.21,9.59
			c4.31,14.19,4.8,30.75,4.92,45.17c0.2,24.04-4.71,56.26-19.22,67.94c-5.1,4.11-11.01,5.33-18.08,3.72l-2.23,9.86
			C403.26,465.34,405.93,465.65,408.52,465.65z"/>
		<path class="st29" d="M368.86,825.18c50.9,11.98,130.09,15.68,186.51-0.23c1.25-24.69-5.32-88.14-13.89-155.68
			c-2.59,2.37-5.28,4.63-8.26,6.19c-9.2,4.82-20.87,8.52-31.29,8.96c-30.29,1.27-50.51-29.16-59.12-54.65
			c-12.81-37.91-18.22-77.86-21.69-117.54c-1.27-14.5-1.44-29.7-0.19-44.15c0.1-1.12,0.36-3.08,0.71-5.42
			c-4.93-0.34-8.02-0.59-8.02-0.59C376.18,557.9,367.77,771.77,368.86,825.18z"/>
		<g>
			<g>
				<path class="st11" d="M525.03,266.87c0.09-4.9-2.81-9.43-6.23-8.05c-10.04,4.02-7.95,16.87-7.95,16.87
					c0.23,4.93,5.58,5.33,8,3.78C521.9,277.49,524.94,271.59,525.03,266.87z"/>
				<path class="st12" d="M516.96,263.56c-1.18,2.15-3.34,7.03-3.34,7.03c-0.58,3.86,5.14,3.62,5.66-0.98
					c0.23-2.06-1.24-3.99,0.63-5.21c1.29-0.84,2.46,0.59,2.99,2.18C523.44,262.19,518.82,260.18,516.96,263.56z"/>
			</g>
			<path class="st11" d="M503.07,211.64c-23.45-21.4-50.64-1.32-55.05,26.43c0,0-3.31,25.82,1.83,38.21
				c3.89,9.38,21.52,30.21,37.49,29.36c7.59-0.4,22.04-16.36,25.88-27.22C519.7,260.12,521.7,228.64,503.07,211.64z"/>
			<g>
				<path class="st3" d="M495.35,249.84c0.4-2.38,4.88-3.2,8.72-3.09c3.61,0.1,6.06,1.96,6.59,3.99c-1.76-1.66-5.05-1.88-7.28-1.5
					C501.06,249.63,494.91,251.75,495.35,249.84z"/>
				<path class="st3" d="M476.15,251.47c0.5-2.28-3.14-3.99-6.55-4.72c-3.21-0.68-6.02,0.51-7.21,2.27
					c2.14-1.16,5.11-0.66,6.93,0.17C471.21,250.05,475.85,253.32,476.15,251.47z"/>
				<g>
					<path class="st30" d="M490.21,286.86c-2.75,1.29-5.98,1.32-8.87-0.06c-0.85,2.39,2.07,4.29,5.24,4.18
						C490.56,290.84,491.38,286.93,490.21,286.86z"/>
					<path class="st31" d="M489.04,286.19c-1.22-0.14-1.33,0.85-2.67,0.88c-1.5-0.08-1.61-1.39-3.15-0.64
						c-1.71,0.77-3.7-0.32-3.66-0.33c3.07,3.34,9.22,4.31,13.15,0.06C490.79,287.03,489.8,286.22,489.04,286.19z"/>
				</g>
				<path class="st12" d="M482.83,276.72c0,0,0.16,0.02,0.42,0.08c0.13,0.03,0.29,0.05,0.46,0.09c0.17,0.04,0.37,0.07,0.58,0.11
					c0.21,0.05,0.44,0.08,0.67,0.13c0.23,0.04,0.48,0.09,0.73,0.13c0.25,0.03,0.51,0.08,0.77,0.11c0.26,0.04,0.52,0.05,0.78,0.08
					c0.13,0.01,0.26,0.01,0.38,0.02c0.13,0.01,0.25,0.01,0.38,0c0.12-0.01,0.25,0,0.37-0.01c0.12-0.01,0.23-0.03,0.35-0.04
					c0.12-0.01,0.22-0.05,0.33-0.06c0.11-0.02,0.22-0.04,0.31-0.08c0.1-0.03,0.2-0.06,0.3-0.09c0.1-0.04,0.18-0.09,0.27-0.13
					c0.18-0.07,0.33-0.18,0.47-0.27c0.07-0.05,0.14-0.09,0.2-0.13c0.06-0.05,0.11-0.09,0.16-0.14c0.19-0.17,0.32-0.27,0.32-0.27
					s-0.01,0.15-0.08,0.42c-0.02,0.07-0.04,0.14-0.06,0.23c-0.03,0.08-0.07,0.16-0.12,0.24c-0.05,0.09-0.1,0.18-0.15,0.28
					c-0.05,0.1-0.14,0.18-0.22,0.28c-0.08,0.09-0.17,0.2-0.27,0.29c-0.11,0.09-0.22,0.17-0.34,0.26c-0.12,0.09-0.25,0.16-0.39,0.22
					c-0.14,0.06-0.28,0.14-0.43,0.19c-0.3,0.09-0.61,0.18-0.93,0.21c-0.32,0.06-0.64,0.03-0.96,0.03c-0.32-0.04-0.63-0.06-0.93-0.14
					c-0.3-0.06-0.59-0.16-0.86-0.26c-0.27-0.1-0.52-0.22-0.76-0.34c-0.23-0.13-0.45-0.25-0.63-0.39c-0.19-0.13-0.36-0.26-0.5-0.39
					c-0.14-0.12-0.26-0.23-0.35-0.33C482.92,276.85,482.83,276.72,482.83,276.72z"/>
				<g>
					<path class="st12" d="M508.26,257.96c-1.22-0.28-2.99-0.57-5.68-0.22c-2.3,0.29-4.59,1.24-5.97,2.26
						c-0.49,0.36-0.96,0.85-1.28,1.23c-0.56,0.66-0.54,1.82-0.56,1.98c0.86,0.05,1.56-0.83,2.48-0.83c1.77,0,3.81-0.24,5.15-0.57
						c1.69-0.41,2.92-0.85,4.29-1.43c1.09-0.45,2.53-0.1,4.45-0.7C510.91,258.75,509.47,258.26,508.26,257.96z"/>
					<g>
						<path class="st18" d="M511.14,259.66c-1.92,0.6-3.14,1.17-4.23,1.62c-1.37,0.58-2.6,1.02-4.29,1.43
							c-1.35,0.33-3.39,0.58-5.15,0.57c-0.91,0-1.83-0.03-2.7-0.08c0.01-0.01,0.22-0.4,0.78-1.06c0.32-0.38,0.79-0.87,1.28-1.23
							c1.38-1.02,3.67-1.97,5.97-2.26c2.69-0.36,4.46-0.06,5.68,0.22C509.69,259.18,510.43,259.48,511.14,259.66z"/>
						<path class="st32" d="M506.91,261.28c-1.37,0.58-2.6,1.02-4.29,1.43c-1.35,0.33-3.39,0.58-5.15,0.57
							c-0.4-0.21-1.13-2.02-0.63-2.38c1.38-1.02,3.67-1.97,5.97-2.26c2.69-0.36,4.46-0.06,5.68,0.22
							C508.49,259.35,507.24,260.96,506.91,261.28z"/>
					</g>
					<path class="st18" d="M505.47,260.37c-0.01,0.4-0.31,0.79-0.69,0.87c-0.38,0.07-0.67-0.19-0.67-0.6
						c0.01-0.4,0.32-0.79,0.69-0.87C505.18,259.7,505.48,259.97,505.47,260.37z"/>
				</g>
				<g>
					<path class="st12" d="M472.51,260.39c-1.01-0.73-2.52-1.7-5.14-2.42c-2.23-0.64-4.71-0.66-6.38-0.26
						c-0.59,0.14-1.22,0.41-1.66,0.63c-0.78,0.39-1.21,1.46-1.29,1.6c0.77,0.39,1.76-0.15,2.61,0.2c1.63,0.7,3.6,1.27,4.97,1.49
						c1.71,0.28,3.02,0.36,4.51,0.36c1.18,0.02,2.36,0.9,4.37,1.1C474.64,262.15,473.51,261.14,472.51,260.39z"/>
					<g>
						<path class="st18" d="M474.5,263.08c-2.01-0.2-3.35-0.15-4.53-0.17c-1.49,0-2.8-0.08-4.51-0.36
							c-1.37-0.22-3.34-0.79-4.97-1.49c-0.84-0.35-1.68-0.74-2.45-1.13c0.01-0.01,0.36-0.28,1.13-0.67
							c0.45-0.23,1.07-0.49,1.66-0.63c1.67-0.4,4.15-0.37,6.38,0.26c2.62,0.73,4.13,1.69,5.14,2.42
							C473.36,262.07,473.92,262.64,474.5,263.08z"/>
						<path class="st32" d="M469.97,262.92c-1.49,0-2.8-0.08-4.51-0.36c-1.37-0.22-3.34-0.79-4.97-1.49
							c-0.29-0.35-0.25-2.3,0.35-2.43c1.67-0.4,4.15-0.37,6.38,0.26c2.62,0.73,4.13,1.69,5.14,2.42
							C472.18,261.76,470.4,262.74,469.97,262.92z"/>
					</g>
					<path class="st18" d="M469,261.51c-0.16,0.37-0.6,0.6-0.97,0.53c-0.37-0.08-0.54-0.44-0.38-0.81c0.16-0.37,0.6-0.6,0.97-0.53
						C469,260.78,469.17,261.14,469,261.51z"/>
				</g>
			</g>
			<g>
				<g>
					<path class="st11" d="M437.89,267.52c-0.38-4.88,2.52-9.62,6.33-8.51c11.16,3.27,9.63,16.25,9.63,16.25
						c0.03,4.94-5.77,5.73-8.49,4.37C441.9,277.89,438.26,272.23,437.89,267.52z"/>
					<path class="st12" d="M446.48,263.62c1.41,2.06,4.04,6.78,4.04,6.78c0.85,3.81-5.39,4-6.22-0.56
						c-0.37-2.04,1.12-4.08-0.98-5.15c-1.45-0.74-2.64,0.77-3.13,2.4C439.35,262.73,444.27,260.38,446.48,263.62z"/>
				</g>
			</g>
			<path class="st33" d="M478.34,213.25l7.86-13.47c15.92-3.93,29.72,3.39,36.71,17.9c6.55,13.6-1,38.05-7.49,51.28
				c1.19-9.74,1.55-35.63-6.35-42.65C498.95,217.3,478.74,240.88,478.34,213.25z"/>
			<g>
				<path class="st3" d="M449.54,271.95c2.58-7.86,1.19-13.82,3.66-22.2c2.12-7.18,7.07-14.48,21.04-14.73
					c7.32-0.13,18.44-0.07,24.51-14.99c0.06-0.16,0.13-0.32,0.19-0.48c3.63-9.3,2.51-20.89-9.73-23.95c-6.74-1.68-22.46,0-22.46,0
					c-10.91,0.95-17.76,5.47-22.08,11.73c-2.49,3.61-4.14,7.81-5.25,12.22C435.59,234.95,446.74,256.67,449.54,271.95z"/>
				<path class="st33" d="M449.54,271.95c2.58-7.86,1.19-13.82,3.66-22.2c2.12-7.18,7.07-14.48,21.04-14.73
					c7.32-0.13,18.44-0.07,24.51-14.99l-1.68-5.34c-1.82,3.76-2.35,6.7-6.74,8.22c-4.12,1.43-9.25,0.82-13.55,0.39
					c-4.94-0.5-9.56-0.48-14.13,1.5c-3.84,1.67-5.08,4.7-8.18,7.07c-1.36-3.82,0.85-7.63,1.73-11.14
					c-4.62,2.39-6.54,7.96-7.49,12.65c-3.95-4.23-4.52-12.61-4.79-18.22c-0.14-2.83,0.2-5.37,0.76-7.83
					c-2.49,3.61-4.14,7.81-5.25,12.22C435.59,234.95,446.74,256.67,449.54,271.95z"/>
			</g>
		</g>
		<g>
			<path class="st18" d="M492.48,262.61c0-6.58,5.35-11.93,11.93-11.93s11.93,5.35,11.93,11.93s-5.35,11.93-11.93,11.93
				S492.48,269.19,492.48,262.61z M494.29,262.61c0,5.58,4.54,10.12,10.12,10.12c5.58,0,10.12-4.54,10.12-10.12
				c0-5.58-4.54-10.12-10.12-10.12C498.83,252.49,494.29,257.03,494.29,262.61z"/>
			<path class="st18" d="M458.68,262.43c0-6.58,5.35-11.93,11.93-11.93c6.58,0,11.93,5.35,11.93,11.93
				c0,6.58-5.35,11.93-11.93,11.93C464.03,274.36,458.68,269.01,458.68,262.43z M460.49,262.43c0,5.58,4.54,10.12,10.12,10.12
				c5.58,0,10.12-4.54,10.12-10.12c0-5.58-4.54-10.12-10.12-10.12C465.03,252.3,460.49,256.85,460.49,262.43z"/>
			<path class="st18" d="M482.22,262.74c1.22-1.9,2.72-2.95,4.45-3.13c1.96-0.2,4.18,0.8,6.07,2.73l1.29-1.26
				c-2.32-2.37-5-3.53-7.55-3.27c-2.28,0.23-4.28,1.6-5.79,3.95L482.22,262.74z"/>
		</g>
		<g>
			<g>
				<path class="st11" d="M412.1,598.02c1.76,1.53,5.2,2.16,7.42,2.94c2.19,0.77,4.48,1.85,6.66,2.43c-1.15,2.82-4.8,5.07-7.61,5.97
					c-2,0.63-7.08,3.04-8.17,0.77L412.1,598.02z"/>
				<g>
					<polygon class="st34" points="461.88,528.6 373.95,511.87 373.68,549.26 459.04,540.59 					"/>
					<polygon class="st35" points="376.1,513.73 460.38,528.71 461.05,529.43 455.69,538.52 375.56,519.93 					"/>
					<polygon class="st36" points="449.2,528.6 367.79,513.93 367.65,596.96 454.95,616.15 					"/>
					<path class="st37" d="M449.2,528.6c0.19,0.18,0.39,0.36,0.62,0.52c1.27,0.91,3.1,1.48,5.13,1.48c1.92,0,3.65-0.5,4.9-1.32
						c0.31-0.2,0.58-0.42,0.82-0.65c0.01-0.01,0.01-0.01,0.02-0.02h1.19v83.02c0,1.25-0.78,2.39-2.03,3.21
						c-1.26,0.82-2.99,1.32-4.9,1.32c-3.83,0-6.94-2.02-6.94-4.53V528.6H449.2z"/>
					<path class="st38" d="M449.82,529.12v80.64c0,2.53,2.43,4.58,5.43,4.58c1.5,0,2.85-0.51,3.84-1.34
						c0.98-0.83,1.59-1.98,1.59-3.24v-81.14c-0.24,0.24-0.52,0.45-0.82,0.65c-1.26,0.82-2.99,1.32-4.9,1.32
						C452.91,530.6,451.09,530.03,449.82,529.12z"/>
					<polygon class="st39" points="399.56,529.2 399.56,593.21 383.87,589.55 383.83,588.39 383.83,526.19 					"/>
				</g>
				<path class="st11" d="M388.36,574.09c0.77-2.94,1.4-6.3,1.8-9.27l14.49,5.49c2.05,6.88,11.13,12.57,11.85,20.84
					c0.45,5.11,2.93,10.05,1.03,10.78c-5.02,1.93-4.98-8.74-6.78-10.45c0.31,2.87,2.62,18.3,1.83,19.04
					c-1.64,1.53-4.76,0.94-6.23-0.91c-0.88,0.77-2.26,1.23-3.5,1.17c-1.11-0.05-2.22-1.1-3.17-1.07c-1.31,0.03-2.39,1.02-4.19,0.49
					c-1.2-0.35-2.15-1.27-3.2-1.88c-3.69,1.66-3.61-3.3-4.43-5.72C386.96,599.98,386.61,580.77,388.36,574.09z"/>
				<path class="st11" d="M399.51,508.21c2.78,0.62,7.43,1.14,11.38,0.62c-2.32,23.39-5.69,58.89-4.65,71.84
					c-4.15,0.37-10.87-0.19-17.33-0.31c0-9.87,0.68-49.87,0-76.46C393.57,505.74,394.42,507.08,399.51,508.21z"/>
			</g>
			<path class="st11" d="M407.45,331.51c9.28-6.58,28.35,0.6,23.52,39.81c-0.6,4.85-7.49,35.03-8.44,41.01
				c-4.83,30.16-15.84,135.84-16.38,146.49c-5.42-1.52-11.23-1.71-16.71-3.03C388.48,536.82,386.85,346.13,407.45,331.51z"/>
		</g>
	</g>
</g>
<g>
	<g>
		<path class="st40" d="M738.49,415.26c-16.25,5.56-34.49,5.51-49.19-2.87l23.68-117.47C750.39,314.23,731.45,381.59,738.49,415.26z
			"/>
		<path class="st41" d="M559.77,567.83c-1.19-26.89,1.85-58.5,9.23-96.28c8.19-41.91,20.35-85.35,36.16-129.11l0.33-0.9
			c5.6-15.51,10.89-30.17,18.54-44.58c1.13-2.12,4.59-7.56,8.44-12.49c6.55-8.39,15.25-15.85,15.25-15.85
			c-1.63-2.09-3.99-3.04-6.65-2.68c-2.67,0.36-7.16,2.05-15.38,12.51c-4.61,5.86-8.36,11.87-9.64,14.28
			c-8,15.07-13.41,30.06-19.14,45.93l-0.33,0.9C580.6,383.82,568.29,427.78,560,470.2c-7.39,37.83-10.51,69.73-9.47,97.07
			C553.61,567.42,556.7,567.59,559.77,567.83z"/>
		<g>
			<g>
				<g>
					<path class="st42" d="M750.26,918.93c-5,3.53-40.78,2.8-52.12,0.92c-0.03,0-0.07-0.01-0.1-0.02c-1.85-0.31-3.13-0.66-3.66-1.05
						c-0.04-0.03-0.08-0.06-0.11-0.09c-1.5-1.47-1.08-7.44,0.16-14.58c1.99-11.47,6.1-25.97,7.72-29.64l15.77,2.01
						C727.7,900.91,754.59,903.2,750.26,918.93z"/>
				</g>
				<g>
					<path class="st18" d="M694.27,918.69c0.03,0.03,0.07,0.06,0.11,0.1c0.52,0.38,1.81,0.74,3.65,1.05c0.04,0,0.07,0.01,0.1,0.02
						c11.35,1.88,47.13,2.61,52.12-0.92c0.71-2.56,0.58-4.77-0.16-6.77c-0.05,0.27-0.12,0.55-0.2,0.83
						c-4.99,3.53-40.77,2.8-52.12,0.92c-0.03-0.01-0.06-0.01-0.1-0.02c-1.84-0.31-3.13-0.66-3.65-1.05
						c-0.01-0.01-0.28-0.08-0.66-0.17C693.19,915.68,693.44,917.88,694.27,918.69z"/>
				</g>
				<path class="st5" d="M694.84,831.15l25.65-12.35c-0.69,17.88,0.68,67.81-1.05,71.3c0,0-7.58,2.3-10.86,0.52
					C701.89,886.99,693.72,842.44,694.84,831.15z"/>
				<path class="st42" d="M719.22,869.3c8.27,0.39,11.15,3.75,9.2,10.89c-0.91,3.32-4.03,17.07-1.12,18.01l-16.18,0.49
					C708.16,890.29,702.37,868.5,719.22,869.3z"/>
			</g>
			<g>
				<g>
					<path class="st42" d="M568.02,918.93c5,3.53,40.78,2.8,52.13,0.92c0.03,0,0.07-0.01,0.1-0.02c1.85-0.31,3.13-0.66,3.66-1.05
						c0.04-0.03,0.08-0.06,0.11-0.09c1.5-1.47,1.08-7.44-0.16-14.58c-1.99-11.47-6.1-25.97-7.72-29.64l-15.77,2.01
						C590.58,900.91,563.69,903.2,568.02,918.93z"/>
				</g>
				<g>
					<path class="st18" d="M624.01,918.69c-0.03,0.03-0.07,0.06-0.11,0.1c-0.52,0.38-1.81,0.74-3.65,1.05
						c-0.04,0-0.07,0.01-0.1,0.02c-11.35,1.88-47.13,2.61-52.12-0.92c-0.71-2.56-0.58-4.77,0.16-6.77c0.05,0.27,0.12,0.55,0.2,0.83
						c4.99,3.53,40.77,2.8,52.12,0.92c0.03-0.01,0.06-0.01,0.1-0.02c1.84-0.31,3.13-0.66,3.66-1.05c0.01-0.01,0.28-0.08,0.66-0.17
						C625.09,915.68,624.84,917.88,624.01,918.69z"/>
				</g>
				<path class="st5" d="M623.44,831.15l-25.65-12.35c0.69,17.88-0.68,67.81,1.05,71.3c0,0,7.58,2.3,10.86,0.52
					C616.39,886.99,624.56,842.44,623.44,831.15z"/>
				<path class="st42" d="M599.06,869.3c-8.27,0.39-11.15,3.75-9.2,10.89c0.91,3.32,4.03,17.07,1.12,18.01l16.18,0.49
					C610.12,890.29,615.91,868.5,599.06,869.3z"/>
			</g>
			<path class="st43" d="M590.8,861.9l31.81-0.64c1.05-27.19,3.14-59.79,5.99-98.06c3.66-49.34,10.7-133.37,22.74-184.25
				c0.65-2.74,1.31-5.37,1.98-7.91c0.28-1.04,0.56-2.06,0.84-3.07c0.05-0.17,0.1-0.33,0.14-0.5c0.18-0.61,0.35-1.21,0.52-1.81
				c0.11,0.47,0.22,0.94,0.33,1.42c0.08,0.32,0.15,0.65,0.23,0.98c0.15,0.66,0.31,1.33,0.47,2.02
				c8.58,36.8,25.05,110.23,22.89,187.12c-0.96,34.24,7.15,65.63,12.83,86.27c2.16,7.83,3.97,14.11,4.8,18.41l29.54-0.64
				c-1.04-20.33-3.45-59.41-5.99-104.8c-2.74-49.05-2.39-137.22-7.05-207.78c-0.09-1.29-0.17-2.57-0.26-3.85
				c-1.27-18.29-2.89-35.3-5.01-50.02l-112.3-2.32c-1.45,0.64-1.45,20.29-1.63,51.21c-0.01,1.24-0.02,2.5-0.02,3.77
				c-0.32,51.61-1.31,132.07-9.98,208.25C578.24,803.56,590.67,845.01,590.8,861.9z"/>
			<path class="st44" d="M665.65,562.44l-10.49,4.66c0.08,0.32,0.15,0.65,0.23,0.98c0.15,0.66,0.31,1.33,0.47,2.02
				c8.58,36.8,25.05,110.23,22.89,187.12c-0.96,34.24,7.15,65.63,12.83,86.27c0.04,0.06,0.08,0.12,0.12,0.18
				c-2.18-7.2-2.04-15.13-2.8-22.77c-4.33-43.22-1.36-89.1-1.36-134.02C687.53,647.49,682.36,595.63,665.65,562.44z"/>
			<g>
				<g>
					<path class="st45" d="M652.46,567.7c0.54,0.12,1.11,0.21,1.7,0.28c0.4,0.04,0.81,0.08,1.23,0.1c0.19,0.02,0.39,0.02,0.59,0.03
						c1.11,0.05,2.25,0.06,3.38,0.06c1.97,0.01,3.83,0.02,5.29,0.27l1.67,0.28l0.4-1.4c2.18-7.69,1.6-16.34,1.04-24.72
						c-0.08-1.25-0.16-2.48-0.24-3.69c-0.3-5.05-1.4-10.54-2.45-15.84c-1.06-5.29-2.05-10.29-2.19-14.44l-3.54,0.08
						c0.14,4.36,1.16,9.46,2.24,14.86c1.04,5.21,2.12,10.6,2.41,15.48c0.08,1.22,0.15,2.46,0.24,3.71
						c0.52,7.67,1.04,15.58-0.6,22.53c-1.36-0.11-2.81-0.12-4.24-0.12c-1.12,0-2.24-0.01-3.29-0.06c-1.36-0.07-2.6-0.21-3.51-0.54
						C652.55,565.63,652.51,566.67,652.46,567.7z"/>
					<path class="st45" d="M652.46,567.7c-0.18,3.86-0.54,7.63-1.12,11.25c0.91-3.86,1.85-7.53,2.82-10.97
						c0.4,0.04,0.81,0.08,1.23,0.1c0.15,0.66,0.31,1.33,0.47,2.02c0.04-0.66,0.08-1.32,0.12-1.98c0.05-0.99,0.09-1.99,0.11-2.99
						c0.39-14.91-1.67-30.78-3.84-44.29l-3.5,0.4c2.12,13.25,4.15,28.79,3.82,43.35C652.55,565.63,652.51,566.67,652.46,567.7z"/>
				</g>
				<path class="st45" d="M593.66,547.47c3.41,0.36,6.56,0.54,9.44,0.54c9.04,0,15.46-1.77,19.17-5.3
					c3.55-3.36,5.86-10.13,6.35-18.56c0.45-7.74-0.74-15.01-3.11-18.99l-3.21,1.92c1.95,3.26,2.99,10.04,2.59,16.85
					c-0.43,7.38-2.37,13.38-5.19,16.06c-4.02,3.82-13.12,5.08-26.01,3.7C593.68,544.94,593.67,546.19,593.66,547.47z"/>
				<path class="st45" d="M694.55,525.28c0.49,8.43,2.8,15.19,6.35,18.56c2.64,2.51,6.64,4.13,11.98,4.85
					c-0.09-1.29-0.17-2.58-0.26-3.85c-4.12-0.64-7.22-1.89-9.15-3.72c-2.82-2.68-4.76-8.68-5.19-16.06
					c-0.4-6.82,0.64-13.59,2.59-16.85l-3.21-1.92C695.29,510.26,694.1,517.54,694.55,525.28z"/>
			</g>
			<rect x="690.73" y="851.54" class="st45" width="38.93" height="17.97"/>
			<rect x="587.43" y="850.79" class="st45" width="38.93" height="17.97"/>
			<path class="st46" d="M653.32,571.04c0.28-1.04,0.56-2.06,0.84-3.07c0.05-0.17,0.1-0.33,0.14-0.5l-0.96,0.42
				C653.34,568.95,653.33,570,653.32,571.04z"/>
		</g>
		<g>
			<g>
				<path class="st40" d="M584.34,351.09c2.14,12,3.75,24.96,4.93,38.18c0.67,7.44,1.19,14.97,1.61,22.45
					c0.33,5.9,0.58,11.77,0.77,17.55c0.03,0.96,0.06,1.92,0.09,2.87c0.01,0.39,0.02,0.79,0.03,1.18c0.06,1.89,0.1,3.77,0.14,5.64
					c0.02,0.64,0.03,1.28,0.04,1.91c0.02,1.2,0.04,2.39,0.06,3.57c0.01,0.75,0.02,1.5,0.03,2.25c0.01,0.76,0.02,1.52,0.03,2.28
					c0.01,0.91,0.02,1.82,0.03,2.72c0.01,0.66,0.01,1.31,0.01,1.96c0,0.52,0.01,1.03,0.01,1.54c0.02,2.49,0.02,4.93,0.01,7.33
					c0,0.87-0.01,1.73-0.01,2.59c0,0.12,0,0.25,0,0.37c0,0.48,0,0.95-0.01,1.42c-0.01,0.61-0.01,1.23-0.02,1.83
					c-0.03,2.9-0.07,5.73-0.12,8.46c-0.02,0.98-0.04,1.95-0.06,2.91c0,0.18-0.01,0.36-0.01,0.53c-0.02,1.02-0.05,2.02-0.08,3.02
					c-0.03,0.94-0.05,1.87-0.08,2.78c-0.02,0.52-0.03,1.03-0.05,1.54c-0.15,4.63-0.33,8.87-0.53,12.65
					c-0.01,0.26-0.03,0.52-0.04,0.78c-0.11,2.07-0.22,3.98-0.34,5.74c-0.05,0.66-0.09,1.29-0.13,1.91
					c-0.08,1.03-0.15,1.98-0.23,2.88c-0.01,0.1-0.02,0.21-0.03,0.31c-0.01,0.1-0.02,0.21-0.03,0.31c-0.03,0.37-0.07,0.73-0.1,1.07
					c-0.02,0.27-0.05,0.52-0.08,0.77c-0.03,0.3-0.06,0.6-0.09,0.87c-0.06,0.56-0.12,1.07-0.18,1.53c-0.02,0.18-0.04,0.36-0.07,0.52
					c-0.01,0.06-0.01,0.12-0.03,0.18c-0.01,0.09-0.03,0.18-0.04,0.26c-0.03,0.2-0.06,0.38-0.09,0.55c0.16,0.07,0.32,0.13,0.47,0.19
					c0.12,0.05,0.24,0.09,0.36,0.14c0.28,0.11,0.55,0.21,0.83,0.3c0.12,0.04,0.25,0.08,0.37,0.12c0.1,0.04,0.2,0.07,0.3,0.09
					c0.13,0.04,0.26,0.08,0.39,0.11c0.18,0.05,0.36,0.1,0.53,0.14c0.18,0.05,0.36,0.09,0.53,0.13c0.15,0.03,0.29,0.07,0.44,0.1
					c0.23,0.04,0.46,0.09,0.7,0.13c0.13,0.02,0.26,0.05,0.39,0.06c0.05,0.01,0.1,0.02,0.15,0.03c0.14,0.02,0.28,0.04,0.42,0.06
					c0.59,0.08,1.18,0.14,1.77,0.18c0.2,0.01,0.4,0.03,0.6,0.04c0.35,0.02,0.7,0.03,1.04,0.04c0.13,0,0.26,0.01,0.38,0.01
					c8.41,0.11,16.65-2.53,23.22,1.23c52.4,29.94,75.86,13.11,88.33,5.99c0.02-0.09,0.05-0.19,0.07-0.28
					c0.05-0.2,0.09-0.4,0.13-0.62c0.31-1.52,0.58-3.52,0.8-5.88c0.02-0.25,0.05-0.5,0.07-0.76c0.05-0.59,0.1-1.2,0.15-1.83
					c0.02-0.23,0.03-0.46,0.05-0.69c0.04-0.67,0.09-1.36,0.13-2.07c0.02-0.4,0.05-0.8,0.07-1.21c0.03-0.61,0.07-1.24,0.09-1.88
					c0.02-0.34,0.03-0.68,0.05-1.03c0.03-0.83,0.07-1.69,0.1-2.56c0.02-0.35,0.03-0.7,0.04-1.05c0-0.04,0-0.07,0-0.11
					c0.01-0.42,0.03-0.85,0.04-1.28c0.01-0.47,0.03-0.94,0.04-1.41c0.01-0.24,0.01-0.48,0.02-0.71c0.01-0.45,0.02-0.89,0.03-1.34
					c0.01-0.37,0.01-0.74,0.02-1.12c0-0.24,0.01-0.49,0.02-0.74c0.01-0.38,0.01-0.77,0.02-1.16v-0.04c0-0.29,0-0.58,0.01-0.86
					c0-0.15,0-0.29,0.01-0.44c0.01-0.82,0.02-1.64,0.03-2.47c0-0.25,0.01-0.51,0.01-0.77c0.01-1.02,0.02-2.05,0.02-3.09
					c0-0.26,0-0.52,0-0.78c0.02-6.66-0.05-13.53-0.17-20.01c-0.07-4.09-0.18-8.02-0.29-11.67c-0.15-4.64-0.32-8.81-0.5-12.19
					c-0.2-3.68-0.35-7.19-0.46-10.53c-0.18-5.47-0.25-10.51-0.23-15.16c0.04-9.1,0.45-16.72,1.08-23.26
					c2.88-29.98,10.55-37.14,10.55-59.64c0-22.91,2.9-37.36-19.46-51.65c-4.39-2.81-9.87-6.81-14.74-9.56
					c-0.57-0.32-1.12-0.63-1.67-0.91l-40.55-14.6c0.48,1.55-0.68,3.19-2.92,4.87c-9.44,7.05-37.93,14.64-43.06,17.71
					c-7.44,4.46-12,8-15.26,16.34c-1.03,2.63-2.01,5.48-2.74,8.99C580.84,318.13,580.56,329.91,584.34,351.09z"/>
				<g>
					<g>
						<path class="st11" d="M712.45,224.27c0.17-2.95,1-6.76,1-6.76c1.34-6.53,8.73-11.47,12.28-7.83
							c3.56,3.65,3.5,10.23,2.19,14.22c-1.3,3.94-5.62,10.87-10.92,9.56C712.48,232.35,712.27,227.43,712.45,224.27z"/>
						<path class="st12" d="M715.79,218.17c0.08-0.72,1.68-3.08,2.07-3.7c2.99-4.75,8.05-3.13,8.3,2.14
							c-1.81-4.61-5.03-1.05-6.98,1.38c1.66,0.03,2.38,3.27,2.02,4.54c-0.63,2.24-2.5,2.69-4.44,3l0.02-0.18
							c0.34-1.67,2.33-3.8,1.04-5.97C717.12,218.19,715.63,219.5,715.79,218.17z"/>
					</g>
					<path class="st42" d="M717.95,163.02c6.29,4.63,8.99,13.04,8.65,20.91c-0.3,7.19-4.43,27.54-9.85,31.97
						c-0.41-5.95-1.04-25.53-3.83-30.96c-1.87-3.64-5.43-8.79-8.91-11.1L717.95,163.02z"/>
					<g>
						<path class="st11" d="M648.43,220.37c1.38,6.91,1.51,14.26,1.04,21.65c-0.61,9.75-2.62,17.6-5.9,24.88
							c2.71,5.39,7.42,12.38,17.51,19.42c5.83,4.07,14.14,7.43,21.32,6.44c8.47-1.17,9.91-7.96,6.35-15.15
							c-1.93-3.89-2.05-3.8-1.86-8.18c0.02-0.49,0.04-1,0.07-1.54c0.19-4.03,0.51-9.25,0.65-11.85L648.5,218.7l-0.56-0.53
							C648.12,218.9,648.28,219.63,648.43,220.37z"/>
						<path class="st12" d="M648.43,220.37c1.38,6.91,2.11,6.55,1.64,13.94c4.73,36.84,34.28,36.39,36.89,33.59
							c0.19-4.03,0.51-9.25,0.65-11.85L648.5,218.7C648.48,219.25,648.45,219.81,648.43,220.37z"/>
					</g>
					<path class="st11" d="M719.58,194.71c1.41-23.4-19.79-49.51-46.6-41.66c-5.68,1.66-14.51,7.5-17.93,12.86
						c0,0-4.32,13.73-6.36,37.77c-1.11,13.01-0.17,15.32,0.87,31.54c1.25,19.46,30.95,33.08,43.42,30.44
						c12.98-2.74,19.21-18.99,22.59-26.49C720.31,228.61,718.9,206,719.58,194.71z"/>
					<g>
						<path class="st12" d="M677.41,204.73c-1.01-1.87-2.52-3.3-4.31-3.08c-2.19,0.28-4.52,1.78-6.02,3.32
							c-0.66,0.67-1.69,2.12-2.42,3.36c-1.48,2.52-1,4.08-1,4.08c0.52,0.13,0.91-1.9,1.52-1.79c3.32,0.63,7.84,0.93,11.4,0.35
							c0.73-0.12,1.42-0.28,2.05-0.48C678.91,208.93,678.42,206.61,677.41,204.73z"/>
						<g>
							<path class="st18" d="M678.81,212.81c-0.63,0.16-1.32,0.29-2.05,0.38c-3.55,0.47-8.08,0.23-11.4-0.28
								c-0.61-0.09-1.18-0.19-1.7-0.3c0,0,0.51-0.69,1.18-1.54c0.77-0.98,1.76-2.15,2.42-2.69c1.5-1.23,3.83-2.43,6.02-2.66
								c1.78-0.18,3.3,0.96,4.31,2.46C678.6,209.7,679.09,211.56,678.81,212.81z"/>
							<path class="st42" d="M677.61,208.87c0,1.58-0.31,3.05-0.85,4.33c-3.55,0.47-8.08,0.23-11.4-0.28
								c-0.22-0.57-0.4-1.19-0.52-1.83c0.77-0.98,1.76-2.15,2.42-2.69c1.5-1.23,3.83-2.43,6.02-2.66c1.78-0.18,3.3,0.96,4.31,2.46
								C677.6,208.42,677.61,208.64,677.61,208.87z"/>
							<path class="st18" d="M669.92,210.7c0,0.53-0.38,0.96-0.84,0.96c-0.47,0-0.84-0.43-0.84-0.96c0-0.53,0.38-0.96,0.84-0.96
								C669.54,209.73,669.92,210.16,669.92,210.7z"/>
						</g>
					</g>
					<g>
						<path class="st12" d="M713.46,204.19c-0.92-1.87-2.32-3.3-3.96-3.08c-2.01,0.28-4.15,1.78-5.53,3.32
							c-0.61,0.67-1.55,2.12-2.22,3.36c-1.36,2.52-0.91,4.08-0.91,4.08c0.47,0.13,0.83-1.9,1.4-1.79c3.05,0.63,7.21,0.93,10.47,0.35
							c0.67-0.12,1.3-0.28,1.88-0.48C714.84,208.39,714.39,206.07,713.46,204.19z"/>
						<g>
							<path class="st18" d="M714.75,212.27c-0.58,0.16-1.21,0.29-1.88,0.38c-3.27,0.47-7.42,0.23-10.47-0.28
								c-0.56-0.09-1.09-0.19-1.56-0.3c0,0,0.47-0.69,1.08-1.54c0.71-0.98,1.62-2.15,2.22-2.69c1.38-1.23,3.52-2.43,5.53-2.66
								c1.64-0.18,3.03,0.96,3.96,2.46C714.55,209.16,715.01,211.02,714.75,212.27z"/>
							<path class="st42" d="M713.65,208.33c0,1.58-0.28,3.05-0.78,4.33c-3.27,0.47-7.42,0.23-10.47-0.28
								c-0.21-0.57-0.37-1.19-0.48-1.83c0.71-0.98,1.62-2.15,2.22-2.69c1.38-1.23,3.52-2.43,5.53-2.66
								c1.64-0.18,3.03,0.96,3.96,2.46C713.64,207.88,713.65,208.1,713.65,208.33z"/>
							<path class="st18" d="M706.58,210.15c0,0.53-0.35,0.96-0.77,0.96c-0.43,0-0.77-0.43-0.77-0.96c0-0.53,0.35-0.96,0.77-0.96
								C706.23,209.19,706.58,209.62,706.58,210.15z"/>
						</g>
					</g>
					<path class="st12" d="M694.9,217.48c-0.66,1.26,0.14,11.34,0.78,13.28c-1.56,1.2-5.39,1.09-7.03,2.23
						c2.79,0.24,5.89,0.53,9.67-1.09L694.9,217.48z"/>
					<g>
						<path class="st42" d="M659.52,202.79c4.83-1.53,10.4-0.88,15.54-0.28c2.2,0.26,5.91,1.68,6.52-1.03
							C684.35,189.12,655.82,194.01,659.52,202.79z"/>
					</g>
					<g>
						<path class="st42" d="M719.7,202.95c-4.22-1.45-9.08-0.87-13.56-0.32c-1.92,0.23-5.15,1.54-5.69-0.99
							C697.98,190.05,722.9,194.75,719.7,202.95z"/>
					</g>
					<g>
						<path class="st12" d="M674.69,235.37c5.53,8.17,12.02,11.05,15.62,11.05c2.24,0,4.22-0.47,5.93-1.34
							c2.72-1.39,4.76-3.82,6.09-7.07c0,0-1.95,0.56-5.26,0.86C692.03,239.32,683.84,239.14,674.69,235.37z"/>
						<path class="st18" d="M674.69,235.37c5.53,8.17,12.02,11.05,15.62,11.05c2.24,0,4.22-0.47,5.93-1.34
							c0.06-2.12,0.39-4.17,0.83-6.22C692.03,239.32,683.84,239.14,674.69,235.37z"/>
					</g>
					<g>
						<path class="st47" d="M640.7,170.78c-5.9,17.9,4.51,38.82,6.54,49.81c2.14-3.89,4.95-6.28,5.83-10.74
							c1.33-6.81-0.09-13.78,4.81-16.52c6.94-3.87,5.43-4.68,7.93-11.87c1.04-3.02,7.03-8.04,9.61-6.74
							c5.36,2.71,11.9,4.33,18.22,5.29c12.37,1.87,23.84,1.19,23.84,1.19c3.45-1.05,21.15-6.19,20.76-29.59
							c-3.32,5.07-7.73,7.12-13.65,6.69c2.4-5.21,6.49-15.95,3.99-21.28c-1.67,13-20.73,7.82-28.41,6.75
							c-42.92-5.96-50.95,7.61-53.3,13.58c-0.39,0.98-0.62,1.76-0.83,2.21c-3.74-2.7-7.73-2.78-11.9-1.82
							c1.99,1.68,3.94,3.42,5.81,5.25c-2.35,0.79-5.16,0.77-6.75,3.34C636.59,165.28,641.93,167.05,640.7,170.78z"/>
						<path class="st48" d="M640.7,170.78c-5.9,17.9,4.51,38.82,6.54,49.81c2.14-3.89,4.95-6.28,5.83-10.74
							c1.33-6.81-0.09-13.78,4.81-16.52c6.94-3.87,5.43-4.68,7.93-11.87c1.04-3.02,7.03-8.04,9.61-6.74
							c5.36,2.71,11.9,4.33,18.22,5.29c-4.44-3.25-9.35-8.61-12.68-9.95c-6.99-2.81-13.06-2.27-19.79-0.14
							c0.62-2.8,2.94-5.11,3.86-7.61c-4.12,0.2-7.61,3.56-10.7,6.09c-0.17-2.7,0.03-5.28-0.88-7.65c-1.21,0.95-2.28,2.5-3.45,3.4
							c-0.69-2.76-1.77-4.95-3.13-6.78c-0.39,0.98-0.62,1.76-0.83,2.21c-3.74-2.7-7.73-2.78-11.9-1.82
							c1.99,1.68,3.94,3.42,5.81,5.25c-2.35,0.79-5.16,0.77-6.75,3.34C636.59,165.28,641.93,167.05,640.7,170.78z"/>
					</g>
					<g>
						<path class="st11" d="M651.75,221.73c-0.18-3.15-1.07-7.21-1.07-7.21c-1.43-6.97-9.32-12.25-13.11-8.36
							c-3.81,3.9-3.74,10.92-2.34,15.19c1.38,4.21,6,11.61,11.66,10.22C651.72,230.36,651.94,225.11,651.75,221.73z"/>
						<path class="st12" d="M648.18,215.21c-0.09-0.76-1.8-3.29-2.21-3.95c-3.19-5.07-8.59-3.34-8.86,2.29
							c1.94-4.93,5.37-1.12,7.45,1.48c-1.77,0.03-2.54,3.49-2.15,4.85c0.68,2.4,2.67,2.87,4.74,3.2l-0.02-0.2
							c-0.36-1.78-2.48-4.06-1.12-6.38C646.76,215.23,648.35,216.63,648.18,215.21z"/>
					</g>
				</g>
			</g>
			<path class="st49" d="M591.64,429.27c0.03,0.96,0.06,1.92,0.09,2.87c0.01,0.39,0.02,0.79,0.03,1.18c0.06,1.89,0.1,3.77,0.14,5.64
				c0.02,0.64,0.03,1.28,0.04,1.91c0.02,1.2,0.04,2.39,0.06,3.57c0.01,0.75,0.02,1.5,0.03,2.25c0.01,0.76,0.02,1.52,0.03,2.28
				c0.01,0.91,0.02,1.82,0.03,2.72c5.59-0.48,11.26-0.46,17.22,0.7c14.26,2.77,28.45,6.96,42.48,9.9c20.8,4.35,41.65,4.2,60.67-2.73
				c-0.15-4.64-0.32-8.81-0.5-12.19c-0.2-3.68-0.35-7.19-0.46-10.53c-19.21,7.19-38.66,7.4-59.72,2.99
				c-14.03-2.93-28.23-7.13-42.48-9.9C603.19,428.74,597.38,428.76,591.64,429.27z"/>
			<path class="st49" d="M589.26,389.27c0.67,7.44,1.19,14.97,1.61,22.45c3.71,0.03,7.49,0.31,11.38,0.99
				c15.92,2.77,31.77,6.96,47.44,9.9c21.01,3.93,42.06,4.18,61.61-0.94c0.04-9.1,0.45-16.72,1.08-23.26
				c-20.16,5.94-40.62,5.87-62.69,1.74c-15.67-2.93-31.52-7.13-47.44-9.9C597.8,389.48,593.49,389.22,589.26,389.27z"/>
			<g class="st50">
				<path class="st40" d="M584.34,351.09c2.14,12,3.75,24.96,4.93,38.18c0.67,7.44,1.19,14.97,1.61,22.45
					c0.33,5.9,0.58,11.77,0.77,17.55c0.03,0.96,0.06,1.92,0.09,2.87c0.01,0.39,0.02,0.79,0.03,1.18c0.06,1.89,0.1,3.77,0.14,5.64
					c0.02,0.64,0.03,1.28,0.04,1.91c0.02,1.2,0.04,2.39,0.06,3.57c0.01,0.75,0.02,1.5,0.03,2.25c0.01,0.76,0.02,1.52,0.03,2.28
					c0.01,0.91,0.02,1.82,0.03,2.72c0.01,0.66,0.01,1.31,0.01,1.96c0,0.52,0.01,1.03,0.01,1.54c0.02,2.49,0.02,4.93,0.01,7.33
					c0,0.87-0.01,1.73-0.01,2.59c0,0.12,0,0.25,0,0.37c0,0.48,0,0.95-0.01,1.42c-0.01,0.61-0.01,1.23-0.02,1.83
					c-0.03,2.9-0.07,5.73-0.12,8.46c-0.02,0.98-0.04,1.95-0.06,2.91c0,0.18-0.01,0.36-0.01,0.53c-0.02,1.02-0.05,2.02-0.08,3.02
					c-0.03,0.94-0.05,1.87-0.08,2.78c-0.02,0.52-0.03,1.03-0.05,1.54c-0.15,4.63-0.33,8.87-0.53,12.65
					c-0.01,0.26-0.03,0.52-0.04,0.78c-0.11,2.07-0.22,3.98-0.34,5.74c-0.05,0.66-0.09,1.29-0.13,1.91
					c-0.08,1.03-0.15,1.98-0.23,2.88c-0.01,0.1-0.02,0.21-0.03,0.31c-0.01,0.1-0.02,0.21-0.03,0.31c-0.03,0.37-0.07,0.73-0.1,1.07
					c-0.02,0.27-0.05,0.52-0.08,0.77c-0.03,0.3-0.06,0.6-0.09,0.87c-0.06,0.56-0.12,1.07-0.18,1.53c-0.02,0.18-0.04,0.36-0.07,0.52
					c-0.01,0.06-0.01,0.12-0.03,0.18c-0.01,0.09-0.03,0.18-0.04,0.26c-0.03,0.2-0.06,0.38-0.09,0.55c0.16,0.07,0.32,0.13,0.47,0.19
					c0.12,0.05,0.24,0.09,0.36,0.14c0.28,0.11,0.55,0.21,0.83,0.3c0.12,0.04,0.25,0.08,0.37,0.12c0.1,0.04,0.2,0.07,0.3,0.09
					c0.13,0.04,0.26,0.08,0.39,0.11c0.18,0.05,0.36,0.1,0.53,0.14c0.18,0.05,0.36,0.09,0.53,0.13c0.15,0.03,0.29,0.07,0.44,0.1
					c0.23,0.04,0.46,0.09,0.7,0.13c0.13,0.02,0.26,0.05,0.39,0.06c0.05,0.01,0.1,0.02,0.15,0.03c0.14,0.02,0.28,0.04,0.42,0.06
					c0.59,0.08,1.18,0.14,1.77,0.18c0.2,0.01,0.4,0.03,0.6,0.04c0.35,0.02,0.7,0.03,1.04,0.04c0.13,0,0.26,0.01,0.38,0.01
					c8.41,0.11,16.65-2.53,23.22,1.23c52.4,29.94,75.86,13.11,88.33,5.99c0.02-0.09,0.05-0.19,0.07-0.28
					c0.05-0.2,0.09-0.4,0.13-0.62c0.31-1.52,0.58-3.52,0.8-5.88c0.02-0.25,0.05-0.5,0.07-0.76c0.05-0.59,0.1-1.2,0.15-1.83
					c0.02-0.23,0.03-0.46,0.05-0.69c0.04-0.67,0.09-1.36,0.13-2.07c0.02-0.4,0.05-0.8,0.07-1.21c0.03-0.61,0.07-1.24,0.09-1.88
					c0.02-0.34,0.03-0.68,0.05-1.03c0.03-0.83,0.07-1.69,0.1-2.56c0.02-0.35,0.03-0.7,0.04-1.05c0-0.04,0-0.07,0-0.11
					c0.01-0.42,0.03-0.85,0.04-1.28c0.01-0.47,0.03-0.94,0.04-1.41c0.01-0.24,0.01-0.48,0.02-0.71c0.01-0.45,0.02-0.89,0.03-1.34
					c0.01-0.37,0.01-0.74,0.02-1.12c0-0.24,0.01-0.49,0.02-0.74c0.01-0.38,0.01-0.77,0.02-1.16v-0.04c0-0.29,0-0.58,0.01-0.86
					c0-0.15,0-0.29,0.01-0.44c0.01-0.82,0.02-1.64,0.03-2.47c0-0.25,0.01-0.51,0.01-0.77c0.01-1.02,0.02-2.05,0.02-3.09
					c0-0.26,0-0.52,0-0.78c0.02-6.66-0.05-13.53-0.17-20.01c-1.3,1.06-2.63,2.06-4.04,2.99c-17.04,11.4-49.26,17.33-66.28,3.44
					c-14.53-11.86-22.62-31.29-27.34-49.37c-10.1-38.74,11.24-61.82-2.23-102.24c-4.69-14.08-26.29,0.54-30.36-16.08
					C580.84,318.13,580.56,329.91,584.34,351.09z"/>
			</g>
		</g>
		<g>
			<g>
				<g>
					<path class="st11" d="M590.05,513.24l12.11-4.86c7.47,14.04,30.17,27.26,16.42,34.32c-6.29,3.22-15.01,5.06-18.72,1.72
						C593.42,538.62,590.49,521.65,590.05,513.24z"/>
					<path class="st11" d="M548.31,418.86c9.25-1.63,23.74,8.02,27.57,15.2c13.07,24.51,15.52,57.58,30.47,80.74l-13.25,9.47
						c-19.95-22.84-41.9-51.26-51.21-80.14C539.35,436.26,537.04,420.85,548.31,418.86z"/>
				</g>
				<path class="st11" d="M548.95,373.24c2.8-11.13,6.57-18.41,10.88-29.05c3.14-7.74,6.16-21.06,12.95-26.31l26.69,38.92
					c-4.77,5.39-28.21,81.01-35.07,86.1c-7.65,5.67-16.17,11.25-21.2,4.14C533.13,432.8,545.03,388.83,548.95,373.24z"/>
			</g>
			<path class="st11" d="M617.23,519.98c3.44,2.3,7.47,6.15,12.08,7.03c6.73,1.28,3.02,6.81-2.63,6.81
				c-3.95,0-11.86-5.44-12.95-5.05l-11.2-13.32C606.19,517.02,613.58,517.54,617.23,519.98z"/>
		</g>
		<g>
			<g>
				<path class="st41" d="M609.47,564.1c4-6.84,4.7-14.01,1.97-20.2c-2.83-6.43-9.12-11.11-17.23-12.85
					c-17.43-3.73-20.44,4.25-24.26,14.37c-0.75,1.99-1.53,4.05-2.48,6.25l5.49,2.39c1.01-2.33,1.85-4.56,2.59-6.52
					c3.65-9.67,5.02-13.28,17.4-10.63c6.22,1.33,10.96,4.76,13.01,9.41c1.93,4.38,1.34,9.63-1.66,14.76L609.47,564.1z"/>
				<g>
					<path class="st41" d="M517.24,644.6c25.94,16.46,57.69,29.5,88.14,27.51l24.7-110.04c-4.47-2.23-11.82-4.62-20.42-6.83
						c-2.68-0.69-5.48-1.36-8.34-2.01c-9.77-2.2-20.36-4.09-29.82-5.29c-3.19-0.4-6.27-0.45-9.09-0.95
						c-4.93-0.88-11.67,0.62-14.66,3.62C533.42,570.71,514.92,626.83,517.24,644.6z"/>
					<path class="st51" d="M612.34,575.31c6.48-12.36,18.98-22.39,24.35-2.99c4.19,15.15-6.43,86.09-14.82,100.31
						c0,0-22.44,4.26-26.95-2.25C585.1,656.24,605.34,588.65,612.34,575.31z"/>
					<path class="st51" d="M576.78,614.6l7.82,0.78c1.38-13.85,4.15-24.34,9.56-36.21c4-8.78,8.71-14.99,14.17-22.17
						c0.44-0.58,0.88-1.16,1.33-1.75c-2.68-0.69-5.48-1.36-8.34-2.01c-5.22,6.89-10.14,13.54-14.31,22.67
						C581.29,588.46,578.23,600.02,576.78,614.6z"/>
					<path class="st51" d="M541.6,603.37l7.82,0.78c1.38-13.84,4.15-24.34,9.56-36.21c3.59-7.88,7.75-13.69,12.52-19.99
						c-3.19-0.4-6.24-0.73-9.09-0.95c-3.83,5.26-7.42,10.76-10.59,17.68C546.11,577.23,543.05,588.8,541.6,603.37z"/>
				</g>
			</g>
			<path class="st52" d="M616.59,585.64c-1.15,3.97,1.13,8.12,5.1,9.28l0.72,0.21c3.97,1.15,8.12-1.13,9.28-5.1l2.93-10.06
				c1.15-3.97-1.13-8.12-5.1-9.28l-0.72-0.21c-3.97-1.15-8.12,1.13-9.28,5.1L616.59,585.64z"/>
			<path class="st41" d="M619.89,579.91c14.71-23.19,27.8-52.54,39.86-89.37c13.38-40.85,23.75-84.93,30.82-130.99l0.15-0.95
				c2.51-16.33,4.87-31.75,4.87-48.07c0-2.4-0.55-8.83-1.72-14.99c-2-10.48-6.51-21.15-6.51-21.15c2.6-1.08,5.33-0.82,7.69,0.75
				c2.36,1.57,5.78,5.17,8.32,18.26c1.43,7.34,1.96,14.4,1.96,17.13c0,17.06-2.42,32.84-4.99,49.55l-0.15,0.95
				c-7.15,46.59-17.64,91.18-31.19,132.54c-12.08,36.88-25.23,66.51-40.03,90.18C625.96,582.44,622.94,581.14,619.89,579.91z"/>
		</g>
		<path class="st40" d="M575.77,310.56c7.07-12.08,26.89-40.07,39.78-17.58c4.87,8.49,4.23,23.21,2.38,32.34
			c-2.9,14.34-6.49,30.21-13.34,43.53l-11.53,29.51c-12.65-2.63-35.78-9.64-47.61-15.53C552.34,357.94,563.27,331.94,575.77,310.56z
			"/>
	</g>
	<path class="st11" d="M767.33,448.99c-2.73,7.83-13.32,8.41-17.97,7.59c-6.13-1.08-12.66-5.79-17.22-13.8L767.33,448.99z"/>
	<g>
		<path class="st53" d="M623,445.81c0,2.66,2.16,4.81,4.82,4.81h185.72c2.66,0,4.81-2.16,4.81-4.81l0,0c0-2.66-2.16-4.82-4.81-4.82
			H627.81C625.15,441,623,443.15,623,445.81L623,445.81z"/>
		<g>
			<g>
				<path class="st53" d="M711.16,354.6l-16.68,85.44c-0.62,3.17,1.45,5.73,4.61,5.73h114.68c3.17,0,6.28-2.57,6.96-5.73
					l18.27-85.44c0.68-3.17-1.38-5.73-4.59-5.73H718.1C714.88,348.86,711.78,351.43,711.16,354.6z"/>
				<path class="st54" d="M716.97,354.6l-16.76,85.44c-0.62,3.17,1.44,5.73,4.61,5.73h108.95c3.17,0,6.28-2.57,6.96-5.73
					l18.27-85.44c0.68-3.17-1.38-5.73-4.59-5.73H723.91C720.7,348.86,717.59,351.43,716.97,354.6z"/>
			</g>
			<path class="st53" d="M764.36,384.42c-0.84,4.12,2.75,7.45,8.02,7.45c5.27,0,10.23-3.34,11.08-7.45
				c0.85-4.12-2.74-7.45-8.02-7.45C770.16,376.96,765.2,380.3,764.36,384.42z"/>
		</g>
	</g>
	<g>
		<path class="st11" d="M758.13,444.03c-2.45-5.17-0.09-15.38,7.27-7.14c6.92,7.75-2.09,16.58-4.6,18.13
			C756.96,457.4,744.14,455.54,758.13,444.03z"/>
		<path class="st11" d="M767.23,442.81c-2.08-5.93-0.09-17.63,6.15-8.17c5.87,8.89-1.76,19-3.88,20.78
			C766.25,458.14,755.38,455.99,767.23,442.81z"/>
		<path class="st11" d="M774.29,443.33c-2.08-5.93-0.09-17.63,6.15-8.17c5.87,8.89-1.76,19-3.88,20.78
			C773.31,458.66,762.44,456.52,774.29,443.33z"/>
		<path class="st11" d="M781.35,443.31c-2.08-5.93-0.09-17.63,6.15-8.17c5.87,8.89-1.76,19-3.88,20.78
			C780.37,458.64,769.5,456.5,781.35,443.31z"/>
	</g>
</g>
<g>
	<g>
		<g>
			<path class="st55" d="M357.1,453.96c-4.28,10.63-5.16,24.83-5.2,36.56l16.34,5.07C368.24,483.05,364.86,451.06,357.1,453.96z"/>
			<path class="st55" d="M374.36,508.57c-0.93-3.49-2.7-8.87-3.3-12.43c-0.92-5.46-4.51-9.02-7.97-13.14l-6.01,15.78
				c-1.19,7.41,6.24,10.32,9.6,14.44c2.2,2.7,9.45,10.53,11.28,3.61C378.52,514.73,374.92,510.68,374.36,508.57z"/>
		</g>
		<g>
			<g>
				<path class="st56" d="M309.06,914.28c-13.15,7.51-64.71,1.82-69.88-1.13c-0.26-0.65-0.38-1.6-0.42-2.75
					c-0.05-1.16,0-2.5,0.07-3.91c0.29-5.32,1.06-11.48-0.4-11.38l29.31-8.64c4.2,8.1,5.71-0.89,11.27,6.01
					c4.67,5.81,13.53,8.64,22.17,9.77c4.28,0.56,7.14,2.17,8.73,4.07c0.66,0.79,1.1,1.63,1.34,2.46
					C311.86,910.97,311.07,913.13,309.06,914.28z"/>
				<path class="st18" d="M311.24,908.78c-0.12,1.48-0.94,2.8-2.37,3.61c-13.15,7.51-64.71,1.82-69.88-1.13
					c-0.1-0.25-0.18-0.54-0.24-0.87c-0.05-1.16,0-2.5,0.07-3.91c6.21,2.98,56.68,8.44,69.67,1.02c0.57-0.32,1.04-0.73,1.4-1.19
					C310.56,907.12,311,907.95,311.24,908.78z"/>
				<path class="st57" d="M277.96,883.43c-1.79-4.3-3.75-5.78-9.61-5.3c-4.69,0.38-8.59,5.56-7.9,10.03
					c0.58,3.77-0.96,5.86,0.31,9.07l25.75,0.89C282.01,892.86,279.72,887.65,277.96,883.43z"/>
			</g>
			<path class="st58" d="M344.87,597.97c-7.67,28.59-54.28,218.47-65.79,274.53c-0.2,2.41-0.4,4.82-0.53,7.13
				c-0.3,5.45-2.91,6.82-8,7.87c-5.57,1.15-11.18,2.44-16.41,5.07c-0.08,0.04-0.16,0.08-0.24,0.13c-0.6,0.31-1.29,0.71-2.01,1.13
				c-3.84,2.24-9.07,5.36-12.13,2.62c-2.83-2.52-1.5-16.23-1.32-19.87c2.74-53.94,20.56-115.31,21.52-120.06
				c13.1-64.31,14.54-152.01,13.05-211.01c-0.36-14.31-10.27-21.11-8.6-33.38c3.24-23.84,6.24-31.33,18.12-57.79l84.88,53.47
				C364.11,539.43,353.13,567.16,344.87,597.97z"/>
			<g>
				<path class="st57" d="M348.92,486.87c0,20.69-1.97,42.14-5.41,58.84l-0.22,1.05l-1.04,0.25c-1.31,0.32-3.88,0.65-6.57,0.87
					c-1.14,0.09-2.3,0.17-3.39,0.2c0.05-1.14,0.09-2.27,0.13-3.4c1.06-0.05,2.23-0.11,3.39-0.21c1.67-0.13,3.32-0.32,4.61-0.54
					c3.26-16.33,5.12-37.04,5.12-57.07H348.92z"/>
				<path class="st57" d="M331.34,588.95c0,0,0.6-32.48,0.96-40.87c0.05-1.14,0.09-2.27,0.13-3.4c0.57-17.62-0.36-34.05-4.13-42.19
					l9.8-1.71C342.45,510.18,331.88,583.95,331.34,588.95z"/>
			</g>
			<g>
				<path class="st57" d="M341.28,917.7c-15.07,7.51-74.17,1.82-80.09-1.13c-0.3-0.65-0.44-1.6-0.49-2.75
					c-0.05-1.16,0-2.5,0.08-3.91c0.33-5.32,1.22-11.48-0.46-11.38l33.59-8.64c4.81,8.1,6.55-0.89,12.92,6.01
					c5.35,5.8,15.5,8.64,25.4,9.77c4.9,0.56,8.18,2.17,10.01,4.07c0.75,0.79,1.26,1.63,1.53,2.46
					C344.5,914.39,343.59,916.55,341.28,917.7z"/>
				<path class="st18" d="M343.78,912.21c-0.14,1.48-1.08,2.8-2.71,3.61c-15.07,7.51-74.16,1.82-80.09-1.13
					c-0.11-0.25-0.2-0.54-0.27-0.87c-0.05-1.16,0-2.5,0.08-3.91c7.12,2.98,64.96,8.44,79.85,1.02c0.65-0.32,1.19-0.73,1.61-1.19
					C343,910.54,343.51,911.38,343.78,912.21z"/>
				<g>
					<path class="st59" d="M330.41,583.42c-2.73,29.47-29.34,236.35-34.97,293.31c0.05,2.42,0.11,4.83,0.21,7.14
						c0.27,5.46-2.19,7.08-7.13,8.66c-5.42,1.72-10.86,3.59-15.79,6.75c-0.07,0.05-0.15,0.1-0.23,0.15
						c-0.57,0.38-1.21,0.84-1.89,1.34c-3.59,2.63-8.46,6.27-11.8,3.87c-3.07-2.22-3.39-15.98-3.37-19.63
						c0.02-7.5,1.43-21.94,1.88-27.05l0.29,0.09c0.59-29.81,5.43-69.6,5.9-74.43c6.35-65.32-0.46-172.95-8.07-231.48
						c-1.84-14.19-12.41-19.92-12.02-32.31c0.75-24.05,2.95-31.8,12.02-59.36l81.34,14.29
						C336.79,506.55,333.18,553.51,330.41,583.42z"/>
					<path class="st57" d="M278.37,676.34c-0.45,12.95-0.66,26.21-0.86,39.04c-0.27,17.01-0.54,34.59-1.39,51.71
						c-0.65,13.1-1.88,26.33-3.07,39.11c-1.12,12.02-2.27,24.45-2.95,36.79c-0.9,16.41,0.73,40.06,2.63,56.3
						c-0.07,0.01-0.15,0.06-0.23,0.15c-0.57,0.38-1.21,0.84-1.89,1.34c-0.05-0.21-0.1-0.46-0.14-0.74
						c-1.89-16.32-3.53-40.68-2.63-57.17c0.68-12.38,1.83-24.83,2.95-36.88c1.19-12.76,2.42-25.95,3.06-39.01
						c0.84-17.08,1.12-34.65,1.39-51.63c0.2-12.84,0.41-26.12,0.86-39.09c0.66-18.81-0.59-37.86-1.78-56.3
						c-0.97-14.84-1.97-30.2-1.97-45.33c0-9.54-0.56-19.35-1.1-28.84c-0.99-17.53-2.02-35.66,0.36-53.18l2.23,0.3
						c-2.35,17.31-1.33,35.33-0.34,52.75c0.54,9.52,1.1,19.36,1.1,28.96c0,15.06,1,30.37,1.97,45.18
						C277.78,638.31,279.03,657.42,278.37,676.34z"/>
				</g>
				<path class="st57" d="M305.65,886.85c-2.05-4.3-4.29-5.78-11.01-5.3c-5.37,0.38-9.84,5.56-9.05,10.03
					c0.67,3.77-1.1,5.86,0.35,9.07l29.51,0.9C310.28,896.28,307.66,891.07,305.65,886.85z"/>
			</g>
			<path class="st57" d="M277.52,539c-0.82,0-1.63-0.01-2.41-0.01c-0.72-0.01-1.43-0.01-2.11-0.01v-3.38c0.69,0,1.4,0.01,2.13,0.01
				c8.75,0.06,19.64,0.15,25.07-7.85c4.77-7.03,4.57-18.65,4.42-27.99c-0.03-1.67-0.05-3.24-0.05-4.75h3.38
				c0,1.48,0.03,3.04,0.05,4.69c0.17,9.81,0.37,22.03-5,29.95C297.12,538.33,286.26,539,277.52,539z"/>
		</g>
		<g>
			<path class="st60" d="M357.63,355.65c6.73-2.41,13.34-5.21,19.71-8.38c-0.07-18.51-7.36-39.53-13.76-56.71
				c-2.63-7.06-6.85-15.72-12.27-20.97c-4.59-4.44-31.23-11.17-31.23-11.17c-12.88,4.75-17.28,18.84-18.24,25.1
				c-1.41,9.24,0.36,20.46,2.47,29.6c3.94,17.05,10.16,34.2,17.1,50.2C333.65,362.72,346.05,359.8,357.63,355.65z"/>
			<path class="st61" d="M369.59,343.88c0.07,9.93-2.86,9.45-4.51,19.3c-0.06,0.33-0.11,0.65-0.15,0.97
				c-0.02,0.15-0.05,0.3-0.06,0.45c-3.3,23.36-0.33,139.06-0.46,141.69c-1.09,0.32-2.14,0.63-3.17,0.93
				c-18.11,4.16-34.7,5.26-55.3,3.08c-25.39-2.69-45.64-10.68-66.17-23.03c21.07-39.77,7.86-101.27,1.96-143.92
				c-2.82-20.4-10.16-54.81-3.01-74.81c0.16-0.46,0.33-0.91,0.5-1.36c6.57-17.19,18.23-25.67,39.29-25.33h0.68l55.18,10.9
				c3.97,7.72,12.49,14.6,17.54,21.97C357.01,282.16,369.51,333.16,369.59,343.88z"/>
			<path class="st60" d="M365.08,363.18c-0.06,0.33-0.11,0.65-0.15,0.97c-0.02,0.15-0.05,0.3-0.06,0.45
				c-3.3,23.36-0.33,139.06-0.46,141.69c-1.09,0.32-2.14,0.63-3.17,0.93c-21.9,6.27-30.48,5.71-55.3,3.08
				c-25.39-2.69-45.64-10.68-66.17-23.03c21.07-39.77,7.86-101.27,1.96-143.92c-2.82-20.4-10.16-54.81-3.01-74.81
				c0.16-0.46,0.33-0.91,0.5-1.36l18.09-8.4c-5.44,10.55,34.03,24.78,35.32,36.86c1.54,14.52,3.36,31.26,3.79,46.07
				c0.54,18.43,8.31,29.06,31.71,29.09C340.64,370.82,353.4,368.15,365.08,363.18z"/>
		</g>
		<g>
			<path class="st62" d="M327.1,247.63l-25.36,24.23c5.47,11.28,32.55,20.71,42.83,12.96C357.55,275.03,334.91,253.64,327.1,247.63z
				"/>
			<g>
				<g>
					<path class="st63" d="M362.31,142.85c-2.6-2.65-6.62-1.38-9.48-2.99l-2.65,2.4c2.21,2.25,3.57,3.58,5.02,6.6
						c1.31,2.73,2.59,5.46,3.42,8.43c1.64,5.9,0.53,12.25,2.03,17.94c3.45-5.35,5.23-12,6.79-18.45
						C369.55,148.09,364.86,145.46,362.31,142.85z"/>
					<path class="st63" d="M300.7,205.2l-6.09-0.76c0.02,2.87-1.63,0.44-2.03,3.3c-0.37,2.69-0.94,11.49,0.8,13.41
						c2.53,2.8,5.34,3.35,6.49-1.42C301.04,214.86,300.71,209.44,300.7,205.2z"/>
					<g>
						<path class="st55" d="M347.05,211.46c-0.29,0.24-0.54,0.75-0.77,1.45c-1.28,3.97-1.68,14.16-2.62,17.5
							c-1.2,4.3-2.3,8.84-3.51,13.25c-0.5,1.82-1.02,3.61-1.57,5.36c-1.84,5.86-2.22,8.47,0.76,14.32
							c1.78,3.48,6.93,13.33,1.61,15.8c-22.4,10.38-51.33-31.95-71.24-36.84c7.14-2.63,21-1.69,24.2-12.23
							c1.69-5.58,3.98-12.35,3.98-19.79c0-3.92-0.45-6.63-1.27-9.98l38.67,8.97L347.05,211.46z"/>
						<path class="st64" d="M346.79,211.14c-1.28,3.97-1.68,14.16-2.61,17.5c-1.2,4.3-2.3,8.84-3.51,13.25
							c-29.99,3.67-45.05-39.99-44.29-46.08l39.43,11.68L346.79,211.14z"/>
					</g>
					<path class="st55" d="M363.28,175.25c-1.52-5.59,0.42-12.37-0.89-18.14c-5.18-22.81-24.19-26.06-24.19-26.06
						c-6.3-2-15.7-1.08-22.08,0.17c-26.2,5.14-33.85,28.94-24.05,52.15c7.22,17.1,4.43,37.71,31.98,48.98
						c5.58,2.28,16.5,5.08,23.86,3.3c8.14-1.96,9.39-8.48,11.93-13.2c5.33-9.9,7.18-20.22,7.3-30.49
						C367.21,185.18,364.92,181.28,363.28,175.25z"/>
					<g>
						<path class="st64" d="M331.07,190.42c-0.44,0.01-1.9-0.64-2.34-0.64c-4.58-0.04-8.01-1.08-10.92-1.79
							c-2.44-0.59-4.16-0.37-4.16-0.37c1.33-0.52,3.12-2.51,4.61-2.84c4.28-0.96,8.89-0.78,11.75,2.54
							C330.38,187.74,330.76,189.88,331.07,190.42z"/>
						<path class="st18" d="M330.68,190.28c-0.44,0.01-0.89,0.01-1.33,0c-0.93-0.01-1.84-0.05-2.73-0.11
							c-3.52-0.25-6.7-0.86-9.03-1.43c-0.69-0.17-1.32-0.33-1.85-0.48c-1.32-0.37-2.1-0.64-2.1-0.64c0.77-0.3,1.59-0.59,2.43-0.84
							c0.6-0.18,1.22-0.34,1.84-0.48c2.67-0.6,5.47-0.75,7.89,0.02c1.46,0.46,2.78,1.27,3.86,2.51
							C330.03,189.26,330.38,189.74,330.68,190.28z"/>
						<path class="st65" d="M326.69,189.88l-0.07,0.3c-3.52-0.25-6.7-0.86-9.03-1.43c-0.69-0.17-1.32-0.33-1.85-0.48
							c0.05-0.27,0.1-0.55,0.17-0.83c0.05-0.22,0.11-0.44,0.16-0.66c0.6-0.18,1.22-0.34,1.84-0.48c2.67-0.6,5.47-0.75,7.89,0.02
							C326.24,186.88,326.8,189.4,326.69,189.88z"/>
						<path class="st18" d="M320.45,187.96c-0.07,0.33-0.43,0.53-0.8,0.45c-0.37-0.08-0.6-0.42-0.53-0.75
							c0.08-0.33,0.43-0.53,0.8-0.45C320.29,187.29,320.53,187.63,320.45,187.96z"/>
					</g>
					<g>
						<path class="st64" d="M363.81,182.4c-0.32,0.21-1.68,0.32-2,0.52c-3.34,2.08-6.32,2.76-8.77,3.49
							c-2.05,0.61-3.19,1.6-3.19,1.6c0.72-1.07,1.07-3.63,1.99-4.61c2.65-2.82,6.07-4.8,9.72-3.22
							C362.04,180.38,363.33,182.07,363.81,182.4z"/>
						<path class="st18" d="M363.47,182.45c-0.32,0.21-0.64,0.42-0.96,0.62c-0.68,0.42-1.36,0.81-2.03,1.17
							c-2.67,1.41-5.27,2.35-7.23,2.93c-0.58,0.18-1.11,0.32-1.57,0.44c-1.14,0.29-1.82,0.41-1.82,0.41
							c0.41-0.62,0.87-1.25,1.36-1.85c0.35-0.43,0.72-0.87,1.11-1.27c1.66-1.76,3.61-3.19,5.73-3.63c1.28-0.27,2.62-0.18,3.99,0.41
							C362.51,181.87,362.99,182.13,363.47,182.45z"/>
						<path class="st65" d="M360.38,183.95l0.09,0.29c-2.67,1.41-5.27,2.35-7.23,2.93c-0.58,0.18-1.11,0.32-1.57,0.44
							c-0.09-0.26-0.18-0.53-0.27-0.8c-0.07-0.22-0.13-0.43-0.2-0.65c0.35-0.43,0.72-0.87,1.11-1.27c1.66-1.76,3.61-3.19,5.73-3.63
							C358.63,181.55,360.23,183.48,360.38,183.95z"/>
						<path class="st18" d="M354.94,185.17c0.1,0.32-0.06,0.66-0.37,0.76c-0.3,0.1-0.64-0.08-0.74-0.41
							c-0.1-0.32,0.06-0.66,0.37-0.76C354.51,184.66,354.84,184.84,354.94,185.17z"/>
					</g>
					<g>
						<path class="st64" d="M349.73,203.2c-4.18-4.52-3.78-8.16-5.38-13.49c-0.88,4.74,0.33,8.97,2.04,13.2
							c-1.47,1.01-5.46,3.05-6.94,4.01C344,207.84,348.56,206.62,349.73,203.2z"/>
					</g>
					<path class="st63" d="M329.89,176.39c0,0-5.37-1.41-13.94,0c-3.36,0.55-5.8,1.97-7.61,4.61
						C312.56,178.11,333.99,184.32,329.89,176.39z"/>
					<path class="st63" d="M346.94,174.62c0,0,6.39-2.44,12.13-2.15c3.01,0.15,5.39,1.05,7.43,3.36
						C362.31,173.64,344.76,183.06,346.94,174.62z"/>
					<path class="st64" d="M332.71,212.1c0,0,0.09,0.03,0.26,0.1c0.16,0.07,0.41,0.16,0.72,0.27c0.31,0.11,0.69,0.24,1.12,0.38
						c0.43,0.14,0.92,0.28,1.46,0.43c0.54,0.14,1.12,0.28,1.74,0.41c0.62,0.13,1.27,0.25,1.95,0.34c0.34,0.05,0.69,0.08,1.03,0.13
						c0.35,0.02,0.7,0.06,1.06,0.08c0.71,0.04,1.43,0.05,2.15,0c0.72-0.03,1.43-0.11,2.11-0.23c0.69-0.11,1.35-0.28,1.98-0.48
						c0.63-0.2,1.22-0.43,1.77-0.69c0.55-0.25,1.05-0.53,1.51-0.8c0.44-0.29,0.85-0.55,1.2-0.81c0.36-0.25,0.64-0.5,0.89-0.69
						c0.47-0.41,0.76-0.65,0.76-0.65s-0.04,0.08-0.12,0.22c-0.08,0.14-0.19,0.36-0.35,0.62c-0.18,0.25-0.37,0.58-0.66,0.91
						c-0.14,0.17-0.29,0.36-0.46,0.54c-0.18,0.18-0.36,0.37-0.57,0.56c-0.21,0.18-0.43,0.38-0.67,0.57
						c-0.25,0.18-0.5,0.38-0.78,0.55c-0.56,0.36-1.19,0.7-1.89,0.98c-0.69,0.28-1.44,0.53-2.22,0.69c-0.78,0.17-1.59,0.27-2.4,0.32
						c-0.81,0.04-1.62,0.02-2.41-0.06c-0.79-0.07-1.55-0.2-2.28-0.36c-0.73-0.16-1.41-0.36-2.04-0.58
						c-0.64-0.21-1.21-0.47-1.73-0.71c-1.04-0.49-1.83-1.01-2.35-1.39c-0.27-0.19-0.46-0.36-0.58-0.47
						C332.78,212.16,332.71,212.1,332.71,212.1z"/>
					<path class="st64" d="M342.83,221.95h0.25c1.77,0.57,4.57,0.88,6.51,0.78C348.12,220.12,344.82,220.19,342.83,221.95z"/>
					<path class="st63" d="M311.18,138.1l-12.03,4.37c-7,3.55-11.52,13.67-13.48,21.13c-1.45,5.53-4.27,19.26-0.97,26.62
						c4.43-1.45,8.29-4.47,10.53-0.47c1.46,2.6,2.69,13.34,5.32,12.79c1.34-5.59,2.1-10.7,1.5-16.71
						c-0.56-5.67-2.67-11.61,1.2-16.69c1.66-2.17,3.25-2.81,3.9-5.54c0.65-2.75-0.23-5.86-0.37-8.74
						C306.56,150.26,305.71,139.86,311.18,138.1z"/>
					<g>
						<path class="st55" d="M294.86,188.96c-5.33-4.06-9.59-1.62-10.89,2.45c-1.25,3.92-0.62,7.85,1.06,11.25
							c3.33,6.78,13.54,12.48,17.7,7.1C301.56,200.48,299.17,192.51,294.86,188.96z"/>
						<path class="st64" d="M297.95,201.49c-1.88,2.03-4.66-0.44-4.97-2.66c-0.41-2.99,1.48-2.69-0.28-5.81
							c-3-5.32-8.26-1.85-6.19,3.02c0.16-2.82,2.78-2.95,4.41-1.03c-7.73,7.08,7.28,15.65,8.16,6.1L297.95,201.49z"/>
					</g>
					<g>
						<path class="st66" d="M357.54,143.66l-0.36,0.69c-0.14-0.03-0.28-0.06-0.42-0.09c-0.84,3.3-3.08,6.08-5.85,8.2
							c-4.03,3.07-8.26,5.08-12.36,7.96c-3.2,2.24-5.87,4.52-8.38,7.19c-1.12-3.59,0.67-7.94,3.36-10.39
							c-8.62,0.65-17.24,9.22-19.75,17.26c-3.23-4.63-0.82-12.26,1.27-16.91c-5.2,1.09-9.46,9.11-11.42,13.43
							c-2.62,5.78-1.19,14.49-1.73,20.61c-2.13-2.3-5.43-8.48-6.92-11.31c-1.06-2.02-1.81-4.05-2.42-6.14
							c-1.24,2.17-2.97,4.56-5.44,7.23c-0.1-0.88-0.55-1.63-0.64-2.54c-1.88,1.96-5.63,9.13-5.69,9.13
							c-0.19,0.23-1.19-7.4-1.35-9.98c-1.1,0.96-2.08,2.53-2.68,3.74c-0.2-3.15-0.17-6.67,0.31-9.68c-1.2,0.29-2.7,1.1-3.73,1.61
							c0.65-2.91,4.07-6.81,5.7-9.54c-2.25,1.72-4.71,3.06-7.3,4.03c2.08-11.15,4.56-17.48,10.95-26.03
							c0.29-0.38,0.59-0.77,0.9-1.14c4.76-5.86,11.81-11,18.43-14.65c7.48-4.13,21.41-7.65,30.02-6.65
							c9.79,1.14,22.35,7.4,25.08,17.75C357.64,139.37,357.8,141.45,357.54,143.66z"/>
						<g>
							<path class="st67" d="M290.89,144.65c-0.01,0.01-0.01,0.02-0.02,0.03c0.01,0,0.02-0.01,0.03-0.01
								C291,144.57,291,144.57,290.89,144.65z"/>
							<g>
								<path class="st63" d="M357.54,143.66l-0.36,0.69c-0.14-0.03-0.28-0.06-0.42-0.09c-0.84,3.3-3.08,6.08-5.85,8.2
									c-4.03,3.07-8.26,5.08-12.36,7.96c-3.2,2.24-5.87,4.52-8.38,7.19c-1.12-3.59,0.67-7.94,3.36-10.39
									c-8.62,0.65-17.24,9.22-19.75,17.26c-3.23-4.63-0.82-12.26,1.27-16.91c-5.2,1.09-9.46,9.11-11.42,13.43
									c-2.62,5.78-1.19,14.49-1.73,20.61c-2.13-2.3-5.43-8.48-6.92-11.31c-1.06-2.02-1.81-4.05-2.42-6.14
									c-1.24,2.17-2.97,4.56-5.44,7.23c-0.1-0.88-0.55-1.63-0.64-2.54c-1.88,1.96-5.63,9.13-5.69,9.13
									c-0.19,0.23-1.19-7.4-1.35-9.98c-1.1,0.96-2.08,2.53-2.68,3.74c-0.2-3.15-0.17-6.67,0.31-9.68c-1.2,0.29-2.7,1.1-3.73,1.61
									c0.65-2.91,4.07-6.81,5.7-9.54c-2.25,1.72-4.71,3.06-7.3,4.03c2.08-11.15,4.56-17.48,10.95-26.03
									c0.29-0.38,0.59-0.77,0.9-1.14c-0.5,3.04-0.74,6-0.82,8.55c1.37-2.75,5.41-3.86,8.09-4.85c-3,3.47-3.4,10.5-2.39,14.64
									c1.2-1.62,3.22-3.6,4.91-4.86c0.24,3.98,0.6,10,3.77,12.79c-0.12-13.67,14.23-22.18,24.17-28.6
									c-2.04,2.59-4.09,8.07-3.76,11.33c1.01-0.62,1.97-1.42,3.01-2.06c-0.8,2.18,0.6,5.46,1.9,7.32
									c5.2-2.63,8.73-6.98,12.1-11.48c-0.36,2.89,1.12,6.21,3.3,8.06c1.73-1.49,3.19-3.89,4.24-5.88c0.46,0.86,1,1.7,1.8,2.29
									c4.77-2.7,10.14-6.05,13.21-10.8C357.64,139.37,357.8,141.45,357.54,143.66z"/>
							</g>
						</g>
					</g>
				</g>
				<g>
					<path class="st57" d="M318.02,200.81c-4.66,0.38-8.73-2.6-11.47-8.4c-0.9-1.9-1.41-3.61-1.64-4.47
						c-0.65-2.41-0.39-2.68-0.1-2.98c2.99-3.08,10.31-4.69,16.17-5.17c7.27-0.6,13.28,0.29,16.08,2.36
						c0.32,0.24,0.64,0.48,0.46,3.13c-0.08,1.19-0.3,3.03-0.89,5.06c-1.19,4.18-3.93,9.27-10.17,9.78c0,0,0,0,0,0l-0.19,0.01
						L318.02,200.81z M306.57,186.09c0.24,1.56,1.87,7.33,5.38,10.54c1.76,1.61,3.74,2.33,5.91,2.15l0.14-0.01l8.31-0.68
						c2.47-0.2,4.5-1.34,6.05-3.38c2.87-3.8,3.28-9.61,3.19-11.14c-2.52-1.58-8.08-2.27-14.39-1.75
						C314.65,182.35,308.9,184.04,306.57,186.09z"/>
					<path class="st57" d="M354.85,197.04c-3.95,0.32-7.44-2.71-9.83-8.54c-0.78-1.91-1.24-3.63-1.45-4.48
						c-0.58-2.42-0.36-2.68-0.12-2.98c2.5-3.04,8.69-4.56,13.65-4.96c6.16-0.5,11.27,0.45,13.67,2.56c0.27,0.24,0.55,0.49,0.43,3.13
						c-0.06,1.18-0.22,3.02-0.69,5.05c-0.96,4.16-3.22,9.21-8.51,9.65c0,0,0,0,0,0l-0.16,0.01L354.85,197.04z M344.95,182.19
						c0.22,1.56,1.68,7.35,4.69,10.6c1.51,1.63,3.21,2.37,5.04,2.22l0.12-0.01l7.04-0.57c2.09-0.17,3.8-1.28,5.09-3.3
						c2.39-3.76,2.66-9.56,2.57-11.09c-2.16-1.61-6.88-2.36-12.23-1.93C351.77,178.56,346.91,180.18,344.95,182.19z"/>
					<path class="st57" d="M336.06,183.59l-1.17-1.93c3.41-2.06,7.1-2.49,10.39-1.21l-0.82,2.1
						C341.84,181.53,338.86,181.9,336.06,183.59z"/>
				</g>
			</g>
		</g>
	</g>
	<g>
		<g>
			<path class="st68" d="M225.65,323.51c5.6-4.76,13.69-2.79,20.3-3.18l1.69-68.75C224,270.12,219.9,294.8,225.65,323.51z"/>
			<g>
				<path class="st68" d="M219.21,292.15c-4.63-7.36-10.31-1.94-16.37,1.67c-9.12,5.42-11.03,7.31-11.44,17.12
					c-0.22,5.4-0.74,19.47-5.84,21.79l6.01-0.75c3.27-7.17,3.06-15.92,6.01-22.54c2.44-5.48,10.06-8.66,15.77-11.35
					c4.94,3.24,6.7,10.26,6.93,15.79C221.79,309.29,222.14,296.81,219.21,292.15z"/>
				<g>
					<path class="st68" d="M282.1,446.02c-1.34,9.84-9.01,18.87-15.1,27c-11.37,15.17-23.52,45.32-43.86,48.39
						c-58.04,8.75-52.75-76.37-58.36-113.21c-1.79-11.73-4.06-23.32,2.72-33.99c6.25-9.83,9.05-18.42,12.42-29.09
						c3.75-11.87,9.24-19.7,19.01-27.78c0.31-0.26,0.61-0.51,0.92-0.77c4.59-3.82,9.13-7.76,13.84-11.28
						c4.85-3.62,11.34-5.9,15.8-9.24l7.82-10.66c1.1,9.01,10.42,19.11,14.41,27.72c4.81,10.37,10.64,20.18,16.34,30.41
						c6.07,10.88,4.49,21.29,3.39,33.57c-0.26,2.98-0.44,6.07-0.5,9.19c-0.16,8.77,0.64,17.86,3.15,25.79
						C277.43,422.51,283.67,434.56,282.1,446.02z"/>
					<path class="st69" d="M282.1,446.02c-1.34,9.84-9.01,18.87-15.1,27c-11.37,15.17-23.52,45.32-43.86,48.39
						c-12.26,1.85-21.7-0.49-29.01-5.69c-27.28-19.38-24.92-78.47-29.35-107.53c-1.79-11.73-4.06-23.32,2.72-33.99
						c6.25-9.83,9.05-18.42,12.42-29.09c3.75-11.87,9.24-19.7,19.01-27.78c0.31-0.26,0.61-0.51,0.92-0.77
						c-1.8,12.54,0.06,26.08,3.34,38.32c2.96,11.05,6.35,22.06,8.55,32.84c1.57,7.72,1.35,16.2,4.37,23.35
						c13.52-0.11,25.74,5.19,37.39-4.3c7.17-5.84,12.39-13.13,17.47-20.5c-0.16,8.77,0.64,17.86,3.15,25.79
						c1.59,5.03,3.86,10.43,5.61,15.95C281.63,433.97,282.91,440.07,282.1,446.02z"/>
					<path class="st68" d="M282.1,446.02c-1.34,9.84-9.01,18.87-15.1,27c-11.37,15.17-23.52,45.32-43.86,48.39
						c-12.26,1.85-21.7-0.49-29.01-5.69c-0.49-5.12-0.6-10.25-0.88-15.67c-0.57-11.2,0.56-22.96,5-33.39
						c2.24-5.27,5.56-9.63,9.22-14.24c2.59-3.27,6.19-12.2,9.38-14.11c3.48-2.08,13.42,0.66,17.63,0.61
						c6.94-0.09,12.39-1.75,19.03-3.39c7.87-1.95,17.87-4.04,26.22-7.51C281.63,433.97,282.91,440.07,282.1,446.02z"/>
				</g>
			</g>
		</g>
		<g>
			<path class="st68" d="M290.69,261.95c5.41,11.13,7.12,24.88,4.92,36.96c-4.35,23.82-25.13,123.23-35.65,134.5
				c0.75,3.76,11.27,1.5,15.03,1.5c14.7-21.42,44.88-97.83,38.06-163.91c-1.53-14.79-25.38-32.96-33.27-31.83
				c-7.89,1.13-19.72,5.07-19.72,5.07C268.51,244.97,286.91,254.18,290.69,261.95z"/>
		</g>
		<g>
			<path class="st64" d="M402.27,365.8c-0.29,1.07-0.93,2.14-2.17,3.11l-5.81-0.71l-4.46-0.54c-0.2-2.47,0.46-4.94,1.29-7.41
				c0.95-2.81,2.14-5.6,2.51-8.35c0.74,0.47,1.55,1.02,2.36,1.62c2.37,1.76,4.76,4.04,5.55,6.62
				C401.95,361.48,402.85,363.64,402.27,365.8z"/>
			<g>
				<g>
					<g>
						<path class="st70" d="M391.72,328.32l-21.77,125.49c-0.35,2.01-2.26,3.35-4.27,3l-78.6-13.64c-2.01-0.35-3.35-2.26-3-4.27
							l21.77-125.49c0.35-2.01,2.26-3.35,4.27-3l78.6,13.64C390.73,324.4,392.07,326.31,391.72,328.32z"/>
						<path class="st71" d="M391.72,328.32l-21.77,125.49c-0.35,2.01-2.26,3.35-4.27,3l-75.06-13.02c-2.01-0.35-3.35-2.26-3-4.27
							l21.77-125.49c0.35-2.01,2.26-3.35,4.27-3l75.06,13.02C390.73,324.4,392.07,326.31,391.72,328.32z"/>
					</g>
					<path class="st70" d="M364.4,362c-0.35,2.01-2.26,3.35-4.27,3l-28.99-5.03c-2.01-0.35-3.35-2.26-3-4.27l1.53-8.81
						c0.35-2.01,2.26-3.35,4.27-3l28.99,5.03c2.01,0.35,3.35,2.26,3,4.27L364.4,362z"/>
				</g>
				<g>
					<g>
						<path class="st72" d="M402.16,338.17l-33.5,122.88c-0.54,1.97-2.56,3.13-4.53,2.59l-76.97-20.98
							c-1.96-0.54-3.12-2.57-2.59-4.53l33.5-122.88c0.54-1.96,2.57-3.12,4.53-2.59l76.97,20.98
							C401.54,334.18,402.7,336.21,402.16,338.17z"/>
						<path class="st43" d="M402.16,338.17l-33.5,122.88c-0.54,1.97-2.56,3.13-4.53,2.59l-73.5-20.04
							c-1.97-0.54-3.12-2.57-2.59-4.53l33.5-122.88c0.54-1.96,2.57-3.12,4.53-2.59l73.5,20.04
							C401.54,334.18,402.7,336.21,402.16,338.17z"/>
					</g>
					<path class="st72" d="M371.78,369.13c-0.54,1.97-2.56,3.13-4.53,2.59l-28.38-7.74c-1.97-0.54-3.13-2.56-2.59-4.53l2.35-8.63
						c0.54-1.97,2.56-3.12,4.53-2.59l28.38,7.74c1.97,0.54,3.13,2.56,2.59,4.53L371.78,369.13z"/>
				</g>
			</g>
			<g>
				<path class="st55" d="M288.15,379.95c-0.05,1.29-0.11,2.48-0.19,3.55c-0.98,13.48-5.59,40.37-22.04,42.62
					c-17.01,2.33-24.47-24.08-26.73-40.42c-0.63-4.55-6.48-61.98-4.51-78.89l52.41,18.03c0.16,4.09,0.4,10.02,0.62,16.64
					C288.15,354.49,288.53,370.2,288.15,379.95z"/>
				<path class="st55" d="M362.94,363.04c-23.75,23.47-59.24,9.41-88.71,19.27c-10.48,3.51-32.3-18.44-35.04-6.2
					c-1.23,5.5,3.58,37.07,5.63,41.7c6.76,15.22,28.18,17.28,50.72,6.76c18.61-8.69,51.05-22.11,67.35-33.25L362.94,363.04z"/>
				<g>
					<path class="st64" d="M276.95,338.92l0.45,0.11c-0.14-0.56-0.29-1.11-0.46-1.63C276.95,337.89,277.01,338.43,276.95,338.92z"/>
					<path class="st64" d="M288.15,379.95c-7.89,3.2-14.63,8.11-22.39,14.11c2.51-7.43,11.57-11.8,13.44-17.95
						c1.59-5.23,0.32-14.37,0.03-19.72c-0.28-5.21-0.5-12.06-1.84-17.37l10.32,2.45C288.15,354.49,288.53,370.2,288.15,379.95z"/>
				</g>
				<g>
					<path class="st55" d="M395.92,350.63c3.68-11.05-6.19-5.49-11.43-2.45c-11.3,6.56-25.11,6.12-24.9,21.02l-6.97,5.19
						c-1.37,11.41,7.1,20.19,26.16,20.19c6.88,0,12.61-30.74,5.01-34.49C389.17,356.24,394.82,353.93,395.92,350.63z"/>
					<path class="st55" d="M401.95,364.93c-0.07,0.91-0.7,1.77-1.75,3.32c-0.83,1.23-0.89,0.71-0.89,2.24c0,0.7,0.57,2.61,0.69,3.41
						c0.46,3.1-0.98,5.44-4.49,7.55c1.58,2.87,1.02,6.74-3.68,8.37c-0.35,2.13-2.25,3.49-4.91,4.27
						c-6.88,2.04-18.86,0.26-22.31-1.69l11.59-34.4c1.14,1.67,10.89,0.67,13.46,0.89c0.06,0,0.11,0.01,0.18,0.02
						c1.36,0.11,3.01,0.14,4.65,0.32c2.68,0.29,5.32,1,6.61,3.18C401.74,363.51,402.01,364.24,401.95,364.93z"/>
					<path class="st64" d="M401.95,364.93c-0.07,0.91-0.7,1.77-1.75,3.32c-0.83,1.23-0.89,0.71-0.89,2.24c0,0.7,0.57,2.61,0.69,3.41
						c0.46,3.1-0.98,5.44-4.49,7.55c1.58,2.87,1.02,6.74-3.68,8.37c-0.35,2.13-2.25,3.49-4.91,4.27c1.09-2.03,1.56-4.24,0.59-6.73
						c3.38-1.87,4.26-5.07,3.15-8.5c3.54-1.56,5.19-8.28,2.34-11.09c0.09-0.07,0.18-0.15,0.27-0.22c2.08-1.86,1.97-5.15,1.2-8.32
						c2.68,0.29,5.32,1,6.61,3.18C401.74,363.51,402.01,364.24,401.95,364.93z"/>
				</g>
				<g>
					<path class="st61" d="M292.31,348.36c-0.53,4.04-1.22,7.97-2.12,11.73c-6.66,1.44-13.42,2.39-20.2,2.88
						c-11.67,0.84-23.73,0.07-35.03-3.19c-0.33-3.12-0.63-6.26-0.91-9.42c-1.47-16.88-2.12-34.29-1.33-51.1
						c0.5-10.7,1.88-23.56,5.62-33.24c2.54-6.56,11.56-22.33,21.7-20.64c8.48,1.41,23.49,11.14,26.49,17.47
						c3.54,7.49,5.69,22.07,6.21,30.65C293.76,310.53,294.65,330.54,292.31,348.36z"/>
					<path class="st62" d="M292.31,348.36c-0.53,4.04-1.22,7.97-2.12,11.73c-6.66,1.44-13.42,2.39-20.2,2.88
						c-11.67,0.84-23.73,0.07-35.03-3.19c-0.33-3.12-0.63-6.26-0.91-9.42c8.53,2.35,20.59,2.23,28.91,1.9
						C273.04,351.86,283.09,351.98,292.31,348.36z"/>
				</g>
			</g>
		</g>
	</g>
</g>
</svg>
