<?xml version="1.0" encoding="utf-8"?>
<!-- Generator: Adobe Illustrator 24.0.0, SVG Export Plug-In . SVG Version: 6.00 Build 0)  -->
<svg version="1.1" xmlns="http://www.w3.org/2000/svg" xmlns:xlink="http://www.w3.org/1999/xlink" x="0px" y="0px"
	 viewBox="0 0 4000 3000" style="enable-background:new 0 0 4000 3000;" xml:space="preserve">
<style type="text/css">
	.st0{fill:none;}
	.st1{clip-path:url(#XMLID_2_);fill:#DDE9F5;}
	.st2{clip-path:url(#XMLID_2_);fill:#CADAE8;}
	.st3{fill:#455D7A;}
	.st4{fill:#233142;}
	.st5{fill:#F5F9FD;}
	.st6{fill:#DDE9F5;}
	.st7{fill:#E04545;}
	.st8{fill:#FF7E67;}
	.st9{fill:#CADAE8;}
	.st10{fill:#F95959;}
	.st11{fill:#FFC5A6;}
	.st12{fill:#F0A17D;}
	.st13{fill:#F08D6C;}
	.st14{fill:#6B3F30;}
</style>
<g id="Layer_3">
	<rect class="st0" width="4000" height="3000"/>
</g>
<g id="Layer_2">
	<g>
		<g>
			<defs>
				<path id="XMLID_10_" d="M1154.09,2429.27c-358.39,0-616.67-284.63-564.47-514.55c46.3-203.96,424.3-199.01,498.64-317.77
					c74.35-118.77-300.25-356.78-287.45-551.33c12.8-194.56,226.56-471.03,702.71-248.32c300.21,140.42,442.87,88.32,637.43-11.52
					c194.56-99.84,449.3-372.97,816.5-229.22c300.79,117.76,367.48,535.13,203.64,737.37c-163.84,202.24-276.46,326.97-24.16,466.44
					c198.14,109.53,389.6,306.42,96.3,560.32c-238.66,206.6-844.69,160.28-1270.07,92.1
					C1537.79,2344.61,1154.09,2429.27,1154.09,2429.27z"/>
			</defs>
			<use xlink:href="#XMLID_10_"  style="overflow:visible;fill:#EAF4FE;"/>
			<clipPath id="XMLID_2_">
				<use xlink:href="#XMLID_10_"  style="overflow:visible;"/>
			</clipPath>
			<path class="st1" d="M1202.09,2354.39c-445.43-201.6-506.87-430.07-218.88-499.19c287.99-69.12,554.87-203.52,339.83-357.11
				s-501.11-449.27-241.92-489.59c259.19-40.32,514.55,253.43,748.79,182.4c234.24-71.04,668.15-613.75,1016.3-375.67
				c348.15,238.08-104.96,376.31-266.23,639.99c-161.28,263.67,696.31,488.95,588.79,675.83
				c-107.52,186.88-604.15,74.24-791.02,43.52C2190.87,2143.83,1202.09,2354.39,1202.09,2354.39"/>
			<path class="st2" d="M1325.61,1419.37c-148.48-227.84-197.12-279.03,258.55-156.16c455.67,122.88,785.91-322.55,1016.3-309.75
				c230.4,12.8-28.16,202.24-197.12,445.43c-168.96,243.2,637.43,491.51,552.95,637.43c-84.48,145.92-445.43,250.88-1077.74,243.2
				c-632.31-7.68-1062.38-194.56-901.1-279.03s381.43-61.44,511.99-104.96C1620,1852,1325.61,1419.37,1325.61,1419.37z"/>
		</g>
		<rect x="1103.7" y="1174.56" class="st3" width="1771.57" height="1101.98"/>
		<rect x="1103.7" y="2260.54" class="st4" width="1771.57" height="16"/>
		<rect x="1137.82" y="1205.03" class="st5" width="1703.33" height="1016.13"/>
		<rect x="1634.46" y="1521.51" class="st6" width="344.34" height="690.21"/>
		<rect x="1248.75" y="1732.19" class="st6" width="344.34" height="479.54"/>
		<rect x="2020.97" y="1438.8" class="st6" width="344.33" height="772.93"/>
		<rect x="2403.78" y="1299.74" class="st6" width="344.34" height="911.98"/>
		<rect x="1137.82" y="2181.97" class="st4" width="1703.33" height="39.19"/>
		<rect x="1137.82" y="1197.64" class="st4" width="1703.33" height="39.19"/>
		<rect x="1225.69" y="2196.37" class="st3" width="1527.59" height="10.39"/>
		<rect x="1225.69" y="2196.37" class="st7" width="710.72" height="10.39"/>
		<polygon class="st4" points="3273.13,2484.39 704.36,2484.39 704.36,2459.81 1102.96,2293.98 2874.53,2293.98 3273.13,2459.81 		
			"/>
		<g>
			
				<rect x="2954.59" y="1940.13" transform="matrix(-0.9847 0.1744 -0.1744 -0.9847 6652.5352 3350.1475)" class="st5" width="449.04" height="54.32"/>
			
				<rect x="2966.75" y="2008.82" transform="matrix(-0.9847 0.1744 -0.1744 -0.9847 6688.6499 3484.3604)" class="st5" width="449.04" height="54.32"/>
			
				<rect x="3079.33" y="1948.69" transform="matrix(-0.9847 0.1744 -0.1744 -0.9847 6763.8242 3320.2007)" class="st6" width="313.48" height="17.03"/>
			<polygon class="st6" points="3377.1,1984.91 3375.11,1999.14 3360.96,2001.64 3373.88,2007.93 3371.89,2022.17 3381.87,2011.82 
				3394.79,2018.11 3388.03,2005.43 3398.01,1995.09 3383.86,1997.59 			"/>
			<polygon class="st6" points="3323.71,1994.36 3321.72,2008.59 3307.57,2011.1 3320.49,2017.39 3318.5,2031.62 3328.47,2021.28 
				3341.39,2027.57 3334.64,2014.88 3344.61,2004.54 3330.46,2007.05 			"/>
			<polygon class="st6" points="3270.31,2003.82 3268.32,2018.05 3254.18,2020.55 3267.1,2026.84 3265.11,2041.07 3275.08,2030.73 
				3288,2037.02 3281.24,2024.34 3291.22,2013.99 3277.07,2016.5 			"/>
			<polygon class="st6" points="3216.92,2013.27 3214.93,2027.5 3200.78,2030.01 3213.7,2036.3 3211.71,2050.53 3221.69,2040.18 
				3234.6,2046.47 3227.85,2033.79 3237.82,2023.45 3223.68,2025.95 			"/>
			<polygon class="st6" points="3163.53,2022.73 3161.54,2036.96 3147.39,2039.46 3160.31,2045.75 3158.32,2059.98 3168.29,2049.64 
				3181.21,2055.93 3174.46,2043.25 3184.43,2032.9 3170.28,2035.41 			"/>
			<polygon class="st6" points="3110.13,2032.18 3108.14,2046.41 3093.99,2048.92 3106.91,2055.21 3104.92,2069.44 3114.9,2059.09 
				3127.82,2065.38 3121.06,2052.7 3131.04,2042.36 3116.89,2044.86 			"/>
			<polygon class="st6" points="3056.74,2041.64 3054.75,2055.87 3040.6,2058.37 3053.52,2064.66 3051.53,2078.89 3061.5,2068.55 
				3074.42,2074.84 3067.67,2062.16 3077.64,2051.81 3063.49,2054.32 			"/>
			<polygon class="st6" points="3003.34,2051.09 3001.35,2065.32 2987.21,2067.83 3000.12,2074.12 2998.14,2088.35 3008.11,2078 
				3021.03,2084.29 3014.27,2071.61 3024.25,2061.27 3010.1,2063.77 			"/>
		</g>
		<path class="st5" d="M930.06,1084.78c0-14.68,11.9-26.57,26.57-26.57c14.68,0,26.57,11.9,26.57,26.57
			c0,14.68-11.9,26.57-26.57,26.57C941.96,1111.35,930.06,1099.45,930.06,1084.78z"/>
		
			<ellipse transform="matrix(0.8281 -0.5606 0.5606 0.8281 -1002.2487 853.8539)" class="st5" cx="890.97" cy="2060.96" rx="42.85" ry="42.85"/>
		
			<ellipse transform="matrix(0.9273 -0.3742 0.3742 0.9273 -174.3705 1011.8179)" class="st5" cx="2518.25" cy="954.91" rx="36.79" ry="36.79"/>
		<path class="st5" d="M2938.18,1856.98c0-14.68,11.9-26.57,26.57-26.57c14.68,0,26.57,11.9,26.57,26.57
			c0,14.68-11.9,26.57-26.57,26.57C2950.07,1883.56,2938.18,1871.66,2938.18,1856.98z"/>
		<path class="st5" d="M3000.43,1174.1c0-14.68,11.9-26.57,26.57-26.57c14.68,0,26.57,11.9,26.57,26.57
			c0,14.68-11.9,26.57-26.57,26.57C3012.33,1200.67,3000.43,1188.77,3000.43,1174.1z"/>
		<g>
			<g>
				<path class="st8" d="M1585.2,964.55l-342.26,103.89c-16.25,4.93-33.42-4.24-38.36-20.49l-79.54-262.04
					c-4.93-16.25,4.24-33.42,20.49-38.36l342.26-103.89c16.25-4.93,33.42,4.24,38.36,20.49l79.54,262.04
					C1610.62,942.45,1601.45,959.62,1585.2,964.55z"/>
				<polygon class="st8" points="1478.54,981.18 1614.41,1072.22 1574.34,947.23 				"/>
			</g>
			<path class="st5" d="M1285.3,880.67c-0.25-8.19-7.09-14.62-15.27-14.37c-8.19,0.25-14.62,7.09-14.37,15.27
				c0.25,8.19,7.09,14.62,15.27,14.37C1279.11,895.7,1285.55,888.86,1285.3,880.67z"/>
			<path class="st5" d="M1382.27,857.33c-0.25-8.19-7.09-14.62-15.27-14.37c-8.19,0.25-14.62,7.09-14.37,15.27
				s7.09,14.62,15.27,14.37C1376.08,872.35,1382.52,865.52,1382.27,857.33z"/>
			<path class="st5" d="M1478.49,829.68c-0.25-8.19-7.09-14.62-15.27-14.37c-8.19,0.25-14.62,7.09-14.37,15.27
				c0.25,8.19,7.09,14.62,15.27,14.37C1472.3,844.71,1478.74,837.87,1478.49,829.68z"/>
		</g>
		<g>
			<g>
				<polygon class="st5" points="3163.87,698.41 2940.55,637.55 2844.04,991.68 3151.79,1075.55 3232.26,780.27 				"/>
				
					<rect x="2931.9" y="773.62" transform="matrix(0.9648 0.2629 -0.2629 0.9648 312.398 -762.8679)" class="st6" width="148.91" height="24.19"/>
				
					<rect x="2920.11" y="824.52" transform="matrix(0.9648 0.2629 -0.2629 0.9648 327.3716 -772.9743)" class="st6" width="262.98" height="24.19"/>
				
					<rect x="2910.33" y="860.41" transform="matrix(0.9648 0.2629 -0.2629 0.9648 336.4655 -769.1389)" class="st6" width="262.98" height="24.19"/>
				
					<rect x="2900.55" y="896.3" transform="matrix(0.9648 0.2629 -0.2629 0.9648 345.5593 -765.3036)" class="st6" width="262.98" height="24.19"/>
			</g>
			<polygon class="st6" points="3163.35,696.99 3158.6,765.56 3231.74,778.84 			"/>
		</g>
		<path class="st6" d="M721.18,1726.6l-13.52,10.16c1.75,6.78,4.07,13.35,6.91,19.64l16.89-0.53c21.02-0.66,37.55,17.79,34.59,38.6
			l-2.38,16.73c5.94,3.51,12.21,6.54,18.77,9.01l11.57-12.33c14.39-15.33,39.13-13.98,51.76,2.83l10.16,13.52
			c6.78-1.75,13.35-4.07,19.64-6.91l-0.53-16.89c-0.66-21.02,17.79-37.55,38.6-34.59l16.73,2.38c3.51-5.94,6.54-12.21,9.01-18.77
			l-12.33-11.57c-15.33-14.39-13.98-39.13,2.83-51.76l13.52-10.16c-1.75-6.78-4.07-13.35-6.91-19.64l-16.89,0.53
			c-21.02,0.66-37.55-17.79-34.59-38.6l2.38-16.73c-5.94-3.51-12.21-6.54-18.77-9.01l-11.57,12.33
			c-14.39,15.33-39.13,13.98-51.76-2.83l-10.16-13.52c-6.78,1.75-13.35,4.07-19.64,6.91l0.53,16.89
			c0.66,21.02-17.79,37.55-38.6,34.59l-16.73-2.38c-3.51,5.94-6.54,12.21-9.01,18.77l12.33,11.57
			C739.34,1689.23,737.99,1713.97,721.18,1726.6z M828.49,1652.45c29.77,1.63,52.59,27.09,50.96,56.86
			c-1.63,29.77-27.09,52.59-56.86,50.96c-29.77-1.63-52.59-27.09-50.96-56.86C773.26,1673.63,798.72,1650.82,828.49,1652.45z"/>
		<path class="st9" d="M885.57,1833.09l-9.92,3.06c-0.4,4.28-0.43,8.56-0.09,12.78l9.87,3.2c12.28,3.99,17.99,18.08,11.96,29.49
			l-4.85,9.17c2.7,3.26,5.7,6.31,8.97,9.11l9.25-4.72c11.5-5.86,25.51,0.06,29.31,12.4l3.06,9.92c4.28,0.4,8.56,0.43,12.78,0.09
			l3.2-9.87c3.99-12.28,18.08-17.99,29.49-11.96l9.17,4.85c3.26-2.7,6.31-5.7,9.11-8.97l-4.72-9.25
			c-5.86-11.5,0.06-25.51,12.4-29.31l9.92-3.06c0.4-4.28,0.43-8.56,0.09-12.78l-9.87-3.2c-12.28-3.99-17.99-18.08-11.96-29.49
			l4.85-9.17c-2.7-3.26-5.7-6.31-8.97-9.11l-9.25,4.72c-11.5,5.86-25.51-0.06-29.31-12.4l-3.06-9.92c-4.28-0.4-8.56-0.42-12.78-0.09
			l-3.2,9.87c-3.99,12.28-18.08,17.99-29.49,11.96l-9.17-4.85c-3.26,2.7-6.31,5.7-9.11,8.97l4.72,9.25
			C903.83,1815.28,897.9,1829.29,885.57,1833.09z M962.97,1812.57c16.86,7.13,24.74,26.58,17.61,43.44
			c-7.13,16.86-26.58,24.74-43.44,17.61c-16.86-7.13-24.74-26.58-17.61-43.44C926.66,1813.32,946.11,1805.44,962.97,1812.57z"/>
		<polygon class="st3" points="3273.13,2459.81 704.36,2459.81 1102.96,2276.54 2874.53,2276.54 		"/>
		<polygon class="st5" points="1171.53,2187.21 1194.58,2200.73 1171.53,2214.25 		"/>
		<g>
			<g>
				<path class="st4" d="M1206.09,2290.51c-22.66,0-33.99,0-56.65,0c-1.65,0-0.29-1.32,3.02-2.94c7.66-3.75,11.48-5.62,19.14-9.37
					c3.32-1.62,7.29-2.94,8.88-2.94c21.82,0,32.73,0,54.56,0c1.59,0,0.38,1.32-2.69,2.94c-7.09,3.75-10.63,5.62-17.72,9.37
					C1211.57,2289.19,1207.74,2290.51,1206.09,2290.51z"/>
				<path class="st4" d="M1279.82,2290.51c-22.66,0-33.99,0-56.65,0c-1.65,0-0.53-1.32,2.5-2.94c6.99-3.75,10.48-5.62,17.47-9.37
					c3.03-1.62,6.77-2.94,8.36-2.94c21.82,0,32.73,0,54.56,0c1.59,0,0.62,1.32-2.16,2.94c-6.42,3.75-9.63,5.62-16.04,9.37
					C1285.06,2289.19,1281.47,2290.51,1279.82,2290.51z"/>
				<path class="st4" d="M1353.54,2290.51c-22.66,0-33.99,0-56.65,0c-1.65,0-0.77-1.32,1.97-2.94c6.32-3.75,9.47-5.62,15.79-9.37
					c2.74-1.62,6.24-2.94,7.83-2.94c21.82,0,32.73,0,54.56,0c1.59,0,0.86,1.32-1.64,2.94c-5.75,3.75-8.62,5.62-14.37,9.37
					C1358.55,2289.19,1355.19,2290.51,1353.54,2290.51z"/>
				<path class="st4" d="M1427.27,2290.51c-22.66,0-33.99,0-56.65,0c-1.65,0-1-1.32,1.45-2.94c5.65-3.75,8.47-5.62,14.12-9.37
					c2.45-1.62,5.72-2.94,7.3-2.94c21.82,0,32.73,0,54.56,0c1.59,0,1.09,1.32-1.11,2.94c-5.08,3.75-7.61,5.62-12.69,9.37
					C1432.04,2289.19,1428.92,2290.51,1427.27,2290.51z"/>
				<path class="st4" d="M1500.99,2290.51c-22.66,0-33.99,0-56.65,0c-1.65,0-1.24-1.32,0.92-2.94c4.98-3.75,7.46-5.62,12.44-9.37
					c2.16-1.62,5.19-2.94,6.78-2.94c21.82,0,32.73,0,54.56,0c1.59,0,1.33,1.32-0.58,2.94c-4.41,3.75-6.61,5.62-11.02,9.37
					C1505.53,2289.19,1502.64,2290.51,1500.99,2290.51z"/>
				<path class="st4" d="M1574.72,2290.51c-22.66,0-33.99,0-56.65,0c-1.65,0-1.47-1.32,0.39-2.94c4.31-3.75,6.46-5.62,10.76-9.37
					c1.87-1.62,4.67-2.94,6.25-2.94c21.82,0,32.73,0,54.56,0c1.59,0,1.56,1.32-0.06,2.94c-3.74,3.75-5.6,5.62-9.34,9.37
					C1579.02,2289.19,1576.37,2290.51,1574.72,2290.51z"/>
				<path class="st4" d="M1648.44,2290.51c-22.66,0-33.99,0-56.65,0c-1.65,0-1.71-1.32-0.13-2.94c3.64-3.75,5.45-5.62,9.09-9.37
					c1.58-1.62,4.14-2.94,5.73-2.94c21.82,0,32.73,0,54.56,0c1.59,0,1.8,1.32,0.47,2.94c-3.07,3.75-4.6,5.62-7.67,9.37
					C1652.51,2289.19,1650.09,2290.51,1648.44,2290.51z"/>
				<path class="st4" d="M1722.17,2290.51c-22.66,0-33.99,0-56.65,0c-1.65,0-1.94-1.32-0.66-2.94c2.97-3.75,4.45-5.62,7.41-9.37
					c1.28-1.62,3.61-2.94,5.2-2.94c21.82,0,32.73,0,54.56,0c1.59,0,2.03,1.32,0.99,2.94c-2.4,3.75-3.59,5.62-5.99,9.37
					C1726,2289.19,1723.82,2290.51,1722.17,2290.51z"/>
				<path class="st4" d="M1795.89,2290.51c-22.66,0-33.99,0-56.65,0c-1.65,0-2.18-1.32-1.18-2.94c2.3-3.75,3.44-5.62,5.74-9.37
					c0.99-1.62,3.09-2.94,4.67-2.94c21.82,0,32.73,0,54.56,0c1.59,0,2.27,1.32,1.52,2.94c-1.73,3.75-2.59,5.62-4.31,9.37
					C1799.49,2289.19,1797.54,2290.51,1795.89,2290.51z"/>
				<path class="st4" d="M1869.62,2290.51c-22.66,0-33.99,0-56.65,0c-1.65,0-2.41-1.32-1.71-2.94c1.63-3.75,2.44-5.62,4.06-9.37
					c0.7-1.62,2.56-2.94,4.15-2.94c21.82,0,32.73,0,54.56,0c1.59,0,2.5,1.32,2.05,2.94c-1.06,3.75-1.58,5.62-2.64,9.37
					C1872.97,2289.19,1871.27,2290.51,1869.62,2290.51z"/>
				<path class="st4" d="M1943.34,2290.51c-22.66,0-33.99,0-56.65,0c-1.65,0-2.65-1.32-2.23-2.94c0.95-3.75,1.43-5.62,2.39-9.37
					c0.41-1.62,2.04-2.94,3.62-2.94c21.82,0,32.73,0,54.56,0c1.59,0,2.74,1.32,2.57,2.94c-0.39,3.75-0.58,5.62-0.96,9.37
					C1946.46,2289.19,1944.99,2290.51,1943.34,2290.51z"/>
				<path class="st4" d="M2017.07,2290.51c-22.66,0-33.99,0-56.65,0c-1.65,0-2.88-1.32-2.76-2.94c0.28-3.75,0.43-5.62,0.71-9.37
					c0.12-1.62,1.51-2.94,3.1-2.94c21.82,0,32.73,0,54.56,0c1.59,0,2.97,1.32,3.1,2.94c0.28,3.75,0.43,5.62,0.71,9.37
					C2019.95,2289.19,2018.72,2290.51,2017.07,2290.51z"/>
				<path class="st4" d="M2090.79,2290.51c-22.66,0-33.99,0-56.65,0c-1.65,0-3.12-1.32-3.29-2.94c-0.39-3.75-0.58-5.62-0.96-9.37
					c-0.17-1.62,0.98-2.94,2.57-2.94c21.82,0,32.73,0,54.56,0c1.59,0,3.21,1.32,3.62,2.94c0.96,3.75,1.43,5.62,2.39,9.37
					C2093.44,2289.19,2092.44,2290.51,2090.79,2290.51z"/>
				<path class="st4" d="M2164.52,2290.51c-22.66,0-33.99,0-56.65,0c-1.65,0-3.36-1.32-3.81-2.94c-1.06-3.75-1.58-5.62-2.64-9.37
					c-0.46-1.62,0.46-2.94,2.05-2.94c21.82,0,32.73,0,54.56,0c1.59,0,3.45,1.32,4.15,2.94c1.63,3.75,2.44,5.62,4.06,9.37
					C2166.93,2289.19,2166.17,2290.51,2164.52,2290.51z"/>
				<path class="st4" d="M2238.24,2290.51c-22.66,0-33.99,0-56.65,0c-1.65,0-3.59-1.32-4.34-2.94c-1.73-3.75-2.59-5.62-4.31-9.37
					c-0.75-1.62-0.07-2.94,1.52-2.94c21.82,0,32.73,0,54.56,0c1.59,0,3.68,1.32,4.68,2.94c2.3,3.75,3.44,5.62,5.74,9.37
					C2240.42,2289.19,2239.89,2290.51,2238.24,2290.51z"/>
				<path class="st4" d="M2311.97,2290.51c-22.66,0-33.99,0-56.65,0c-1.65,0-3.83-1.32-4.86-2.94c-2.4-3.75-3.59-5.62-5.99-9.37
					c-1.04-1.62-0.59-2.94,0.99-2.94c21.82,0,32.73,0,54.56,0c1.59,0,3.92,1.32,5.2,2.94c2.97,3.75,4.45,5.62,7.41,9.37
					C2313.91,2289.19,2313.62,2290.51,2311.97,2290.51z"/>
				<path class="st4" d="M2385.69,2290.51c-22.66,0-33.99,0-56.65,0c-1.65,0-4.06-1.32-5.39-2.94c-3.07-3.75-4.6-5.62-7.67-9.37
					c-1.33-1.62-1.12-2.94,0.47-2.94c21.82,0,32.73,0,54.56,0c1.59,0,4.15,1.32,5.73,2.94c3.64,3.75,5.45,5.62,9.09,9.37
					C2387.4,2289.19,2387.34,2290.51,2385.69,2290.51z"/>
				<path class="st4" d="M2459.42,2290.51c-22.66,0-33.99,0-56.65,0c-1.65,0-4.3-1.32-5.92-2.94c-3.74-3.75-5.61-5.62-9.34-9.37
					c-1.62-1.62-1.64-2.94-0.06-2.94c21.82,0,32.73,0,54.56,0c1.59,0,4.39,1.32,6.25,2.94c4.31,3.75,6.46,5.62,10.76,9.37
					C2460.89,2289.19,2461.07,2290.51,2459.42,2290.51z"/>
				<path class="st4" d="M2533.14,2290.51c-22.66,0-33.99,0-56.65,0c-1.65,0-4.53-1.32-6.44-2.94c-4.41-3.75-6.61-5.62-11.02-9.37
					c-1.91-1.62-2.17-2.94-0.58-2.94c21.82,0,32.73,0,54.56,0c1.59,0,4.62,1.32,6.78,2.94c4.98,3.75,7.46,5.62,12.44,9.37
					C2534.38,2289.19,2534.79,2290.51,2533.14,2290.51z"/>
				<path class="st4" d="M2606.87,2290.51c-22.66,0-33.99,0-56.65,0c-1.65,0-4.77-1.32-6.97-2.94c-5.08-3.75-7.62-5.62-12.69-9.37
					c-2.2-1.62-2.7-2.94-1.11-2.94c21.82,0,32.73,0,54.56,0c1.59,0,4.86,1.32,7.3,2.94c5.65,3.75,8.47,5.62,14.12,9.37
					C2607.87,2289.19,2608.52,2290.51,2606.87,2290.51z"/>
				<path class="st4" d="M2680.59,2290.51c-22.66,0-33.99,0-56.65,0c-1.65,0-5-1.32-7.49-2.94c-5.75-3.75-8.62-5.62-14.37-9.37
					c-2.49-1.62-3.22-2.94-1.64-2.94c21.82,0,32.73,0,54.56,0c1.59,0,5.09,1.32,7.83,2.94c6.32,3.75,9.47,5.62,15.79,9.37
					C2681.36,2289.19,2682.24,2290.51,2680.59,2290.51z"/>
				<path class="st4" d="M2754.32,2290.51c-22.66,0-33.99,0-56.65,0c-1.65,0-5.24-1.32-8.02-2.94c-6.42-3.75-9.63-5.62-16.04-9.37
					c-2.78-1.62-3.75-2.94-2.16-2.94c21.82,0,32.73,0,54.56,0c1.59,0,5.33,1.32,8.36,2.94c6.99,3.75,10.48,5.62,17.47,9.37
					C2754.85,2289.19,2755.97,2290.51,2754.32,2290.51z"/>
				<path class="st4" d="M2828.04,2290.51c-22.66,0-33.99,0-56.65,0c-1.65,0-5.47-1.32-8.55-2.94c-7.09-3.75-10.63-5.62-17.72-9.37
					c-3.07-1.62-4.27-2.94-2.69-2.94c21.82,0,32.73,0,54.56,0c1.59,0,5.56,1.32,8.88,2.94c7.66,3.75,11.48,5.62,19.14,9.37
					C2828.34,2289.19,2829.69,2290.51,2828.04,2290.51z"/>
				<path class="st4" d="M1151.57,2319.24c-24.24,0-36.36,0-60.6,0c-1.76,0-0.5-1.32,2.82-2.94c7.66-3.75,11.48-5.62,19.14-9.37
					c3.32-1.62,7.39-2.94,9.09-2.94c23.4,0,35.1,0,58.5,0c1.7,0,0.59,1.32-2.48,2.94c-7.09,3.75-10.63,5.62-17.72,9.37
					C1157.25,2317.93,1153.33,2319.24,1151.57,2319.24z"/>
				<path class="st4" d="M1230.43,2319.24c-24.24,0-36.36,0-60.6,0c-1.76,0-0.74-1.32,2.29-2.94c6.99-3.75,10.48-5.62,17.47-9.37
					c3.03-1.62,6.86-2.94,8.56-2.94c23.4,0,35.1,0,58.5,0c1.7,0,0.83,1.32-1.95,2.94c-6.42,3.75-9.63,5.62-16.04,9.37
					C1235.88,2317.93,1232.19,2319.24,1230.43,2319.24z"/>
				<path class="st4" d="M1309.29,2319.24c-24.24,0-36.36,0-60.6,0c-1.76,0-0.97-1.32,1.76-2.94c6.32-3.75,9.47-5.62,15.79-9.37
					c2.74-1.62,6.34-2.94,8.04-2.94c23.4,0,35.1,0,58.5,0c1.7,0,1.06,1.32-1.43,2.94c-5.75,3.75-8.62,5.62-14.37,9.37
					C1314.5,2317.93,1311.06,2319.24,1309.29,2319.24z"/>
				<path class="st4" d="M1388.15,2319.24c-24.24,0-36.36,0-60.6,0c-1.76,0-1.21-1.32,1.24-2.94c5.65-3.75,8.47-5.62,14.12-9.37
					c2.45-1.62,5.81-2.94,7.51-2.94c23.4,0,35.1,0,58.5,0c1.7,0,1.3,1.32-0.9,2.94c-5.08,3.75-7.62,5.62-12.69,9.37
					C1393.13,2317.93,1389.92,2319.24,1388.15,2319.24z"/>
				<path class="st4" d="M1467.01,2319.24c-24.24,0-36.36,0-60.6,0c-1.76,0-1.44-1.32,0.71-2.94c4.98-3.75,7.46-5.62,12.44-9.37
					c2.16-1.62,5.28-2.94,6.99-2.94c23.4,0,35.1,0,58.5,0c1.7,0,1.53,1.32-0.38,2.94c-4.41,3.75-6.61,5.62-11.02,9.37
					C1471.75,2317.93,1468.78,2319.24,1467.01,2319.24z"/>
				<path class="st4" d="M1545.88,2319.24c-24.24,0-36.36,0-60.6,0c-1.76,0-1.68-1.32,0.19-2.94c4.31-3.75,6.46-5.62,10.76-9.37
					c1.87-1.62,4.76-2.94,6.46-2.94c23.4,0,35.1,0,58.5,0c1.7,0,1.77,1.32,0.15,2.94c-3.74,3.75-5.6,5.62-9.34,9.37
					C1550.38,2317.93,1547.64,2319.24,1545.88,2319.24z"/>
				<path class="st4" d="M1624.74,2319.24c-24.24,0-36.36,0-60.6,0c-1.76,0-1.92-1.32-0.34-2.94c3.64-3.75,5.45-5.62,9.09-9.37
					c1.58-1.62,4.23-2.94,5.93-2.94c23.4,0,35.1,0,58.5,0c1.7,0,2,1.32,0.68,2.94c-3.07,3.75-4.6,5.62-7.67,9.37
					C1629.01,2317.93,1626.5,2319.24,1624.74,2319.24z"/>
				<path class="st4" d="M1703.6,2319.24c-24.24,0-36.36,0-60.6,0c-1.76,0-2.15-1.32-0.87-2.94c2.97-3.75,4.45-5.62,7.41-9.37
					c1.28-1.62,3.71-2.94,5.41-2.94c23.4,0,35.1,0,58.5,0c1.7,0,2.24,1.32,1.2,2.94c-2.4,3.75-3.59,5.62-5.99,9.37
					C1707.63,2317.93,1705.36,2319.24,1703.6,2319.24z"/>
				<path class="st4" d="M1782.46,2319.24c-24.24,0-36.36,0-60.6,0c-1.76,0-2.39-1.32-1.39-2.94c2.3-3.75,3.44-5.62,5.74-9.37
					c0.99-1.62,3.18-2.94,4.88-2.94c23.4,0,35.1,0,58.5,0c1.7,0,2.48,1.32,1.73,2.94c-1.73,3.75-2.59,5.62-4.32,9.37
					C1786.26,2317.93,1784.22,2319.24,1782.46,2319.24z"/>
				<path class="st4" d="M1861.32,2319.24c-24.24,0-36.36,0-60.6,0c-1.76,0-2.62-1.32-1.92-2.94c1.62-3.75,2.44-5.62,4.06-9.37
					c0.7-1.62,2.65-2.94,4.36-2.94c23.4,0,35.1,0,58.5,0c1.7,0,2.71,1.32,2.25,2.94c-1.06,3.75-1.58,5.62-2.64,9.37
					C1864.88,2317.93,1863.08,2319.24,1861.32,2319.24z"/>
				<path class="st4" d="M1940.18,2319.24c-24.24,0-36.36,0-60.6,0c-1.76,0-2.86-1.32-2.44-2.94c0.95-3.75,1.43-5.62,2.39-9.37
					c0.41-1.62,2.13-2.94,3.83-2.94c23.4,0,35.1,0,58.5,0c1.7,0,2.95,1.32,2.78,2.94c-0.39,3.75-0.58,5.62-0.96,9.37
					C1943.51,2317.93,1941.94,2319.24,1940.18,2319.24z"/>
				<path class="st4" d="M2019.04,2319.24c-24.24,0-36.36,0-60.6,0c-1.76,0-3.09-1.32-2.97-2.94c0.28-3.75,0.43-5.62,0.71-9.37
					c0.12-1.62,1.6-2.94,3.31-2.94c23.4,0,35.1,0,58.5,0c1.7,0,3.18,1.32,3.31,2.94c0.28,3.75,0.43,5.62,0.71,9.37
					C2022.14,2317.93,2020.81,2319.24,2019.04,2319.24z"/>
				<path class="st4" d="M2097.9,2319.24c-24.24,0-36.36,0-60.6,0c-1.76,0-3.33-1.32-3.5-2.94c-0.39-3.75-0.58-5.62-0.96-9.37
					c-0.17-1.62,1.08-2.94,2.78-2.94c23.4,0,35.1,0,58.5,0c1.7,0,3.42,1.32,3.83,2.94c0.95,3.75,1.43,5.62,2.39,9.37
					C2100.76,2317.93,2099.67,2319.24,2097.9,2319.24z"/>
				<path class="st4" d="M2176.76,2319.24c-24.24,0-36.36,0-60.6,0c-1.76,0-3.56-1.32-4.02-2.94c-1.06-3.75-1.58-5.62-2.64-9.37
					c-0.46-1.62,0.55-2.94,2.25-2.94c23.4,0,35.1,0,58.5,0c1.7,0,3.65,1.32,4.36,2.94c1.62,3.75,2.44,5.62,4.06,9.37
					C2179.39,2317.93,2178.53,2319.24,2176.76,2319.24z"/>
				<path class="st4" d="M2255.63,2319.24c-24.24,0-36.36,0-60.6,0c-1.76,0-3.8-1.32-4.55-2.94c-1.73-3.75-2.59-5.62-4.32-9.37
					c-0.75-1.62,0.03-2.94,1.73-2.94c23.4,0,35.1,0,58.5,0c1.7,0,3.89,1.32,4.88,2.94c2.3,3.75,3.44,5.62,5.74,9.37
					C2258.01,2317.93,2257.39,2319.24,2255.63,2319.24z"/>
				<path class="st4" d="M2334.49,2319.24c-24.24,0-36.36,0-60.6,0c-1.76,0-4.03-1.32-5.07-2.94c-2.4-3.75-3.59-5.62-5.99-9.37
					c-1.04-1.62-0.5-2.94,1.2-2.94c23.4,0,35.1,0,58.5,0c1.7,0,4.12,1.32,5.41,2.94c2.97,3.75,4.45,5.62,7.41,9.37
					C2336.64,2317.93,2336.25,2319.24,2334.49,2319.24z"/>
				<path class="st4" d="M2413.35,2319.24c-24.24,0-36.36,0-60.6,0c-1.76,0-4.27-1.32-5.6-2.94c-3.07-3.75-4.6-5.62-7.67-9.37
					c-1.33-1.62-1.03-2.94,0.68-2.94c23.4,0,35.1,0,58.5,0c1.7,0,4.36,1.32,5.93,2.94c3.64,3.75,5.45,5.62,9.09,9.37
					C2415.26,2317.93,2415.11,2319.24,2413.35,2319.24z"/>
				<path class="st4" d="M2492.21,2319.24c-24.24,0-36.36,0-60.6,0c-1.76,0-4.5-1.32-6.12-2.94c-3.74-3.75-5.6-5.62-9.34-9.37
					c-1.62-1.62-1.55-2.94,0.15-2.94c23.4,0,35.1,0,58.5,0c1.7,0,4.59,1.32,6.46,2.94c4.31,3.75,6.46,5.62,10.76,9.37
					C2493.89,2317.93,2493.97,2319.24,2492.21,2319.24z"/>
				<path class="st4" d="M2571.07,2319.24c-24.24,0-36.36,0-60.6,0c-1.76,0-4.74-1.32-6.65-2.94c-4.41-3.75-6.61-5.62-11.02-9.37
					c-1.91-1.62-2.08-2.94-0.38-2.94c23.4,0,35.1,0,58.5,0c1.7,0,4.83,1.32,6.99,2.94c4.98,3.75,7.46,5.62,12.44,9.37
					C2572.51,2317.93,2572.83,2319.24,2571.07,2319.24z"/>
				<path class="st4" d="M2649.93,2319.24c-24.24,0-36.36,0-60.6,0c-1.76,0-4.98-1.32-7.18-2.94c-5.08-3.75-7.62-5.62-12.69-9.37
					c-2.2-1.62-2.6-2.94-0.9-2.94c23.4,0,35.1,0,58.5,0c1.7,0,5.07,1.32,7.51,2.94c5.65,3.75,8.47,5.62,14.11,9.37
					C2651.14,2317.93,2651.69,2319.24,2649.93,2319.24z"/>
				<path class="st4" d="M2728.79,2319.24c-24.24,0-36.36,0-60.6,0c-1.76,0-5.21-1.32-7.7-2.94c-5.75-3.75-8.62-5.62-14.37-9.37
					c-2.49-1.62-3.13-2.94-1.43-2.94c23.4,0,35.1,0,58.5,0c1.7,0,5.3,1.32,8.04,2.94c6.32,3.75,9.47,5.62,15.79,9.37
					C2729.76,2317.93,2730.55,2319.24,2728.79,2319.24z"/>
				<path class="st4" d="M2807.65,2319.24c-24.24,0-36.36,0-60.6,0c-1.76,0-5.45-1.32-8.23-2.94c-6.42-3.75-9.63-5.62-16.04-9.37
					c-2.78-1.62-3.66-2.94-1.95-2.94c23.4,0,35.1,0,58.5,0c1.7,0,5.54,1.32,8.56,2.94c6.99,3.75,10.48,5.62,17.47,9.37
					C2808.39,2317.93,2809.42,2319.24,2807.65,2319.24z"/>
				<path class="st4" d="M2886.51,2319.24c-24.24,0-36.36,0-60.6,0c-1.76,0-5.68-1.32-8.75-2.94c-7.09-3.75-10.63-5.62-17.72-9.37
					c-3.07-1.62-4.18-2.94-2.48-2.94c23.4,0,35.1,0,58.5,0c1.7,0,5.77,1.32,9.09,2.94c7.66,3.75,11.48,5.62,19.14,9.37
					C2887.02,2317.93,2888.28,2319.24,2886.51,2319.24z"/>
				<path class="st4" d="M1117.29,2337.31c-25.23,0-37.85,0-63.08,0c-1.84,0-0.63-1.32,2.68-2.94c7.66-3.75,11.48-5.62,19.14-9.37
					c3.32-1.62,7.45-2.94,9.22-2.94c24.39,0,36.59,0,60.98,0c1.77,0,0.72,1.32-2.35,2.94c-7.09,3.75-10.63,5.62-17.72,9.37
					C1123.11,2335.99,1119.13,2337.31,1117.29,2337.31z"/>
				<path class="st4" d="M1199.38,2337.31c-25.23,0-37.85,0-63.08,0c-1.84,0-0.87-1.32,2.16-2.94c6.99-3.75,10.48-5.62,17.47-9.37
					c3.03-1.62,6.92-2.94,8.69-2.94c24.39,0,36.59,0,60.98,0c1.77,0,0.96,1.32-1.82,2.94c-6.42,3.75-9.63,5.62-16.04,9.37
					C1204.96,2335.99,1201.22,2337.31,1199.38,2337.31z"/>
				<path class="st4" d="M1281.47,2337.31c-25.23,0-37.85,0-63.08,0c-1.83,0-1.1-1.32,1.63-2.94c6.32-3.75,9.47-5.62,15.79-9.37
					c2.74-1.62,6.39-2.94,8.17-2.94c24.39,0,36.59,0,60.98,0c1.77,0,1.19,1.32-1.3,2.94c-5.75,3.75-8.62,5.62-14.37,9.37
					C1286.81,2335.99,1283.31,2337.31,1281.47,2337.31z"/>
				<path class="st4" d="M1363.56,2337.31c-25.23,0-37.85,0-63.08,0c-1.84,0-1.34-1.32,1.11-2.94c5.65-3.75,8.47-5.62,14.12-9.37
					c2.45-1.62,5.87-2.94,7.64-2.94c24.39,0,36.59,0,60.98,0c1.77,0,1.43,1.32-0.77,2.94c-5.08,3.75-7.61,5.62-12.69,9.37
					C1368.67,2335.99,1365.4,2337.31,1363.56,2337.31z"/>
				<path class="st4" d="M1445.65,2337.31c-25.23,0-37.85,0-63.08,0c-1.84,0-1.58-1.32,0.58-2.94c4.98-3.75,7.46-5.62,12.44-9.37
					c2.16-1.62,5.34-2.94,7.12-2.94c24.39,0,36.59,0,60.98,0c1.77,0,1.66,1.32-0.24,2.94c-4.41,3.75-6.61,5.62-11.02,9.37
					C1450.52,2335.99,1447.49,2337.31,1445.65,2337.31z"/>
				<path class="st4" d="M1527.74,2337.31c-25.23,0-37.85,0-63.08,0c-1.84,0-1.81-1.32,0.06-2.94c4.31-3.75,6.46-5.62,10.76-9.37
					c1.87-1.62,4.82-2.94,6.59-2.94c24.39,0,36.59,0,60.98,0c1.77,0,1.9,1.32,0.28,2.94c-3.74,3.75-5.6,5.62-9.34,9.37
					C1532.38,2335.99,1529.58,2337.31,1527.74,2337.31z"/>
				<path class="st4" d="M1609.83,2337.31c-25.23,0-37.85,0-63.08,0c-1.84,0-2.05-1.32-0.47-2.94c3.64-3.75,5.45-5.62,9.09-9.37
					c1.58-1.62,4.29-2.94,6.07-2.94c24.39,0,36.59,0,60.98,0c1.77,0,2.14,1.32,0.81,2.94c-3.07,3.75-4.6,5.62-7.67,9.37
					C1614.23,2335.99,1611.67,2337.31,1609.83,2337.31z"/>
				<path class="st4" d="M1691.92,2337.31c-25.23,0-37.85,0-63.08,0c-1.84,0-2.28-1.32-1-2.94c2.97-3.75,4.45-5.62,7.41-9.37
					c1.28-1.62,3.77-2.94,5.54-2.94c24.39,0,36.59,0,60.98,0c1.77,0,2.37,1.32,1.33,2.94c-2.4,3.75-3.59,5.62-5.99,9.37
					C1696.09,2335.99,1693.76,2337.31,1691.92,2337.31z"/>
				<path class="st4" d="M1774.01,2337.31c-25.23,0-37.85,0-63.08,0c-1.84,0-2.52-1.32-1.52-2.94c2.3-3.75,3.44-5.62,5.74-9.37
					c0.99-1.62,3.24-2.94,5.01-2.94c24.39,0,36.59,0,60.98,0c1.77,0,2.61,1.32,1.86,2.94c-1.73,3.75-2.59,5.62-4.31,9.37
					C1777.94,2335.99,1775.85,2337.31,1774.01,2337.31z"/>
				<path class="st4" d="M1856.1,2337.31c-25.23,0-37.85,0-63.08,0c-1.84,0-2.75-1.32-2.05-2.94c1.62-3.75,2.44-5.62,4.06-9.37
					c0.7-1.62,2.71-2.94,4.49-2.94c24.39,0,36.59,0,60.98,0c1.77,0,2.84,1.32,2.38,2.94c-1.06,3.75-1.58,5.62-2.64,9.37
					C1859.8,2335.99,1857.94,2337.31,1856.1,2337.31z"/>
				<path class="st4" d="M1938.19,2337.31c-25.23,0-37.85,0-63.08,0c-1.84,0-2.99-1.32-2.57-2.94c0.95-3.75,1.43-5.62,2.39-9.37
					c0.41-1.62,2.19-2.94,3.96-2.94c24.39,0,36.59,0,60.98,0c1.77,0,3.08,1.32,2.91,2.94c-0.39,3.75-0.58,5.62-0.96,9.37
					C1941.65,2335.99,1940.03,2337.31,1938.19,2337.31z"/>
				<path class="st4" d="M2020.28,2337.31c-25.23,0-37.85,0-63.08,0c-1.84,0-3.22-1.32-3.1-2.94c0.28-3.75,0.43-5.62,0.71-9.37
					c0.12-1.62,1.66-2.94,3.44-2.94c24.39,0,36.59,0,60.98,0c1.77,0,3.31,1.32,3.44,2.94c0.28,3.75,0.43,5.62,0.71,9.37
					C2023.51,2335.99,2022.12,2337.31,2020.28,2337.31z"/>
				<path class="st4" d="M2102.37,2337.31c-25.23,0-37.85,0-63.08,0c-1.84,0-3.46-1.32-3.63-2.94c-0.39-3.75-0.58-5.62-0.96-9.37
					c-0.17-1.62,1.14-2.94,2.91-2.94c24.39,0,36.59,0,60.98,0c1.77,0,3.55,1.32,3.96,2.94c0.95,3.75,1.43,5.62,2.39,9.37
					C2105.36,2335.99,2104.21,2337.31,2102.37,2337.31z"/>
				<path class="st4" d="M2184.46,2337.31c-25.23,0-37.85,0-63.08,0c-1.83,0-3.69-1.32-4.15-2.94c-1.06-3.75-1.58-5.62-2.64-9.37
					c-0.46-1.62,0.61-2.94,2.38-2.94c24.39,0,36.59,0,60.98,0c1.77,0,3.78,1.32,4.49,2.94c1.63,3.75,2.44,5.62,4.06,9.37
					C2187.22,2335.99,2186.3,2337.31,2184.46,2337.31z"/>
				<path class="st4" d="M2266.55,2337.31c-25.23,0-37.85,0-63.08,0c-1.84,0-3.93-1.32-4.68-2.94c-1.73-3.75-2.59-5.62-4.31-9.37
					c-0.75-1.62,0.08-2.94,1.86-2.94c24.39,0,36.59,0,60.98,0c1.77,0,4.02,1.32,5.01,2.94c2.3,3.75,3.44,5.62,5.74,9.37
					C2269.07,2335.99,2268.39,2337.31,2266.55,2337.31z"/>
				<path class="st4" d="M2348.64,2337.31c-25.23,0-37.85,0-63.08,0c-1.84,0-4.17-1.32-5.2-2.94c-2.4-3.75-3.59-5.62-5.99-9.37
					c-1.04-1.62-0.44-2.94,1.33-2.94c24.39,0,36.59,0,60.98,0c1.77,0,4.25,1.32,5.54,2.94c2.97,3.75,4.45,5.62,7.41,9.37
					C2350.92,2335.99,2350.48,2337.31,2348.64,2337.31z"/>
				<path class="st4" d="M2430.73,2337.31c-25.23,0-37.85,0-63.08,0c-1.84,0-4.4-1.32-5.73-2.94c-3.07-3.75-4.6-5.62-7.67-9.37
					c-1.33-1.62-0.97-2.94,0.81-2.94c24.39,0,36.59,0,60.98,0c1.77,0,4.49,1.32,6.06,2.94c3.64,3.75,5.45,5.62,9.09,9.37
					C2432.78,2335.99,2432.57,2337.31,2430.73,2337.31z"/>
				<path class="st4" d="M2512.82,2337.31c-25.23,0-37.85,0-63.08,0c-1.83,0-4.64-1.32-6.25-2.94c-3.74-3.75-5.6-5.62-9.34-9.37
					c-1.62-1.62-1.49-2.94,0.28-2.94c24.39,0,36.59,0,60.98,0c1.77,0,4.73,1.32,6.59,2.94c4.31,3.75,6.46,5.62,10.76,9.37
					C2514.63,2335.99,2514.66,2337.31,2512.82,2337.31z"/>
				<path class="st4" d="M2594.91,2337.31c-25.23,0-37.85,0-63.08,0c-1.83,0-4.87-1.32-6.78-2.94c-4.41-3.75-6.61-5.62-11.02-9.37
					c-1.91-1.62-2.02-2.94-0.24-2.94c24.39,0,36.59,0,60.98,0c1.77,0,4.96,1.32,7.12,2.94c4.98,3.75,7.46,5.62,12.44,9.37
					C2596.49,2335.99,2596.75,2337.31,2594.91,2337.31z"/>
				<path class="st4" d="M2677,2337.31c-25.23,0-37.85,0-63.08,0c-1.84,0-5.11-1.32-7.31-2.94c-5.08-3.75-7.61-5.62-12.69-9.37
					c-2.2-1.62-2.55-2.94-0.77-2.94c24.39,0,36.59,0,60.98,0c1.77,0,5.2,1.32,7.64,2.94c5.65,3.75,8.47,5.62,14.11,9.37
					C2678.34,2335.99,2678.84,2337.31,2677,2337.31z"/>
				<path class="st4" d="M2759.09,2337.31c-25.23,0-37.85,0-63.08,0c-1.84,0-5.34-1.32-7.83-2.94c-5.75-3.75-8.62-5.62-14.37-9.37
					c-2.49-1.62-3.07-2.94-1.3-2.94c24.39,0,36.59,0,60.98,0c1.77,0,5.43,1.32,8.17,2.94c6.32,3.75,9.47,5.62,15.79,9.37
					C2760.2,2335.99,2760.93,2337.31,2759.09,2337.31z"/>
				<path class="st4" d="M2841.18,2337.31c-25.23,0-37.85,0-63.08,0c-1.84,0-5.58-1.32-8.36-2.94c-6.42-3.75-9.63-5.62-16.04-9.37
					c-2.78-1.62-3.6-2.94-1.82-2.94c24.39,0,36.59,0,60.98,0c1.77,0,5.67,1.32,8.69,2.94c6.99,3.75,10.48,5.62,17.47,9.37
					C2842.05,2335.99,2843.02,2337.31,2841.18,2337.31z"/>
				<path class="st4" d="M2923.27,2337.31c-25.23,0-37.85,0-63.08,0c-1.84,0-5.81-1.32-8.88-2.94c-7.09-3.75-10.63-5.62-17.72-9.37
					c-3.07-1.62-4.12-2.94-2.35-2.94c24.39,0,36.59,0,60.98,0c1.77,0,5.9,1.32,9.22,2.94c7.66,3.75,11.48,5.62,19.14,9.37
					C2923.91,2335.99,2925.11,2337.31,2923.27,2337.31z"/>
				<path class="st4" d="M1083.02,2355.38c-26.22,0-39.34,0-65.56,0c-1.91,0-0.76-1.32,2.55-2.94c7.66-3.75,11.48-5.62,19.14-9.37
					c3.32-1.62,7.5-2.94,9.35-2.94c25.39,0,38.08,0,63.47,0c1.85,0,0.85,1.32-2.22,2.94c-7.09,3.75-10.63,5.62-17.72,9.37
					C1088.96,2354.06,1084.92,2355.38,1083.02,2355.38z"/>
				<path class="st4" d="M1168.33,2355.38c-26.22,0-39.34,0-65.56,0c-1.91,0-1-1.32,2.03-2.94c6.99-3.75,10.48-5.62,17.47-9.37
					c3.03-1.62,6.98-2.94,8.83-2.94c25.39,0,38.08,0,63.46,0c1.85,0,1.09,1.32-1.69,2.94c-6.42,3.75-9.63,5.62-16.04,9.37
					C1174.04,2354.06,1170.24,2355.38,1168.33,2355.38z"/>
				<path class="st4" d="M1253.65,2355.38c-26.22,0-39.34,0-65.56,0c-1.91,0-1.23-1.32,1.5-2.94c6.32-3.75,9.47-5.62,15.79-9.37
					c2.74-1.62,6.45-2.94,8.3-2.94c25.39,0,38.08,0,63.46,0c1.85,0,1.32,1.32-1.17,2.94c-5.75,3.75-8.62,5.62-14.37,9.37
					C1259.13,2354.06,1255.56,2355.38,1253.65,2355.38z"/>
				<path class="st4" d="M1338.97,2355.38c-26.22,0-39.34,0-65.56,0c-1.91,0-1.47-1.32,0.98-2.94c5.65-3.75,8.47-5.62,14.12-9.37
					c2.45-1.62,5.93-2.94,7.77-2.94c25.39,0,38.08,0,63.46,0c1.85,0,1.56,1.32-0.64,2.94c-5.08,3.75-7.61,5.62-12.69,9.37
					C1344.21,2354.06,1340.88,2355.38,1338.97,2355.38z"/>
				<path class="st4" d="M1424.29,2355.38c-26.22,0-39.34,0-65.56,0c-1.91,0-1.71-1.32,0.45-2.94c4.98-3.75,7.46-5.62,12.44-9.37
					c2.16-1.62,5.4-2.94,7.25-2.94c25.39,0,38.08,0,63.46,0c1.85,0,1.8,1.32-0.11,2.94c-4.41,3.75-6.61,5.62-11.02,9.37
					C1429.29,2354.06,1426.2,2355.38,1424.29,2355.38z"/>
				<path class="st4" d="M1509.61,2355.38c-26.22,0-39.34,0-65.56,0c-1.91,0-1.94-1.32-0.08-2.94c4.31-3.75,6.46-5.62,10.76-9.37
					c1.87-1.62,4.88-2.94,6.72-2.94c25.39,0,38.08,0,63.46,0c1.85,0,2.03,1.32,0.41,2.94c-3.74,3.75-5.6,5.62-9.34,9.37
					C1514.38,2354.06,1511.52,2355.38,1509.61,2355.38z"/>
				<path class="st4" d="M1594.93,2355.38c-26.22,0-39.34,0-65.56,0c-1.91,0-2.18-1.32-0.6-2.94c3.64-3.75,5.45-5.62,9.09-9.37
					c1.58-1.62,4.35-2.94,6.2-2.94c25.39,0,38.08,0,63.47,0c1.85,0,2.27,1.32,0.94,2.94c-3.07,3.75-4.6,5.62-7.67,9.37
					C1599.46,2354.06,1596.84,2355.38,1594.93,2355.38z"/>
				<path class="st4" d="M1680.25,2355.38c-26.22,0-39.34,0-65.56,0c-1.91,0-2.41-1.32-1.13-2.94c2.97-3.75,4.45-5.62,7.41-9.37
					c1.28-1.62,3.82-2.94,5.67-2.94c25.39,0,38.08,0,63.46,0c1.85,0,2.5,1.32,1.46,2.94c-2.4,3.75-3.59,5.62-5.99,9.37
					C1684.54,2354.06,1682.16,2355.38,1680.25,2355.38z"/>
				<path class="st4" d="M1765.57,2355.38c-26.22,0-39.34,0-65.56,0c-1.91,0-2.65-1.32-1.65-2.94c2.3-3.75,3.44-5.62,5.74-9.37
					c0.99-1.62,3.3-2.94,5.14-2.94c25.39,0,38.08,0,63.46,0c1.85,0,2.74,1.32,1.99,2.94c-1.73,3.75-2.59,5.62-4.32,9.37
					C1769.63,2354.06,1767.47,2355.38,1765.57,2355.38z"/>
				<path class="st4" d="M1850.89,2355.38c-26.22,0-39.34,0-65.56,0c-1.91,0-2.88-1.32-2.18-2.94c1.63-3.75,2.44-5.62,4.06-9.37
					c0.7-1.62,2.77-2.94,4.62-2.94c25.39,0,38.08,0,63.46,0c1.85,0,2.97,1.32,2.52,2.94c-1.06,3.75-1.58,5.62-2.64,9.37
					C1854.71,2354.06,1852.79,2355.38,1850.89,2355.38z"/>
				<path class="st4" d="M1936.2,2355.38c-26.22,0-39.34,0-65.56,0c-1.91,0-3.12-1.32-2.7-2.94c0.96-3.75,1.43-5.62,2.39-9.37
					c0.41-1.62,2.25-2.94,4.09-2.94c25.39,0,38.08,0,63.46,0c1.85,0,3.21,1.32,3.04,2.94c-0.39,3.75-0.58,5.62-0.96,9.37
					C1939.79,2354.06,1938.11,2355.38,1936.2,2355.38z"/>
				<path class="st4" d="M2021.52,2355.38c-26.22,0-39.34,0-65.56,0c-1.91,0-3.35-1.32-3.23-2.94c0.28-3.75,0.43-5.62,0.71-9.37
					c0.12-1.62,1.72-2.94,3.57-2.94c25.39,0,38.08,0,63.46,0c1.85,0,3.44,1.32,3.57,2.94c0.28,3.75,0.43,5.62,0.71,9.37
					C2024.88,2354.06,2023.43,2355.38,2021.52,2355.38z"/>
				<path class="st4" d="M2106.84,2355.38c-26.22,0-39.34,0-65.56,0c-1.91,0-3.59-1.32-3.76-2.94c-0.39-3.75-0.58-5.62-0.96-9.37
					c-0.17-1.62,1.19-2.94,3.04-2.94c25.39,0,38.08,0,63.46,0c1.85,0,3.68,1.32,4.09,2.94c0.95,3.75,1.43,5.62,2.39,9.37
					C2109.96,2354.06,2108.75,2355.38,2106.84,2355.38z"/>
				<path class="st4" d="M2192.16,2355.38c-26.22,0-39.34,0-65.56,0c-1.91,0-3.82-1.32-4.28-2.94c-1.06-3.75-1.58-5.62-2.64-9.37
					c-0.46-1.62,0.67-2.94,2.52-2.94c25.39,0,38.08,0,63.46,0c1.85,0,3.91,1.32,4.62,2.94c1.62,3.75,2.44,5.62,4.06,9.37
					C2195.04,2354.06,2194.07,2355.38,2192.16,2355.38z"/>
				<path class="st4" d="M2277.48,2355.38c-26.22,0-39.34,0-65.56,0c-1.91,0-4.06-1.32-4.81-2.94c-1.73-3.75-2.59-5.62-4.31-9.37
					c-0.75-1.62,0.14-2.94,1.99-2.94c25.39,0,38.08,0,63.46,0c1.85,0,4.15,1.32,5.14,2.94c2.3,3.75,3.44,5.62,5.74,9.37
					C2280.13,2354.06,2279.39,2355.38,2277.48,2355.38z"/>
				<path class="st4" d="M2362.8,2355.38c-26.22,0-39.34,0-65.56,0c-1.91,0-4.3-1.32-5.33-2.94c-2.4-3.75-3.59-5.62-5.99-9.37
					c-1.04-1.62-0.38-2.94,1.46-2.94c25.39,0,38.08,0,63.46,0c1.85,0,4.39,1.32,5.67,2.94c2.96,3.75,4.45,5.62,7.41,9.37
					C2365.21,2354.06,2364.71,2355.38,2362.8,2355.38z"/>
				<path class="st4" d="M2448.12,2355.38c-26.22,0-39.34,0-65.56,0c-1.91,0-4.53-1.32-5.86-2.94c-3.07-3.75-4.6-5.62-7.67-9.37
					c-1.33-1.62-0.91-2.94,0.94-2.94c25.39,0,38.08,0,63.46,0c1.85,0,4.62,1.32,6.2,2.94c3.64,3.75,5.45,5.62,9.09,9.37
					C2450.29,2354.06,2450.02,2355.38,2448.12,2355.38z"/>
				<path class="st4" d="M2533.44,2355.38c-26.22,0-39.34,0-65.56,0c-1.91,0-4.77-1.32-6.39-2.94c-3.74-3.75-5.6-5.62-9.34-9.37
					c-1.62-1.62-1.43-2.94,0.41-2.94c25.39,0,38.08,0,63.47,0c1.85,0,4.86,1.32,6.72,2.94c4.31,3.75,6.46,5.62,10.76,9.37
					C2535.38,2354.06,2535.34,2355.38,2533.44,2355.38z"/>
				<path class="st4" d="M2618.75,2355.38c-26.22,0-39.34,0-65.56,0c-1.91,0-5-1.32-6.91-2.94c-4.41-3.75-6.61-5.62-11.02-9.37
					c-1.91-1.62-1.96-2.94-0.11-2.94c25.39,0,38.08,0,63.47,0c1.85,0,5.09,1.32,7.25,2.94c4.98,3.75,7.46,5.62,12.44,9.37
					C2620.46,2354.06,2620.66,2355.38,2618.75,2355.38z"/>
				<path class="st4" d="M2704.07,2355.38c-26.22,0-39.34,0-65.56,0c-1.91,0-5.24-1.32-7.44-2.94c-5.08-3.75-7.62-5.62-12.69-9.37
					c-2.2-1.62-2.49-2.94-0.64-2.94c25.39,0,38.08,0,63.46,0c1.85,0,5.33,1.32,7.77,2.94c5.65,3.75,8.47,5.62,14.11,9.37
					C2705.54,2354.06,2705.98,2355.38,2704.07,2355.38z"/>
				<path class="st4" d="M2789.39,2355.38c-26.22,0-39.34,0-65.56,0c-1.91,0-5.47-1.32-7.96-2.94c-5.75-3.75-8.62-5.62-14.37-9.37
					c-2.49-1.62-3.01-2.94-1.17-2.94c25.39,0,38.08,0,63.47,0c1.85,0,5.56,1.32,8.3,2.94c6.32,3.75,9.47,5.62,15.79,9.37
					C2790.63,2354.06,2791.3,2355.38,2789.39,2355.38z"/>
				<path class="st4" d="M2874.71,2355.38c-26.22,0-39.34,0-65.56,0c-1.91,0-5.71-1.32-8.49-2.94c-6.42-3.75-9.63-5.62-16.04-9.37
					c-2.78-1.62-3.54-2.94-1.69-2.94c25.39,0,38.08,0,63.46,0c1.85,0,5.8,1.32,8.82,2.94c6.99,3.75,10.48,5.62,17.47,9.37
					C2875.71,2354.06,2876.62,2355.38,2874.71,2355.38z"/>
				<path class="st4" d="M2960.03,2355.38c-26.22,0-39.34,0-65.56,0c-1.91,0-5.94-1.32-9.01-2.94c-7.09-3.75-10.63-5.62-17.72-9.37
					c-3.07-1.62-4.06-2.94-2.22-2.94c25.39,0,38.08,0,63.46,0c1.85,0,6.03,1.32,9.35,2.94c7.66,3.75,11.49,5.62,19.14,9.37
					C2960.79,2354.06,2961.94,2355.38,2960.03,2355.38z"/>
				<path class="st4" d="M1048.74,2373.44c-27.22,0-40.82,0-68.04,0c-1.98,0-0.9-1.32,2.42-2.94c7.66-3.75,11.48-5.62,19.14-9.37
					c3.32-1.63,7.56-2.94,9.48-2.94c26.38,0,39.57,0,65.95,0c1.92,0,0.98,1.32-2.09,2.94c-7.09,3.75-10.63,5.62-17.72,9.37
					C1054.81,2372.12,1050.72,2373.44,1048.74,2373.44z"/>
				<path class="st4" d="M1137.29,2373.44c-27.22,0-40.83,0-68.04,0c-1.98,0-1.13-1.32,1.9-2.94c6.99-3.75,10.48-5.62,17.47-9.37
					c3.03-1.63,7.04-2.94,8.96-2.94c26.38,0,39.57,0,65.95,0c1.92,0,1.22,1.32-1.56,2.94c-6.42,3.75-9.63,5.62-16.04,9.37
					C1143.12,2372.12,1139.27,2373.44,1137.29,2373.44z"/>
				<path class="st4" d="M1225.83,2373.44c-27.22,0-40.83,0-68.04,0c-1.98,0-1.37-1.32,1.37-2.94c6.32-3.75,9.47-5.62,15.79-9.37
					c2.74-1.62,6.51-2.94,8.43-2.94c26.38,0,39.57,0,65.95,0c1.92,0,1.46,1.32-1.04,2.94c-5.75,3.75-8.62,5.62-14.37,9.37
					C1231.44,2372.12,1227.81,2373.44,1225.83,2373.44z"/>
				<path class="st4" d="M1314.38,2373.44c-27.22,0-40.83,0-68.04,0c-1.98,0-1.6-1.32,0.85-2.94c5.65-3.75,8.47-5.62,14.12-9.37
					c2.45-1.62,5.99-2.94,7.9-2.94c26.38,0,39.57,0,65.95,0c1.92,0,1.69,1.32-0.51,2.94c-5.08,3.75-7.62,5.62-12.69,9.37
					C1319.75,2372.12,1316.36,2373.44,1314.38,2373.44z"/>
				<path class="st4" d="M1402.93,2373.44c-27.22,0-40.83,0-68.04,0c-1.98,0-1.84-1.32,0.32-2.94c4.98-3.75,7.46-5.62,12.44-9.37
					c2.16-1.62,5.46-2.94,7.38-2.94c26.38,0,39.57,0,65.95,0c1.92,0,1.93,1.32,0.02,2.94c-4.41,3.75-6.61,5.62-11.02,9.37
					C1408.06,2372.12,1404.91,2373.44,1402.93,2373.44z"/>
				<path class="st4" d="M1491.48,2373.44c-27.22,0-40.83,0-68.04,0c-1.98,0-2.07-1.32-0.21-2.94c4.31-3.75,6.46-5.62,10.76-9.37
					c1.87-1.62,4.93-2.94,6.85-2.94c26.38,0,39.57,0,65.95,0c1.92,0,2.16,1.32,0.54,2.94c-3.74,3.75-5.6,5.62-9.34,9.37
					C1496.37,2372.12,1493.46,2373.44,1491.48,2373.44z"/>
				<path class="st4" d="M1580.02,2373.44c-27.22,0-40.83,0-68.04,0c-1.98,0-2.31-1.32-0.73-2.94c3.64-3.75,5.45-5.62,9.09-9.37
					c1.58-1.63,4.41-2.94,6.33-2.94c26.38,0,39.57,0,65.95,0c1.92,0,2.4,1.32,1.07,2.94c-3.07,3.75-4.6,5.62-7.67,9.37
					C1584.69,2372.12,1582,2373.44,1580.02,2373.44z"/>
				<path class="st4" d="M1668.57,2373.44c-27.22,0-40.82,0-68.04,0c-1.98,0-2.54-1.32-1.26-2.94c2.97-3.75,4.45-5.62,7.41-9.37
					c1.28-1.63,3.88-2.94,5.8-2.94c26.38,0,39.57,0,65.95,0c1.92,0,2.63,1.32,1.59,2.94c-2.4,3.75-3.59,5.62-5.99,9.37
					C1673,2372.12,1670.55,2373.44,1668.57,2373.44z"/>
				<path class="st4" d="M1757.12,2373.44c-27.22,0-40.82,0-68.04,0c-1.98,0-2.78-1.32-1.78-2.94c2.3-3.75,3.44-5.62,5.74-9.37
					c0.99-1.63,3.36-2.94,5.28-2.94c26.38,0,39.57,0,65.95,0c1.92,0,2.87,1.32,2.12,2.94c-1.73,3.75-2.59,5.62-4.31,9.37
					C1761.31,2372.12,1759.1,2373.44,1757.12,2373.44z"/>
				<path class="st4" d="M1845.67,2373.44c-27.22,0-40.82,0-68.04,0c-1.98,0-3.01-1.32-2.31-2.94c1.63-3.75,2.44-5.62,4.06-9.37
					c0.7-1.62,2.83-2.94,4.75-2.94c26.38,0,39.57,0,65.95,0c1.92,0,3.1,1.32,2.65,2.94c-1.06,3.75-1.58,5.62-2.64,9.37
					C1849.62,2372.12,1847.65,2373.44,1845.67,2373.44z"/>
				<path class="st4" d="M1934.22,2373.44c-27.22,0-40.83,0-68.04,0c-1.98,0-3.25-1.32-2.84-2.94c0.95-3.75,1.43-5.62,2.39-9.37
					c0.41-1.62,2.3-2.94,4.22-2.94c26.38,0,39.57,0,65.95,0c1.92,0,3.34,1.32,3.17,2.94c-0.39,3.75-0.58,5.62-0.96,9.37
					C1937.94,2372.12,1936.2,2373.44,1934.22,2373.44z"/>
				<path class="st4" d="M2022.76,2373.44c-27.22,0-40.83,0-68.04,0c-1.98,0-3.48-1.32-3.36-2.94c0.28-3.75,0.43-5.62,0.71-9.37
					c0.12-1.63,1.78-2.94,3.7-2.94c26.38,0,39.57,0,65.95,0c1.92,0,3.57,1.32,3.7,2.94c0.28,3.75,0.43,5.62,0.71,9.37
					C2026.25,2372.12,2024.74,2373.44,2022.76,2373.44z"/>
				<path class="st4" d="M2111.31,2373.44c-27.22,0-40.83,0-68.04,0c-1.98,0-3.72-1.32-3.89-2.94c-0.39-3.75-0.58-5.62-0.96-9.37
					c-0.17-1.63,1.25-2.94,3.17-2.94c26.38,0,39.57,0,65.95,0c1.92,0,3.81,1.32,4.22,2.94c0.95,3.75,1.43,5.62,2.39,9.37
					C2114.56,2372.12,2113.29,2373.44,2111.31,2373.44z"/>
				<path class="st4" d="M2199.86,2373.44c-27.22,0-40.82,0-68.04,0c-1.98,0-3.96-1.32-4.41-2.94c-1.06-3.75-1.58-5.62-2.64-9.37
					c-0.46-1.62,0.73-2.94,2.65-2.94c26.38,0,39.57,0,65.95,0c1.92,0,4.05,1.32,4.75,2.94c1.63,3.75,2.44,5.62,4.06,9.37
					C2202.87,2372.12,2201.84,2373.44,2199.86,2373.44z"/>
				<path class="st4" d="M2288.41,2373.44c-27.22,0-40.82,0-68.04,0c-1.98,0-4.19-1.32-4.94-2.94c-1.73-3.75-2.59-5.62-4.31-9.37
					c-0.75-1.62,0.2-2.94,2.12-2.94c26.38,0,39.57,0,65.95,0c1.92,0,4.28,1.32,5.27,2.94c2.3,3.75,3.44,5.62,5.74,9.37
					C2291.19,2372.12,2290.39,2373.44,2288.41,2373.44z"/>
				<path class="st4" d="M2376.95,2373.44c-27.22,0-40.82,0-68.04,0c-1.98,0-4.43-1.32-5.46-2.94c-2.4-3.75-3.59-5.62-5.99-9.37
					c-1.04-1.63-0.32-2.94,1.59-2.94c26.38,0,39.57,0,65.95,0c1.92,0,4.52,1.32,5.8,2.94c2.97,3.75,4.45,5.62,7.41,9.37
					C2379.5,2372.12,2378.93,2373.44,2376.95,2373.44z"/>
				<path class="st4" d="M2465.5,2373.44c-27.22,0-40.83,0-68.04,0c-1.98,0-4.66-1.32-5.99-2.94c-3.07-3.75-4.6-5.62-7.67-9.37
					c-1.33-1.63-0.85-2.94,1.07-2.94c26.38,0,39.57,0,65.95,0c1.92,0,4.75,1.32,6.33,2.94c3.64,3.75,5.45,5.62,9.09,9.37
					C2467.81,2372.12,2467.48,2373.44,2465.5,2373.44z"/>
				<path class="st4" d="M2554.05,2373.44c-27.22,0-40.83,0-68.04,0c-1.98,0-4.9-1.32-6.52-2.94c-3.74-3.75-5.6-5.62-9.34-9.37
					c-1.62-1.62-1.38-2.94,0.54-2.94c26.38,0,39.57,0,65.95,0c1.92,0,4.99,1.32,6.85,2.94c4.31,3.75,6.46,5.62,10.76,9.37
					C2556.12,2372.12,2556.03,2373.44,2554.05,2373.44z"/>
				<path class="st4" d="M2642.6,2373.44c-27.22,0-40.83,0-68.04,0c-1.98,0-5.13-1.32-7.04-2.94c-4.41-3.75-6.61-5.62-11.02-9.37
					c-1.91-1.62-1.9-2.94,0.02-2.94c26.38,0,39.57,0,65.95,0c1.92,0,5.22,1.32,7.38,2.94c4.98,3.75,7.46,5.62,12.44,9.37
					C2644.43,2372.12,2644.58,2373.44,2642.6,2373.44z"/>
				<path class="st4" d="M2731.15,2373.44c-27.22,0-40.82,0-68.04,0c-1.98,0-5.37-1.32-7.57-2.94c-5.08-3.75-7.62-5.62-12.69-9.37
					c-2.2-1.62-2.43-2.94-0.51-2.94c26.38,0,39.57,0,65.95,0c1.92,0,5.46,1.32,7.9,2.94c5.65,3.75,8.47,5.62,14.11,9.37
					C2732.75,2372.12,2733.13,2373.44,2731.15,2373.44z"/>
				<path class="st4" d="M2819.69,2373.44c-27.22,0-40.82,0-68.04,0c-1.98,0-5.6-1.32-8.09-2.94c-5.75-3.75-8.62-5.62-14.37-9.37
					c-2.49-1.62-2.95-2.94-1.04-2.94c26.38,0,39.57,0,65.95,0c1.92,0,5.69,1.32,8.43,2.94c6.32,3.75,9.47,5.63,15.79,9.37
					C2821.06,2372.12,2821.67,2373.44,2819.69,2373.44z"/>
				<path class="st4" d="M2908.24,2373.44c-27.22,0-40.83,0-68.04,0c-1.98,0-5.84-1.32-8.62-2.94c-6.42-3.75-9.63-5.62-16.04-9.37
					c-2.78-1.63-3.48-2.94-1.56-2.94c26.38,0,39.57,0,65.95,0c1.92,0,5.93,1.32,8.96,2.94c6.99,3.75,10.48,5.62,17.47,9.37
					C2909.37,2372.12,2910.22,2373.44,2908.24,2373.44z"/>
				<path class="st4" d="M2996.79,2373.44c-27.22,0-40.82,0-68.04,0c-1.98,0-6.07-1.32-9.15-2.94c-7.09-3.75-10.63-5.62-17.72-9.37
					c-3.07-1.63-4.01-2.94-2.09-2.94c26.38,0,39.57,0,65.95,0c1.92,0,6.16,1.32,9.48,2.94c7.66,3.75,11.48,5.62,19.14,9.37
					C2997.68,2372.12,2998.77,2373.44,2996.79,2373.44z"/>
			</g>
		</g>
		<g>
			<path class="st10" d="M2486.11,2030.88l13.32-7.83c36.3-21.34,48.54-68.51,27.2-104.82l-180.87-307.63
				c-21.35-36.3-68.51-48.54-104.82-27.2l-13.32,7.83c-36.3,21.34-48.54,68.51-27.2,104.82l180.87,307.63
				C2402.64,2039.98,2449.8,2052.22,2486.11,2030.88z"/>
			<path class="st7" d="M2318.04,1623.85c0,0-5.35,194.5-6.34,261.47l-47.82-81.34L2318.04,1623.85z"/>
			<polygon class="st7" points="2464.95,1813.81 2405.49,1917.59 2452.09,1791.95 			"/>
			<g>
				<path class="st10" d="M1540.23,2030.88l-13.32-7.83c-36.3-21.34-48.54-68.51-27.2-104.82l180.87-307.63
					c21.34-36.3,68.51-48.54,104.82-27.2l13.32,7.83c36.3,21.34,48.54,68.51,27.2,104.82l-180.87,307.63
					C1623.7,2039.98,1576.53,2052.22,1540.23,2030.88z"/>
				<path class="st7" d="M1708.3,1623.85c0,0,5.35,194.5,6.34,261.47l47.82-81.34L1708.3,1623.85z"/>
				<polygon class="st7" points="1561.39,1813.81 1620.85,1917.59 1574.24,1791.95 				"/>
				<path class="st10" d="M1635.76,2016.28c-77.88,116.35-186.3,51.07-209.93-22.14l-53.78-200.55
					c-17.92-28.56-26.21-92.95,9.46-115.33l13.09-8.21c35.67-22.38,84.39,3.87,102.31,32.43c0,0,90.01,139.53,116.99,189.77
					C1643.7,1947.77,1637.27,1984.41,1635.76,2016.28z"/>
				<path class="st10" d="M1478.83,1662.63c3.22,4.58,26.5,37.56,26.56,43.52c0.21,21.66-18.94,48.58-50.54,68.04
					c-31.18,19.2-74.66,30.25-90.36,23.11c-4.02-1.83-24.39-34.76-26.84-38.29c-9.31-13.38,18.54-41.62,57.81-68.03
					C1434.73,1664.58,1473.46,1654.98,1478.83,1662.63z"/>
				<path class="st7" d="M1381.15,1740.95c-10.69,3.48-28.87,2.54-28.87,2.54c0.31-10.57,29.96-46.11,61.59-60.89
					c31.63-14.78,50.41-14.5,52.19-11.75c1.79,2.75-2,21.14-29.06,43.39C1403.25,1733.65,1381.15,1740.95,1381.15,1740.95z"/>
				<g>
					<path class="st11" d="M1212.99,1610.52c-42.49-16.14-78.89-22.16-104.78-32.97s-44.48-20.94-57.35-28.5
						c-12.87-7.56,13.94-35.04,38.58-25.56c24.64,9.48,53.45,22.99,57.7,24.43c4.26,1.44,93.04,8,93.04,8
						S1251.06,1599.16,1212.99,1610.52z"/>
					<path class="st11" d="M1242.11,1600.79c-39.67-22.19-74.79-33.48-98.81-47.97c-24.02-14.49-40.93-27.24-52.55-36.6
						c-11.62-9.36,18.92-32.62,41.91-19.63c22.99,12.99,49.5,30.57,53.5,32.62c4,2.05,90.86,21.55,90.86,21.55
						S1281.44,1595.13,1242.11,1600.79z"/>
					<path class="st11" d="M1355.55,1732.19c55.04-23.11,102.22-52.58,97.55-76.07c-4.68-23.5-35.93-84.64-44.59-95.14
						c-8.65-10.5-62-38.51-76.05-48.2c-14.05-9.69-27.53-41.25-36.07-56.58c-8.54-15.33-25.2-2-28.69,5.37
						c-6.63,14-10.69,39.84,0.84,53.67c11.54,13.83,29.14,31.59,29.14,31.59l-83.58-8.51c0,0,5.65,123.83,24.82,150.3
						C1264.96,1698.28,1355.55,1732.19,1355.55,1732.19z"/>
					<path class="st12" d="M1108.21,1577.54c25.89,10.82,62.28,16.83,104.78,32.97c13.8-4.12,42.77,3.03,46.56-5.89
						c-30.31-8.16-95.5-21.21-98.61-22.26c-4.26-1.44-33.06-14.95-57.71-24.43c-10.52-4.05-21.41-1.34-29.46,3.66
						C1083.46,1566.56,1094.84,1571.96,1108.21,1577.54z"/>
					<path class="st12" d="M1297.68,1546.83c12.33,23.86,26.59,40.15,26.59,40.15c-20.97-17.23-34.14-41.25-34.14-41.25
						L1297.68,1546.83z"/>
					<path class="st11" d="M1226.09,1648.87c-42.49-16.14-78.89-22.16-104.78-32.97c-25.89-10.82-44.48-20.94-57.35-28.5
						c-12.87-7.56,13.94-35.04,38.58-25.56c24.64,9.48,53.45,22.99,57.7,24.43s101.09,18.69,101.09,18.69
						S1264.17,1637.51,1226.09,1648.87z"/>
					<path class="st12" d="M1255.34,1633.44c-22.97,1.1-53.98-0.57-56.39-1.42c-4.17-1.48-31.07-15.53-55.2-25.24
						c-12.46-5.01-25.67-2.55-33.77,4.2c4.23,1.91,6.63,2.95,11.33,4.91c25.89,10.82,62.28,16.83,104.78,32.97
						C1240.05,1644.7,1251.59,1642.47,1255.34,1633.44z"/>
					<path class="st11" d="M1261.46,1697.69c-41.62-16.53-77.37-23-102.71-34.04c-25.34-11.04-43.5-21.29-56.06-28.93
						c-12.56-7.64,14.25-34.3,38.38-24.6c24.13,9.71,52.3,23.44,56.48,24.92c4.17,1.48,84.21-2.98,84.21-2.98
						S1299.13,1687.07,1261.46,1697.69z"/>
					<path class="st12" d="M1113.25,1533.21c0,0,47.04,21.34,53.56,23.69c6.52,2.35,89.43,18.12,89.43,18.12
						s-82.9-20.91-88.54-21.92s-64.59-27.27-64.59-27.27L1113.25,1533.21z"/>
					<path class="st12" d="M1328.05,1633.54c0,0,40.1-5.04,54.03,2.49c13.92,7.53,35.62,40.35,35.62,40.35
						c-14.38-27.08-27.14-40.55-35.15-45.96C1374.53,1625.01,1328.05,1633.54,1328.05,1633.54z"/>
				</g>
				<path class="st11" d="M1453.1,1656.11l12.46,20.9c-4.94,34.32-70.98,67.14-103.02,66.44c-5.88-9.3-6.99-11.27-6.99-11.27
					l14.4-32.96L1453.1,1656.11z"/>
				<path class="st7" d="M1504.51,1714.31c-6.98,23.25-24.09,41.43-24.09,41.43c19.31-12.82,30.83-30.88,30.83-30.88
					L1504.51,1714.31z"/>
			</g>
			<path class="st10" d="M2322.74,1587.15c-5.79-6.85-212.85-94.31-212.85-94.31l-97.32,6.61l-97.32-6.61
				c0,0-207.06,87.46-212.85,94.31c-3.5,10.76,15.8,136.38,38.06,269.65c24.62,147.4,4.38,304.15,9.36,325.18
				c122.11,0,211.76,0,251.43,0c14.76,0,22.65,0,22.65,0c39.67,0,129.32,0,251.43,0c4.98-21.03-15.26-177.78,9.36-325.18
				C2306.94,1723.53,2326.24,1597.91,2322.74,1587.15z"/>
			<path class="st7" d="M2110.44,1543.27c-64.25,3.84-129.94,4.95-197.23,0.07c-8.52-0.62-12.36-13-12.36-22.81v-45.08
				c0-10.17,10.18-19.58,18.88-20.25c65.63-5.12,119.12-10.04,184.93-0.55c8.44,1.22,18.18,10.08,18.18,20.05v45.74
				C2122.83,1530.28,2118.98,1542.76,2110.44,1543.27z"/>
			<path class="st11" d="M2012.19,1546.58v-12.91c-52.16,0-94.83-0.26-94.83-52.42v-85.7c0-42.11,34.46-76.57,76.57-76.57h36.53
				c42.11,0,76.57,34.46,76.57,76.57v85.7C2107.02,1533.41,2064.35,1546.58,2012.19,1546.58z"/>
			<path class="st12" d="M2030.45,1318.98h-36.53c-42.11,0-76.57,34.46-76.57,76.57v63.63c20.87,5.9,44.43,9.43,70.6,9.43
				c48.29,0,88.11-11.4,119.07-29.09v-43.97C2107.02,1353.44,2072.57,1318.98,2030.45,1318.98z"/>
			<path class="st11" d="M1723.87,1148.21c2-31.17,28.89-54.81,60.06-52.81c31.17,2,54.81,28.89,52.81,60.06
				c-2,31.17-10.99,93.97-42.16,91.97C1763.41,1245.43,1721.86,1179.38,1723.87,1148.21z"/>
			<path class="st11" d="M2275.82,1179.96c2-31.17-21.64-58.06-52.81-60.06c-31.17-2-58.06,21.64-60.06,52.81
				c-2,31.17-1.12,94.61,30.05,96.61C2224.17,1271.32,2273.82,1211.13,2275.82,1179.96z"/>
			<path class="st11" d="M2185.34,1328.26c4.99-22.91,3.91-159.54,38.24-302.39c25.87-107.64-89.82-202.82-202.43-210.05
				c-113.71-7.3-248.24,101.68-228.31,212c24.8,137.27,9.8,211.81,8.65,298.32c-0.48,35.96,59.85,113.66,179.1,121.31
				C2099.83,1455.1,2171.93,1389.81,2185.34,1328.26z"/>
			<path class="st4" d="M2231.74,923.49c-20.03,7.69-64.29,6.43-77.3,3.48c-13.01-2.95-62.02-53.61-143.21-47.21
				c-97.17,33.36-112.87,47.66-182.14,41.1c-69.27-6.56-107.94-48.29-110.01-92.77c-2.07-44.48,35.55-82.19,44.66-81.6
				s-0.49,29.53,42.79,13.31c43.28-16.23,180.77-85.53,289.57-58.84c108.8,26.7,158.4,131.25,156.29,164.2
				C2250.27,898.1,2231.74,923.49,2231.74,923.49z"/>
			<path class="st4" d="M2202.39,924.24c-14.38,10.16-28.06,17.73-28.06,17.73c5.03,36.75,33.44,81.25,31.28,121.32
				c-1.88,34.76-6.58,102.53-6.58,102.53l23.17-56.59c14.86-39.52,49.46-123.53,53.25-144.05c3.78-20.52-14.31-51.25-42.7-53.07
				C2204.35,910.29,2202.39,924.24,2202.39,924.24z"/>
			<path class="st4" d="M1834.12,900.59c12.96,11.92,25.56,21.18,25.56,21.18c-9.69,35.81-43.56,76.31-46.54,116.33
				c-2.58,34.71-6.3,124.7-6.3,124.7l-16.02-81.26c-9.68-41.1-33.26-128.84-34.38-149.68c-1.13-20.84,20.74-49,49.14-47.18
				C1833.96,886.5,1834.12,900.59,1834.12,900.59z"/>
			<path class="st4" d="M2107.56,1106.1c1.03-15.97-7.32-29.51-18.65-30.23c-11.32-0.73-21.34,11.63-22.36,27.6
				c-1.03,15.97,7.32,29.51,18.65,30.23C2096.53,1134.43,2106.54,1122.07,2107.56,1106.1z"/>
			<path class="st4" d="M1927.8,1098.58c-0.2-16-9.55-28.86-20.9-28.72c-11.35,0.14-20.39,13.22-20.19,29.23
				c0.2,16,9.55,28.86,20.9,28.72C1918.95,1127.66,1927.99,1114.58,1927.8,1098.58z"/>
			<path class="st13" d="M1948.43,1208.16c10.12,15.04,62.8,12.74,78.28,10.04c-13.95,11.77-30.13,17.07-50.83,14.69
				c-20.7-2.39-34.93-15.18-34.88-19.93c0.04-4.75,10.25-23.89,10.25-23.89S1945.49,1203.79,1948.43,1208.16z"/>
			<path class="st14" d="M1944.6,1296.65c51.57-29.04,127.01-33.42,141.12-35.42c-0.8,45.35-40.95,93.63-88.08,87.7
				c-47.13-5.93-56.54-43.14-56.54-43.14s-11.74,1.89-16.11,4.24C1931.23,1305.43,1935.97,1301.51,1944.6,1296.65z"/>
			<path class="st8" d="M1997.64,1348.94c33.31,4.19,63.06-18.73,77.97-48.53c-20.61-12.8-88.38,5.7-101.83,41.77
				C1980.41,1345.3,1988.25,1347.75,1997.64,1348.94z"/>
			<path class="st4" d="M2062.61,981.26c-8.97,9.46-7.09,22.77-4.07,25.08c3.02,2.31,29.24,2.3,44.65,6.21
				c28.74,7.3,35.59,14.65,44.99,28.41c4.02,5.89,7.31-26.1-17.77-43.91C2104.02,978.32,2066.39,977.28,2062.61,981.26z"/>
			<path class="st4" d="M1942.67,961.94c7.69,10.53,4.12,23.49,0.83,25.39c-3.29,1.9-29.29-1.46-45.08,0.45
				c-29.44,3.56-37.17,9.97-48.25,22.42c-4.74,5.33-3.91-26.82,23.24-41.27C1901.97,953.73,1939.43,957.51,1942.67,961.94z"/>
			<path class="st10" d="M2110.44,1533.77c-64.71,29.4-130.41,30.74-197.23,0.06c-7.5-3.44-12.36-10.92-12.36-19.18v-37.89
				c0-8.55,8.35-14.52,16.48-11.85c60.15,19.78,123.34,19.12,189.39-0.75c8.03-2.42,16.11,3.59,16.11,11.97v38.45
				C2122.83,1522.85,2117.96,1530.35,2110.44,1533.77z"/>
			<path class="st5" d="M1940.34,1299.17c6.38,4.9,16.81,9.37,26.54,9.37c11.59,0,79.56-19.76,90.88-25.03
				c7.16-3.33,12.39-13.69,15.28-20.88c-27.13,2.04-85.9,10.06-128.44,34.02C1943.05,1297.52,1941.67,1298.35,1940.34,1299.17z"/>
			<path class="st10" d="M2390.57,2016.28c77.88,116.35,186.3,51.07,209.93-22.14l53.78-200.55c17.92-28.56,26.21-92.95-9.46-115.33
				l-13.09-8.21c-35.67-22.38-84.39,3.87-102.31,32.43c0,0-90.01,139.53-116.99,189.77
				C2382.63,1947.77,2389.07,1984.41,2390.57,2016.28z"/>
			<path class="st10" d="M2547.5,1662.63c-3.22,4.58-26.5,37.56-26.56,43.52c-0.21,21.66,18.94,48.58,50.54,68.04
				c31.18,19.2,74.66,30.25,90.36,23.11c4.02-1.83,24.39-34.76,26.84-38.29c9.31-13.38-18.54-41.62-57.81-68.03
				C2591.6,1664.58,2552.88,1654.98,2547.5,1662.63z"/>
			<path class="st7" d="M2645.19,1740.95c10.69,3.48,28.87,2.54,28.87,2.54c-0.31-10.57-29.96-46.11-61.59-60.89
				c-31.63-14.78-50.41-14.5-52.19-11.75c-1.79,2.75,2,21.14,29.06,43.39C2623.09,1733.65,2645.19,1740.95,2645.19,1740.95z"/>
			<g>
				<path class="st11" d="M2813.35,1610.52c42.49-16.14,78.89-22.16,104.78-32.97c25.89-10.82,44.48-20.94,57.35-28.5
					c12.87-7.56-13.94-35.04-38.58-25.56c-24.64,9.48-53.45,22.99-57.7,24.43c-4.26,1.44-93.04,8-93.04,8
					S2775.27,1599.16,2813.35,1610.52z"/>
				<path class="st11" d="M2784.23,1600.79c39.67-22.19,74.79-33.48,98.81-47.97c24.02-14.49,40.93-27.24,52.55-36.6
					c11.62-9.36-18.92-32.62-41.91-19.63c-22.99,12.99-49.5,30.57-53.5,32.62c-4,2.05-90.86,21.55-90.86,21.55
					S2744.89,1595.13,2784.23,1600.79z"/>
				<path class="st11" d="M2670.78,1732.19c-55.04-23.11-102.22-52.58-97.55-76.07c4.68-23.5,35.93-84.64,44.59-95.14
					c8.65-10.5,62-38.51,76.05-48.2c14.05-9.69,27.53-41.25,36.07-56.58c8.54-15.33,25.2-2,28.69,5.37
					c6.63,14,10.69,39.84-0.84,53.67c-11.53,13.83-29.14,31.59-29.14,31.59l83.58-8.51c0,0-5.65,123.83-24.82,150.3
					C2761.38,1698.28,2670.78,1732.19,2670.78,1732.19z"/>
				<path class="st12" d="M2918.13,1577.54c-25.89,10.82-62.28,16.83-104.78,32.97c-13.8-4.12-42.77,3.03-46.56-5.89
					c30.31-8.16,95.5-21.21,98.61-22.26c4.26-1.44,33.06-14.95,57.71-24.43c10.52-4.05,21.41-1.34,29.46,3.66
					C2942.88,1566.56,2931.49,1571.96,2918.13,1577.54z"/>
				<path class="st12" d="M2728.65,1546.83c-12.33,23.86-26.59,40.15-26.59,40.15c20.97-17.23,34.14-41.25,34.14-41.25
					L2728.65,1546.83z"/>
				<path class="st11" d="M2800.25,1648.87c42.49-16.14,78.89-22.16,104.78-32.97c25.89-10.82,44.48-20.94,57.35-28.5
					c12.87-7.56-13.94-35.04-38.58-25.56c-24.64,9.48-53.45,22.99-57.7,24.43S2765,1604.95,2765,1604.95
					S2762.17,1637.51,2800.25,1648.87z"/>
				<path class="st12" d="M2770.99,1633.44c22.97,1.1,53.98-0.57,56.39-1.42c4.17-1.48,31.07-15.53,55.2-25.24
					c12.46-5.01,25.67-2.55,33.77,4.2c-4.23,1.91-6.63,2.95-11.33,4.91c-25.89,10.82-62.28,16.83-104.78,32.97
					C2786.28,1644.7,2774.74,1642.47,2770.99,1633.44z"/>
				<path class="st11" d="M2764.88,1697.69c41.62-16.53,77.37-23,102.71-34.04c25.34-11.04,43.5-21.29,56.06-28.93
					c12.56-7.64-14.25-34.3-38.38-24.6c-24.13,9.71-52.3,23.44-56.48,24.92c-4.17,1.48-84.21-2.98-84.21-2.98
					S2727.2,1687.07,2764.88,1697.69z"/>
				<path class="st12" d="M2913.08,1533.21c0,0-47.04,21.34-53.56,23.69c-6.52,2.35-89.43,18.12-89.43,18.12s82.9-20.91,88.54-21.92
					s64.59-27.27,64.59-27.27L2913.08,1533.21z"/>
				<path class="st12" d="M2698.29,1633.54c0,0-40.1-5.04-54.03,2.49c-13.92,7.53-35.62,40.35-35.62,40.35
					c14.38-27.08,27.14-40.55,35.15-45.96C2651.8,1625.01,2698.29,1633.54,2698.29,1633.54z"/>
			</g>
			<path class="st11" d="M2573.24,1656.11l-12.46,20.9c4.94,34.32,70.98,67.14,103.02,66.44c5.88-9.3,6.99-11.27,6.99-11.27
				l-14.4-32.96L2573.24,1656.11z"/>
			<path class="st7" d="M2521.82,1714.31c6.98,23.25,24.09,41.43,24.09,41.43c-19.31-12.82-30.83-30.88-30.83-30.88L2521.82,1714.31
				z"/>
		</g>
		<path class="st5" d="M2827.62,1206h-17.64c-2.8,0-5.1,2.29-5.1,5.1v9c0,2.81,2.3,5.1,5.1,5.1h17.64c2.81,0,5.1-2.29,5.1-5.1v-9
			C2832.72,1208.3,2830.42,1206,2827.62,1206z"/>
		<path class="st5" d="M2795.54,1206h-17.64c-2.8,0-5.1,2.29-5.1,5.1v9c0,2.81,2.3,5.1,5.1,5.1h17.64c2.8,0,5.1-2.29,5.1-5.1v-9
			C2800.64,1208.3,2798.34,1206,2795.54,1206z"/>
		<path class="st3" d="M2069.53,709.21c109.44,81.28-3.84,134.72-3.84,134.72c57.28,9.28,65.92,37.16,64.64,68.02
			c19.84-67.06,78.72-64.5,78.72-64.5C2162.97,742.49,2069.53,709.21,2069.53,709.21z"/>
	</g>
</g>
</svg>
